<?xml version="1.0" encoding="utf-8"?>
<!-- Generator: Adobe Illustrator 27.5.0, SVG Export Plug-In . SVG Version: 6.00 Build 0)  -->
<svg version="1.1" xmlns="http://www.w3.org/2000/svg" xmlns:xlink="http://www.w3.org/1999/xlink" x="0px" y="0px"
	 viewBox="0 0 500 500" style="enable-background:new 0 0 500 500;" xml:space="preserve">
<g id="BACKGROUND">
	<rect style="fill:#FFFFFF;" width="500" height="500"/>
</g>
<g id="OBJECTS">
	<g>
		<path style="fill:#AA9517;" d="M234.836,249.972c0,0,8.281,11.12,36.391,15.39c28.11,4.27,35.372-1.455,35.372-1.455v-13.935
			l-22.551-19.597l-39.753,6.336L234.836,249.972z"/>
		<path style="fill:#AA9517;" d="M196.454,199.102c0,0-3.846,16.304,15.84,24.064l7.84-17.171l-9.091-14.601L196.454,199.102z"/>
		<path style="fill:#A53232;" d="M215.96,306.097c0,0,10.389,25.726,42.152,20.301l3.147-17.762l15.083-0.848l-9.903,25.019
			c0,0,17.071,10.737,44.586-2.433l-12.925-30.134l-49.35-22.79l-26.217,19.877L215.96,306.097z"/>
		<path style="fill:#E24949;" d="M167.376,329.273l-1.969,5.123l-2.344,4.455c0,0-0.284,1.966-2.876,2.708
			c-2.592,0.741-7.579,0.9-10.691,3.91c-3.111,3.01-8.074,11.253-11.958,15.77c-3.884,4.517-8.999,4.927-10.617,1.257
			c-1.618-3.671,3.568-25.729,6.254-31.329c2.686-5.6,4.315-6.939,4.055-9.233c-0.26-2.294,1.649-7.922,2.815-11.154
			c1.166-3.231,1.627-6.321,4.407-6.809c2.78-0.488,13.226,6.399,18.453,7.313s8.825,1.027,8.551,4.356
			C171.184,318.97,167.376,329.273,167.376,329.273z"/>
		<path style="fill:#C13838;" d="M162.589,316.694c-5.767-1.626-15.152-2.327-20.928-1.014c-1.087,0.247-2.181,0.2-3.243-0.038
			c-0.748,2.474-1.338,4.952-1.186,6.292c0.26,2.294-1.37,3.632-4.055,9.233c-2.686,5.6-7.872,27.658-6.254,31.329
			c1.618,3.671,6.733,3.261,10.617-1.257c3.884-4.517,8.847-12.76,11.958-15.77c3.111-3.01,8.098-3.168,10.691-3.91
			c2.592-0.741,2.876-2.708,2.876-2.708l2.344-4.455l1.969-5.123c0,0,2.974-8.05,3.852-12.217
			C168.1,317.312,164.845,317.331,162.589,316.694z"/>
		<path style="fill:#FF7373;" d="M144.453,303.971c-2.78,0.488-3.241,3.577-4.407,6.809c-1.166,3.231-3.075,8.86-2.815,11.154
			c0.26,2.294-1.37,3.632-4.055,9.233c-2.686,5.6-7.872,27.658-6.254,31.329c0.756,1.714,2.278,2.527,4.077,2.458
			c0.035-5.795,2.597-16.169,4.245-21.341c1.867-5.858,5.066-12.781,7.362-16.68s2.591-10.713,4.386-15.183
			c0.863-2.149,2.351-4.158,3.665-5.67C147.914,304.768,145.566,303.776,144.453,303.971z"/>
		<path style="fill:#E24949;" d="M126.922,362.496c0.098,0.221,0.209,0.426,0.331,0.618c0.052,0.081,0.113,0.151,0.169,0.227
			c0.074,0.101,0.146,0.205,0.227,0.296c0.084,0.094,0.176,0.175,0.266,0.259c0.062,0.058,0.121,0.119,0.187,0.172
			c0.114,0.092,0.236,0.172,0.359,0.25c0.048,0.03,0.094,0.064,0.143,0.092c0.143,0.082,0.293,0.152,0.447,0.216
			c0.033,0.014,0.064,0.029,0.097,0.042c0.171,0.065,0.347,0.119,0.529,0.162c0.018,0.004,0.035,0.009,0.053,0.013
			c0.195,0.044,0.395,0.075,0.6,0.094c0.005,0.001,0.011,0.001,0.016,0.002c0.213,0.018,0.431,0.024,0.653,0.015
			c0.035-5.795,2.597-16.169,4.245-21.341c1.867-5.858,5.066-12.781,7.362-16.68c1.775-3.014,2.356-7.767,3.357-11.836
			c-1.557,0.105-3.022,0.292-4.303,0.583c-1.087,0.247-2.181,0.2-3.243-0.038c-0.278,0.92-0.534,1.84-0.738,2.702
			c-0.008,0.034-0.015,0.067-0.023,0.101c-0.054,0.233-0.105,0.46-0.15,0.683c-0.016,0.076-0.029,0.149-0.044,0.224
			c-0.035,0.178-0.066,0.352-0.095,0.521c-0.014,0.085-0.027,0.168-0.04,0.251c-0.023,0.154-0.042,0.302-0.058,0.447
			c-0.009,0.081-0.019,0.162-0.026,0.24c-0.013,0.145-0.02,0.28-0.025,0.413c-0.002,0.063-0.007,0.131-0.008,0.191
			c-0.002,0.184,0.004,0.356,0.022,0.511c0,0.002,0,0.005,0,0.007c0.049,0.43,0.031,0.827-0.048,1.224
			c-0.079,0.397-0.218,0.795-0.413,1.229c-0.13,0.289-0.285,0.593-0.462,0.924c-0.711,1.322-1.789,3.056-3.132,5.856
			c-1.511,3.15-3.813,11.508-5.25,18.871c-0.239,1.227-0.455,2.427-0.639,3.57c-0.184,1.143-0.336,2.23-0.449,3.232
			c-0.075,0.668-0.133,1.298-0.171,1.882c-0.019,0.292-0.033,0.572-0.042,0.84C126.582,360.9,126.669,361.922,126.922,362.496z"/>
		<path style="fill:#E24949;" d="M232.668,405.746l2.114,5.065l1.381,4.841c0,0,1.153,1.618-0.21,3.944
			c-1.363,2.326-4.86,5.885-5.032,10.211c-0.171,4.326,1.932,13.715,2.243,19.664c0.311,5.949-3.105,9.778-6.811,8.241
			c-3.705-1.537-15.188-21.072-17.113-26.977c-1.925-5.905-1.671-7.998-3.443-9.478c-1.772-1.479-4.279-6.868-5.667-10.011
			c-1.388-3.142-3.189-5.695-1.515-7.968c1.674-2.273,13.985-4.506,18.396-7.455c4.411-2.949,7.092-5.352,9.193-2.755
			C228.306,395.664,232.668,405.746,232.668,405.746z"/>
		<path style="fill:#C13838;" d="M232.818,406.105l-0.15-0.359c0,0-4.362-10.082-6.464-12.679c-2.101-2.597-4.782-0.194-9.193,2.755
			c-4.411,2.949-16.722,5.182-18.396,7.455c-1.674,2.273,0.126,4.826,1.515,7.968c1.388,3.142,3.895,8.531,5.667,10.011
			c1.772,1.479,1.518,3.573,3.443,9.478c1.439,4.413,8.215,16.437,13.094,22.874c-2.371-10.886-2.517-27.797-2.548-34.133
			c-0.036-7.288,4.765-8.849,4.765-8.849l1.064-6.287C225.616,404.338,230.371,405.664,232.818,406.105z"/>
		<path style="fill:#F2D611;" d="M243.624,387.122c0,0-1.577-3.548-6.385-2.301c-4.807,1.247-13.738,10.768-15.263,13.033
			c-1.525,2.265-3.159,6.168-1.481,9.073c1.677,2.906,5.428,4.986,8.098,4.383c2.67-0.603,6.316,1.509,7.57,4.342
			c0,0-0.722-4.397,2.68-6.425c3.402-2.027,12.345-2.313,12.654-6.619C251.806,398.302,243.624,387.122,243.624,387.122z"/>
		<path style="fill:#E0AD0B;" d="M244.968,389.039c-0.8-1.173-1.343-1.917-1.343-1.917s-1.577-3.548-6.385-2.301
			c-4.807,1.247-13.738,10.768-15.263,13.033c-1.525,2.265-3.159,6.168-1.481,9.073c0.91,1.576,2.43,2.904,4.057,3.698
			c1.839-2.688,4.321-5.638,7.417-7.781c7.288-5.045,10.32-2.326,10.32-2.326c-3.508-5.129-2.761-13.112-2.761-13.112
			S244.154,389.254,244.968,389.039z"/>
		<path style="fill:#F2D611;" d="M180.521,318.446c-3.384-1.218-6.896-0.1-9.652-0.674c-0.652-0.195-1.247-0.344-1.719-0.409
			c-2.978-0.406-6.363-1.625-8.799,0.271c-2.437,1.895-4.738,8.393-3.384,11.236c1.354,2.843,7.175,4.467,6.227,9.747
			c0,0,2.978-2.572,4.197-2.301c1.218,0.271,3.353,4.603,7.091,4.332c3.739-0.271,8.477-17.464,8.477-17.464
			S183.906,319.664,180.521,318.446z"/>
		<path style="fill:#E0AD0B;" d="M179.709,328.677l-4.648,9.319c0,0-2.116-1.826-1.76-5.189c0.185-1.745,1.87-6.395,3.467-10.507
			c-1.869-0.514-4.206-0.669-6.946-1.969c-5.094-2.415-7.232-3.637-7.233-3.637c-0.8,0.129-1.557,0.409-2.239,0.939
			c-2.437,1.895-4.738,8.393-3.384,11.236c1.354,2.843,7.175,4.467,6.227,9.747c0,0,2.978-2.572,4.197-2.301
			c1.218,0.271,3.353,4.603,7.091,4.332c2.688-0.195,5.892-9.134,7.481-14.145c-0.307-0.047-0.582-0.153-0.822-0.319
			L179.709,328.677z"/>
		<path style="fill:#FFBF8F;" d="M262.169,312.814c0,0-12.025,21.848-20.297,30.845c-8.272,8.996-15.469,10.796-23.951,10.025
			c-8.482-0.771-43.439-15.936-43.439-15.936s0.771-11.31,5.141-16.45c0,0,15.936,2.827,22.876,2.57
			c6.94-0.257,10.796-2.313,18.25,1.542c0,0,1.354-21.558,11.892-33.638c10.538-12.081,22.391,1.766,22.391,1.766L262.169,312.814z"
			/>
		<path style="fill:#E8A370;" d="M255.032,293.536c0,0-11.853-13.847-22.391-1.766c-10.539,12.081-11.892,33.638-11.892,33.638
			c-7.454-3.855-11.31-1.799-18.25-1.542s-22.876-2.57-22.876-2.57c-4.37,5.141-5.141,16.45-5.141,16.45
			s34.957,15.165,43.439,15.936c3.91,0.355,7.547,0.152,11.142-1.039c-3.332-0.707-7.206-1.811-10.738-3.539
			c-8.501-4.16-9.517-16.53,1.809-16.298c11.326,0.232,16.485-25.616,16.485-25.616c8.688,0.704,16.163,10.654,19.552,15.947
			c3.499-5.787,5.997-10.324,5.997-10.324L255.032,293.536z"/>
		<path style="fill:#FFBF8F;" d="M305.003,322.078c0,0-35.322-13.159-35.841-1.731c-0.38,8.356,6.031,34.702,6.031,34.702
			c-8.953,2.696-15.389,9.617-21.65,17.65c-6.261,8.033-14.016,14.708-14.016,14.708s1.215,7.164,8.472,13.723
			c0,0,12.206-5.399,22.446-11.098c25.884-14.406,31.303-26.113,31.581-26.868c1.1-2.994,1.353-12.5,1.369-12.883
			c0,0-0.001,0-0.001,0C304.713,337.045,305.003,322.078,305.003,322.078z"/>
		<path style="fill:#E8A370;" d="M269.162,320.346c-0.38,8.356,6.031,34.702,6.031,34.702c-8.953,2.696-15.389,9.617-21.65,17.65
			c-6.261,8.033-14.016,14.708-14.016,14.708s0.744,4.309,4.454,9.3c2.944-3.944,7.18-9.134,12.697-14.652
			c11.611-11.611,25.156-18.245,27.644-23.65s-3.317-15.329-1.935-22.516c1.382-7.188,8.293-6.358,16.863-6.195
			c2.339,0.045,4.123,0.064,5.503,0.07c0.188-4.601,0.249-7.687,0.249-7.687S269.681,308.919,269.162,320.346z"/>
		<path style="fill:#E8A370;" d="M294.916,271.611l7.084-7.203c0,0,1.084-12.886-3.68-23.148
			c-4.765-10.262-24.504-25.01-24.504-25.01l-26.875,10.21l-5.069,21.517L294.916,271.611z"/>
		<polygon style="fill:#E8A370;" points="185.124,157.041 179.345,153.803 177.237,157.313 175.407,157.748 173.727,161.295 
			173.61,162.169 172.277,162.323 171.278,166.923 171.416,171.183 178.106,174.409 185.571,168.221 		"/>
		<g>
			<path style="fill:#D6FFA6;" d="M260.649,82.162l0.21-0.314c1.342-2.061,2.67-4.335,3.772-6.476l-0.383,0.574l-2.6-1.736
				l1.736-2.6l2.277,1.52c0.061-0.143,0.122-0.286,0.184-0.429l-2.206-1.473l1.736-2.6l1.649,1.101
				c0.046-0.167,0.081-0.32,0.116-0.474l-1.51-1.008l1.736-2.6l0.012,0.008c0.023-0.324,0.049-0.648,0.078-0.968l-0.217,0.325
				l-2.6-1.736l1.735-2.6l1.358,0.906c0.012-0.18,0.021-0.356,0.029-0.532l-1.132-0.756l1.096-1.642
				c-0.018-0.304-0.033-0.552-0.046-0.757l-1.432,2.145l-2.6-1.735l1.736-2.6l2.254,1.505c-0.016-0.267-0.017-0.274-0.017-0.274
				l-0.102-0.356l-1.881-1.256l1.064-1.595l-0.166-0.578l-1.28,1.918l-2.6-1.736l1.736-2.6l1.795,1.198l-0.195-0.682l-1.345-0.898
				l0.451-0.675l-0.303-0.372l-0.529,0.792l-2.6-1.736l1.062-1.591l-0.303-0.372l-1.14,1.708l-2.6-1.735l1.188-1.78l-0.381-0.255
				l-1.188,1.78l-2.6-1.736l0.777-1.164c-0.188,0.009-0.378,0.019-0.57,0.028l-0.588,0.881l-1.19-0.795
				c-0.258,0.013-0.515,0.025-0.77,0.037l1.706,1.139l-1.736,2.6l-2.6-1.736l1.295-1.939c-0.193,0.009-0.382,0.018-0.569,0.027
				l-1.107,1.658l-2.248-1.501c-0.484,0.022-0.772,0.036-0.772,0.036s-0.163,0.072-0.445,0.2l-1.506,2.256l-1.36-0.908
				c-0.155,0.076-0.315,0.153-0.477,0.233l1.582,1.056l-1.735,2.6l-2.6-1.735l0.534-0.8c-0.281,0.146-0.564,0.294-0.849,0.446
				l-0.067,0.1l-0.054-0.036c-0.152,0.081-0.305,0.163-0.457,0.246l0.257,0.171l-1.736,2.6l-1.55-1.034
				c-0.144,0.088-0.288,0.177-0.428,0.265l1.724,1.151l-1.736,2.6l-2.6-1.736l0.253-0.379c-0.59,0.464-1.083,0.912-1.442,1.335
				l-1.182,1.771L231.4,54.02c-0.08,0.123-0.163,0.258-0.245,0.387l0.044,0.03l-0.768,1.151c-0.893,1.497-1.863,3.265-2.782,5.099
				l2.551,1.703l-1.736,2.6l-2.174-1.451c-0.064,0.142-0.126,0.284-0.189,0.425l2.109,1.408l-1.735,2.6l-1.575-1.051
				c-0.055,0.15-0.108,0.299-0.159,0.445l1.479,0.988l-1.736,2.6l-0.565-0.378c-0.021,0.189-0.031,0.365-0.032,0.53l0.343,0.229
				l-0.318,0.476c0.018,0.23,0.043,0.469,0.074,0.716l0.625-0.937l2.6,1.735l-1.736,2.6l-0.972-0.649
				c0.053,0.22,0.109,0.44,0.167,0.663l0.55,0.367l-0.319,0.479c0.055,0.191,0.11,0.383,0.168,0.575l0.533-0.799l2.6,1.736
				l-1.736,2.6l-0.208-0.139c0.108,0.269,0.217,0.531,0.327,0.786l0.008-0.012l2.6,1.736l-0.932,1.396
				c0.092,0.123,0.205,0.245,0.306,0.368l1.007-1.509l2.6,1.735l-1.189,1.78l0.381,0.255l1.188-1.78l2.6,1.735l-1.189,1.78
				l0.381,0.255l1.188-1.78l2.6,1.736l-1.008,1.511c0.152,0.044,0.306,0.087,0.465,0.13l0.925-1.386l2.6,1.736l-0.043,0.064
				c0.29-0.017,0.578-0.042,0.867-0.065l-0.189-0.126l1.736-2.6l2.6,1.735l-0.36,0.54c0.206-0.031,0.412-0.068,0.618-0.1
				l0.124-0.185l0.199,0.133c0.221-0.036,0.443-0.07,0.664-0.108l-0.609-0.406l1.736-2.6l2.6,1.736l-0.424,0.635
				c0.215-0.046,0.431-0.092,0.645-0.14l0.16-0.24l0.232,0.155c0.062-0.014,0.125-0.026,0.187-0.041
				c0.142-0.033,0.273-0.076,0.412-0.111l-0.577-0.385l1.736-2.6l2.129,1.421c0.141-0.09,0.283-0.178,0.419-0.272l-2.293-1.531
				l1.735-2.6l2.6,1.735l-1.129,1.692c0.413-0.352,0.799-0.718,1.119-1.118c0.639-0.798,1.319-1.734,2.008-2.741l0.374-0.56
				l0.005,0.004c0.084-0.125,0.168-0.256,0.251-0.383L260.649,82.162z M230.455,62.008l-2.6-1.736l1.736-2.6l2.6,1.736
				L230.455,62.008z M232.445,59.026l-2.6-1.736l1.735-2.6l2.6,1.736L232.445,59.026z M234.435,56.045l-2.6-1.736l1.736-2.6
				l2.6,1.736L234.435,56.045z M227.466,72.941l-2.6-1.735l1.736-2.6l2.6,1.735L227.466,72.941z M229.456,69.96l-2.6-1.735
				l1.735-2.6l2.6,1.735L229.456,69.96z M231.446,66.979l-2.6-1.735l1.735-2.6l2.6,1.735L231.446,66.979z M233.436,63.998
				l-2.6-1.735l1.735-2.6l2.6,1.735L233.436,63.998z M235.426,61.016l-2.6-1.735l1.735-2.6l2.6,1.735L235.426,61.016z
				 M237.416,58.035l-2.6-1.735l1.736-2.6l2.6,1.735L237.416,58.035z M239.406,55.054l-2.6-1.735l1.736-2.6l2.6,1.735
				L239.406,55.054z M241.396,52.072l-2.6-1.735l1.736-2.6l2.6,1.735L241.396,52.072z M228.457,77.913l-2.6-1.736l1.736-2.6
				l2.6,1.735L228.457,77.913z M230.447,74.931l-2.6-1.736l1.736-2.6l2.6,1.736L230.447,74.931z M232.437,71.95l-2.6-1.736
				l1.735-2.6l2.6,1.736L232.437,71.95z M234.427,68.969l-2.6-1.736l1.736-2.6l2.6,1.736L234.427,68.969z M236.417,65.988
				l-2.6-1.736l1.735-2.6l2.6,1.736L236.417,65.988z M238.407,63.006l-2.6-1.736l1.735-2.6l2.6,1.736L238.407,63.006z
				 M240.397,60.025l-2.6-1.736l1.736-2.6l2.6,1.736L240.397,60.025z M242.387,57.044l-2.6-1.736l1.736-2.6l2.6,1.736
				L242.387,57.044z M244.377,54.063l-2.6-1.736l1.736-2.6l2.6,1.736L244.377,54.063z M246.367,51.081l-2.6-1.736l1.735-2.6
				l2.6,1.736L246.367,51.081z M248.357,48.1l-2.6-1.736l1.736-2.6l2.6,1.736L248.357,48.1z M229.448,82.884l-2.6-1.736l1.736-2.6
				l2.6,1.736L229.448,82.884z M231.438,79.903l-2.6-1.736l1.736-2.6l2.6,1.736L231.438,79.903z M233.428,76.922l-2.6-1.736
				l1.736-2.6l2.6,1.736L233.428,76.922z M235.418,73.94l-2.6-1.736l1.735-2.6l2.6,1.736L235.418,73.94z M237.408,70.959l-2.6-1.736
				l1.736-2.6l2.6,1.736L237.408,70.959z M239.398,67.978l-2.6-1.735l1.735-2.6l2.6,1.736L239.398,67.978z M241.388,64.996
				l-2.6-1.736l1.735-2.6l2.6,1.736L241.388,64.996z M243.378,62.015l-2.6-1.736l1.736-2.6l2.6,1.736L243.378,62.015z
				 M245.368,59.034l-2.6-1.736l1.736-2.6l2.6,1.736L245.368,59.034z M247.359,56.053l-2.6-1.736l1.736-2.6l2.6,1.736
				L247.359,56.053z M249.349,53.071l-2.6-1.736l1.735-2.6l2.6,1.736L249.349,53.071z M251.339,50.09l-2.6-1.736l1.736-2.6
				l2.6,1.736L251.339,50.09z M232.429,84.874l-2.6-1.736l1.736-2.6l2.6,1.735L232.429,84.874z M234.42,81.893l-2.6-1.736l1.736-2.6
				l2.6,1.735L234.42,81.893z M236.41,78.912l-2.6-1.736l1.736-2.6l2.6,1.736L236.41,78.912z M238.4,75.93l-2.6-1.735l1.735-2.6
				l2.6,1.735L238.4,75.93z M240.39,72.949l-2.6-1.736l1.736-2.6l2.6,1.735L240.39,72.949z M242.38,69.968l-2.6-1.736l1.736-2.6
				l2.6,1.735L242.38,69.968z M244.37,66.987l-2.6-1.736l1.735-2.6l2.6,1.736L244.37,66.987z M246.36,64.006l-2.6-1.736l1.736-2.6
				l2.6,1.736L246.36,64.006z M248.35,61.024l-2.6-1.736l1.736-2.6l2.6,1.736L248.35,61.024z M250.34,58.043l-2.6-1.736l1.736-2.6
				l2.6,1.736L250.34,58.043z M252.33,55.061l-2.6-1.736l1.735-2.6l2.6,1.736L252.33,55.061z M254.32,52.08l-2.6-1.736l1.736-2.6
				l2.6,1.736L254.32,52.08z M256.31,49.099l-2.6-1.736l1.735-2.6l2.6,1.736L256.31,49.099z M235.41,86.864l-2.6-1.735l1.735-2.6
				l2.6,1.735L235.41,86.864z M237.401,83.883l-2.6-1.735l1.736-2.6l2.6,1.735L237.401,83.883z M239.391,80.901l-2.6-1.735
				l1.736-2.6l2.6,1.735L239.391,80.901z M241.381,77.92l-2.6-1.735l1.735-2.6l2.6,1.735L241.381,77.92z M243.371,74.939l-2.6-1.735
				l1.736-2.6l2.6,1.735L243.371,74.939z M245.361,71.958l-2.6-1.735l1.736-2.6l2.6,1.735L245.361,71.958z M247.351,68.976
				l-2.6-1.735l1.735-2.6l2.6,1.735L247.351,68.976z M249.341,65.995l-2.6-1.735l1.736-2.6l2.6,1.735L249.341,65.995z
				 M251.331,63.014l-2.6-1.735l1.736-2.6l2.6,1.735L251.331,63.014z M253.321,60.033l-2.6-1.735l1.736-2.6l2.6,1.735
				L253.321,60.033z M255.311,57.051l-2.6-1.735l1.735-2.6l2.6,1.735L255.311,57.051z M257.301,54.07l-2.6-1.735l1.736-2.6
				l2.6,1.735L257.301,54.07z M259.291,51.089l-2.6-1.735l1.736-2.6l2.6,1.735L259.291,51.089z M238.392,88.854l-2.6-1.736
				l1.735-2.6l2.6,1.736L238.392,88.854z M240.382,85.873l-2.6-1.736l1.736-2.6l2.6,1.736L240.382,85.873z M242.372,82.892
				l-2.6-1.736l1.736-2.6l2.6,1.736L242.372,82.892z M244.362,79.91l-2.6-1.736l1.735-2.6l2.6,1.736L244.362,79.91z M246.352,76.929
				l-2.6-1.735l1.736-2.6l2.6,1.736L246.352,76.929z M248.342,73.948l-2.6-1.735l1.736-2.6l2.6,1.736L248.342,73.948z
				 M250.332,70.966l-2.6-1.735l1.735-2.6l2.6,1.736L250.332,70.966z M252.322,67.985l-2.6-1.735l1.736-2.6l2.6,1.736
				L252.322,67.985z M254.312,65.004l-2.6-1.735l1.736-2.6l2.6,1.736L254.312,65.004z M256.302,62.023l-2.6-1.735l1.736-2.6
				l2.6,1.736L256.302,62.023z M258.292,59.041l-2.6-1.736l1.735-2.6l2.6,1.736L258.292,59.041z M260.282,56.06l-2.6-1.736
				l1.736-2.6l2.6,1.736L260.282,56.06z M262.272,53.079l-2.6-1.736l1.736-2.6l2.6,1.736L262.272,53.079z M241.373,90.844
				l-2.6-1.735l1.735-2.6l2.6,1.736L241.373,90.844z M243.363,87.863l-2.6-1.735l1.736-2.6l2.6,1.736L243.363,87.863z
				 M245.354,84.882l-2.6-1.735l1.736-2.6l2.6,1.736L245.354,84.882z M247.344,81.9l-2.6-1.735l1.735-2.6l2.6,1.736L247.344,81.9z
				 M249.333,78.919l-2.6-1.736l1.736-2.6l2.6,1.735L249.333,78.919z M251.324,75.938l-2.6-1.735l1.736-2.6l2.6,1.736
				L251.324,75.938z M253.314,72.956l-2.6-1.735l1.735-2.6l2.6,1.736L253.314,72.956z M255.303,69.976l-2.6-1.736l1.736-2.6
				l2.6,1.736L255.303,69.976z M257.294,66.994l-2.6-1.736l1.736-2.6l2.6,1.736L257.294,66.994z M259.284,64.013l-2.6-1.736
				l1.736-2.6l2.6,1.736L259.284,64.013z M261.274,61.031l-2.6-1.736l1.735-2.6l2.6,1.736L261.274,61.031z M263.264,58.05
				l-2.6-1.736l1.736-2.6l2.6,1.735L263.264,58.05z M246.344,89.853l-2.6-1.735l1.736-2.6l2.6,1.735L246.344,89.853z
				 M248.334,86.871l-2.6-1.735l1.736-2.6l2.6,1.735L248.334,86.871z M250.325,83.89l-2.6-1.735l1.735-2.6l2.6,1.735L250.325,83.89z
				 M252.314,80.909l-2.6-1.735l1.735-2.6l2.6,1.735L252.314,80.909z M254.305,77.928l-2.6-1.735l1.736-2.6l2.6,1.735
				L254.305,77.928z M256.295,74.946l-2.6-1.735l1.735-2.6l2.6,1.735L256.295,74.946z M258.284,71.965l-2.6-1.735l1.736-2.6
				l2.6,1.735L258.284,71.965z M260.275,68.984l-2.6-1.735l1.736-2.6l2.6,1.735L260.275,68.984z M262.265,66.003l-2.6-1.735
				l1.736-2.6l2.6,1.735L262.265,66.003z M264.255,63.021l-2.6-1.735l1.735-2.6l2.6,1.735L264.255,63.021z M251.316,88.862
				l-2.6-1.736l1.736-2.6l2.6,1.736L251.316,88.862z M253.306,85.88l-2.6-1.736l1.735-2.6l2.6,1.736L253.306,85.88z M255.296,82.899
				l-2.6-1.736l1.735-2.6l2.6,1.736L255.296,82.899z M257.286,79.918l-2.6-1.736l1.735-2.6l2.6,1.736L257.286,79.918z
				 M259.276,76.937l-2.6-1.736l1.735-2.6l2.6,1.736L259.276,76.937z M261.266,73.955l-2.6-1.736l1.736-2.6l2.6,1.735
				L261.266,73.955z M263.256,70.974l-2.6-1.736l1.736-2.6l2.6,1.736L263.256,70.974z M265.246,67.993l-2.6-1.736l1.736-2.6
				l2.6,1.736L265.246,67.993z M258.277,84.889l-2.6-1.736l1.735-2.6l2.6,1.735L258.277,84.889z M260.267,81.908l-2.6-1.736
				l1.736-2.6l2.6,1.735L260.267,81.908z M262.257,78.927l-2.6-1.736l1.735-2.6l2.6,1.735L262.257,78.927z"/>
			<path style="fill:#754AA3;" d="M261.892,44.377c-10.125-6.759-26.586,1.516-34.539,13.43
				c-6.818,10.214-6.113,21.486,1.337,28.768c0.656,0.641,1.039,1.469,1.131,2.327s-0.107,1.747-0.617,2.509l-39.775,59.587
				l-4.945,2.667l6.165,4.115l0.567-5.589l39.775-59.587c0.345-0.517,0.798-0.924,1.311-1.209c1.003-0.557,2.237-0.646,3.353-0.171
				c9.582,4.087,20.262,0.415,27.08-9.799C270.689,69.511,272.018,51.136,261.892,44.377z M233.161,87.42
				c-9.493-6.337-11.095-17.749-3.986-28.398c7.229-10.83,22.565-18.791,31.503-12.825c8.938,5.966,7.467,23.183,0.238,34.012
				C253.807,90.859,242.653,93.757,233.161,87.42z"/>
			
				<rect x="176.751" y="153.567" transform="matrix(0.8317 0.5552 -0.5552 0.8317 122.7327 -72.1899)" style="fill:#E24949;" width="7.413" height="25.617"/>
			<polygon style="fill:#754AA3;" points="176.429,179.086 170.263,174.971 169.079,176.082 175.942,180.663 			"/>
		</g>
		<path style="fill:#FFBF8F;" d="M216.942,192.325l-11.472,3.813c0,0-9.182,6.668-13.07,10.098
			c-0.092-2.524-0.412-4.996-1.152-6.943c-2.451-6.445-2.182-12.271-1.595-18.564c0.587-6.293,3.299-11.325,3.081-15.411
			c-0.218-4.086-1.603-5.164-4.365-7.381s-5.566-4.121-6.334-2.185c-0.769,1.936,3.021,2.188,3.37,5.293
			c0.349,3.105-3.006,5.324-3.451,8.646c0,0-3.057,3.798-4.105,5.921c-1.049,2.123-1.421,3.474-1.421,3.474s2.31,3.219,1.472,7.578
			c-0.838,4.359-7.661,34.406-4.167,40.676c3.494,6.269,14.224,4.332,21.104,1.998c6.387-1.612,25.883-14.255,28.889-20.421
			C226.732,202.751,216.942,192.325,216.942,192.325z"/>
		<path style="fill:#E8A370;" d="M223.266,209.711l-10.748-15.915l-7.047,2.342c0,0-2.441,1.774-5.337,3.959
			c0.085,0.071,0.157,0.142,0.251,0.213c6.625,5.026,7.539,15.94,7.539,15.94s-18.963,8.506-22.518,9.649
			c-3.556,1.142-4.669-3.656-5.234-9.649c-0.565-5.993,1.25-23.707,2.22-28.734c0.97-5.026-1.884-7.311-1.935-10.966
			c-0.051-3.655,4.029-2.57,4.029-2.57s-1.008-2-1.176-5.203c-0.049-0.937,0.113-1.987,0.362-3.005
			c-0.76,1.206-1.521,2.455-1.717,3.919c0,0-3.057,3.798-4.105,5.921c-1.049,2.123-1.421,3.474-1.421,3.474s2.31,3.219,1.472,7.578
			c-0.838,4.359-7.661,34.406-4.167,40.676c3.494,6.269,14.224,4.332,21.104,1.998C200.962,227.793,219.133,216.106,223.266,209.711
			z"/>
		<path style="fill:#FFBF8F;" d="M182.035,159.678c0,0-1.229-5.777-3.309-6.172c-2.08-0.395-3.543,2.242-1.812,5.338
			c1.731,3.095,4.25,4.644,5.017,3.769C182.903,161.505,182.035,159.678,182.035,159.678z"/>
		<path style="fill:#FFBF8F;" d="M179.189,162.127c0,0-3.03-5.07-5.126-4.771c-2.096,0.299-2.628,3.267,0.011,5.637
			c2.639,2.369,5.523,3.021,5.966,1.945C180.601,163.575,179.189,162.127,179.189,162.127z"/>
		<path style="fill:#FFBF8F;" d="M177.216,166.146c0,0-3.865-4.466-5.877-3.807c-2.012,0.659-2.02,3.674,0.99,5.549
			c3.011,1.875,5.964,2.014,6.214,0.878C178.858,167.327,177.216,166.146,177.216,166.146z"/>
		<path style="fill:#FFBF8F;" d="M175.41,170.637c0,0-3.865-4.466-5.877-3.807c-2.012,0.659-2.02,3.674,0.99,5.549
			c3.011,1.875,5.964,2.014,6.214,0.878C177.052,171.818,175.41,170.637,175.41,170.637z"/>
		<path style="fill:#FFBF8F;" d="M371.154,90.535c-0.877-0.511-0.618,2.222-0.438,5.272c0.18,3.051-0.564,5.811-0.564,5.811
			s0.149-4.688-0.421-7.74c-0.576-3.088-2.156-7.5-3.207-7.376c-1.051,0.124-0.34,3.134,0.314,6.162
			c0.654,3.028-0.499,6.508-0.499,6.508s0.044-4.424-0.61-7.452c-0.654-3.028-3.553-8.223-4.547-7.806
			c-0.994,0.416-0.177,2.146,0.87,5.045c0.69,1.91,0.966,5.24,1.075,7.295c-0.371-2.901-1.844-6.262-2.45-7.597
			c-0.737-1.623-2.777-4.106-3.771-3.689c-0.994,0.416,2.367,8.106,1.969,11.258c-0.398,3.152-4.555,9.986-4.555,9.986
			c-1.562-5.528-5.472-9.616-6.68-8.834c-1.208,0.782,2.729,8.802,2.806,11.092c0.046,1.366,0.916,4.553,1.613,6.908
			c-0.021-0.008-0.042-0.017-0.063-0.025c-2.036,3.928-13.358,19.825-20.238,25.9c-5.623,4.965-9.083,10.597-11.568,14.137
			c-0.23,0.139-0.466,0.288-0.675,0.392c-3.293,1.653-19.846,3.531-19.846,3.531s4.766,19.08,11.457,19.148
			c4.286,0.043,13.553-4.408,20.415-7.441c0,0,4.573-3.116,8.231-7.705c0.003-0.003,0.004-0.005,0.007-0.008
			c0.157-0.167,0.307-0.33,0.457-0.492l0.001,0.001c0,0,0.005-0.007,0.006-0.008c0.625-0.679,1.187-1.317,1.655-1.888
			c4.199-5.124,15.736-32.272,19.414-39.329c1.534-1.52,5.929-5.965,7.603-8.624c2.718-4.316,3.967-9.429,4.401-13.615
			C373.749,95.164,372.031,91.046,371.154,90.535z"/>
		<path style="fill:#E8A370;" d="M373.333,96.816c-0.366,1.764-2.717,12.563-6.17,16.016c-3.764,3.764-6.722,5.243-8.066,5.243
			c-1.344,0-3.495-2.554-3.495-2.554s-0.037,2.671,2.383,4.82c0,0-5.206,13.392-10.181,22.167
			c-4.974,8.775-13.943,20.113-16.766,21.692c-2.823,1.579-15.769,7.652-15.769,7.652s-1.314-9.802-5.698-11.623
			c-2.516-1.045-4.074,6.033-4.946,12.258c1.806,3.309,4.021,5.949,6.501,5.974c4.286,0.043,13.553-4.408,20.415-7.441
			c0,0,4.573-3.116,8.231-7.705c0.003-0.003,0.004-0.005,0.007-0.008c0.157-0.167,0.307-0.33,0.457-0.492l0.001,0.001
			c0,0,0.005-0.007,0.006-0.008c0.625-0.679,1.187-1.317,1.655-1.888c4.199-5.124,15.736-32.272,19.414-39.329
			c1.534-1.52,5.929-5.965,7.603-8.624c2.718-4.316,3.967-9.43,4.401-13.615C373.404,98.492,373.399,97.638,373.333,96.816z"/>
		<path style="fill:#F2D611;" d="M306.144,156.169c0,0-5.879,0.548-13.359,0.275c-3.515-0.129-7.091-0.239-10.504-0.038
			c-1.64-0.156-3.249-0.171-4.799,0.05c-6.397,0.914-16.798,4.462-16.798,4.462l-27.163,6.333c0,0-9.346,5.046-13.306,7.939
			c-3.96,2.893-10.966,12.336-15.535,16.6c-4.569,4.265-8.225,7.311-8.225,7.311s8.529,0.609,13.098,8.834
			s2.742,15.231,2.742,15.231s18.868-10.966,20.857-15.231c0,0,4.73,6.092,7.167,13.708c2.437,7.615-5.178,20.714-5.483,28.329
			c0,0,32.594-10.966,53.612-2.437c19.224,7.801,18.317,15.597,18.022,16.873c0.444-1.671,3.659-14.505,0.104-23.148
			c-3.809-9.26-7.465-11.562-8.074-25.337c-0.609-13.775-0.305-23.827-1.523-29.31c0,0,10.13-2.442,14.692-3.07
			c0.661,0.191,1.294,0.201,1.892-0.132C313.561,183.411,314.687,162.497,306.144,156.169z"/>
		<path style="fill:#5E4942;" d="M254.626,133.032c4.314-8.321,2.376-15.973,2.376-15.973c-0.717,3.227-1.793,4.84-1.793,4.84
			c1.255-11.114-4.868-20.591-4.868-20.591s-2.631,2.355-8.904,5.76c-3.503,1.902-8.489,2.606-13.103,4.39
			c1.429-1.995,3.033-2.974,3.033-2.974c-17.898,5.936-15.193,17.082-14.038,20.179c0.074,0.344,0.158,0.67,0.248,0.977
			c-1.417,2.186-2.693,6.165-0.934,12.866c1.263,4.81,4.41,7.907,8.078,9.748l0.001,0.002c0,0,8.465,4.402,5.917,10.755
			c0,0,7.634-2.714,5.171-8.547c1.512-0.092,2.859-0.346,3.913-0.725c5.718-2.053,19.206-11.234,19.206-11.234v-5.172
			L254.626,133.032z"/>
		<path style="fill:#FFBF8F;" d="M243.041,119.908c2.61-0.073,5.091,1.119,6.731,3.15c1.135,1.405,2.368,2.978,2.948,3.871
			c1.075,1.653,1.141,3.515,2.882,4.306c1.74,0.791,3.182,1.414,4.131,4.578c0.949,3.164,2.971,9.968,2.435,12.816
			c-0.536,2.848-3.293,1.208-3.926,5.005s0.067,7.653,1.332,9.394l1.108,5.221c0,0-3.797,0.158-5.222-0.633
			c-1.424-0.791-0.633-3.006-3.956-2.69c-3.323,0.317-16.456-0.633-16.456-0.633s0.791-6.013,0-8.386
			c-0.791-2.373-1.899-6.804-1.899-6.804s-3.323-0.303-5.855-3.237c-2.532-2.934,0.158-6.89,3.165-5.624l1.899,0.475l0.791-0.791
			c0,0-0.791-4.43-2.69-6.329c-1.899-1.899-0.778-7.452,0.475-8.861C234.332,120.918,239.423,120.009,243.041,119.908z"/>
		<g>
			<path style="fill:#E8A370;" d="M259.576,163.028c-1.266-1.741-1.965-5.596-1.332-9.394c0.509-3.054,2.39-2.594,3.387-3.778
				c0,0-1.998,1.536-6.792,1.845c-3.338,0.215-10.16-0.366-13.32-0.951c-2.29-0.424-4.974-3.453-4.974-3.453
				s0.585,1.814-3.392,1.806c0,0,1.108,4.43,1.899,6.804c0.791,2.373,0,8.386,0,8.386s13.133,0.949,16.456,0.633
				c3.323-0.316,2.532,1.899,3.956,2.69c1.424,0.791,5.222,0.633,5.222,0.633L259.576,163.028z"/>
		</g>
		<path style="fill:#E8A370;" d="M228.128,142.632c0,0,2.858-0.642,4.315,0.991c1.458,1.633,0.35,2.333-0.525,2.099
			c-0.875-0.233-0.817-1.188-0.467-1.586C231.452,144.137,230.577,142.982,228.128,142.632z"/>
		<path style="fill:#E24949;" d="M235.351,160.918c0,0,0.394,2.658,3.054,2.9c2.66,0.242,14.219-0.822,15.766,0.484
			c1.548,1.306,1.789,2.225,3.095,2.902c1.306,0.677,3.417,1.047,3.417,1.047s-0.322-0.176-2.015,0.598
			c-1.693,0.774-2.902,6.577-4.014,6.336c-1.112-0.242-12.913-5.03-15.621-5.755c-2.708-0.725-4.933-0.58-5.513-2.176
			C232.939,165.656,232.925,161.694,235.351,160.918z"/>
		<path style="fill:#E24949;" d="M258.112,158.597c0,0,1.711-0.548,3.518,1.174c1.806,1.723,6.034,9.16,4.469,9.004
			c-1.566-0.157-5.415-0.525-5.415-0.525s-0.692-4.407-1.318-5.582C258.738,161.494,258.197,159.849,258.112,158.597z"/>
		<path style="fill:#E24949;" d="M241.872,247.977c0,0,40.547-5.685,60.128,16.431c0,0,7.891,37.379,9.025,65.967
			c0,0-28.331-11.392-44.586,2.433l-4.164-13.885l-4.164,7.477c0,0-1.111-15.795-13.838-21.718
			c-14.021-6.525-28.315,1.416-28.315,1.416s7.049-18.169,13.613-30.63C236.137,263.007,239.686,253.317,241.872,247.977z"/>
		<path style="fill:#C13838;" d="M253.581,247.323c-6.99-0.006-11.709,0.654-11.709,0.654c-2.186,5.34-5.735,15.03-12.299,27.491
			c-6.564,12.461-13.613,30.63-13.613,30.63s13.175-7.311,26.634-2.122c-0.609-4.704-0.653-10.592,1.7-15.071
			c4.621-8.799-10.069,0-5.233-13.827C241.55,267.956,247.954,256.634,253.581,247.323z"/>
		<path style="fill:#C13838;" d="M303.393,271.441c-0.836-4.39-1.393-7.033-1.393-7.033c-19.581-22.116-60.128-16.431-60.128-16.431
			c-0.752,1.837-1.67,4.199-2.812,7C250.518,254.429,282.516,254.607,303.393,271.441z"/>
		<path style="fill:#FF7373;" d="M198.616,403.277c-1.674,2.273,0.126,4.826,1.515,7.968c1.388,3.142,3.895,8.531,5.667,10.011
			c1.772,1.479,1.518,3.573,3.443,9.478c1.925,5.905,13.408,25.44,17.113,26.977c1.73,0.718,3.392,0.254,4.646-1.038
			c-3.977-4.216-9.288-13.487-11.668-18.366c-2.696-5.526-5.163-12.742-6.195-17.147c-1.032-4.406-5.525-9.538-7.313-14.01
			c-0.86-2.15-1.171-4.631-1.265-6.632C201.669,401.463,199.286,402.368,198.616,403.277z"/>
		<path style="fill:#E24949;" d="M209.623,431.771c0.117,0.295,0.244,0.603,0.388,0.936c0.003,0.006,0.005,0.011,0.007,0.017
			c0.148,0.34,0.314,0.704,0.489,1.079c0.043,0.093,0.087,0.186,0.132,0.281c0.175,0.372,0.359,0.754,0.556,1.153
			c0.006,0.012,0.011,0.023,0.017,0.035c0.205,0.414,0.424,0.845,0.649,1.284c0.053,0.102,0.106,0.205,0.159,0.309
			c0.225,0.434,0.456,0.875,0.698,1.327c0.005,0.01,0.01,0.019,0.015,0.028c0.25,0.468,0.511,0.946,0.777,1.428
			c0.056,0.102,0.113,0.204,0.169,0.306c0.542,0.977,1.11,1.975,1.696,2.978c0.052,0.088,0.104,0.177,0.156,0.265
			c0.596,1.015,1.207,2.03,1.825,3.027c0.05,0.081,0.1,0.162,0.151,0.243c0.621,0.999,1.246,1.977,1.865,2.915
			c0.048,0.072,0.095,0.144,0.143,0.216c0.619,0.934,1.23,1.824,1.823,2.651c0.045,0.063,0.09,0.125,0.135,0.188
			c0.293,0.406,0.582,0.8,0.863,1.171c-0.825-3.787-1.376-8.303-1.751-12.849c-0.471-0.891-0.897-1.724-1.252-2.451
			c-2.696-5.526-5.163-12.742-6.195-17.147c-1.032-4.406-5.525-9.538-7.313-14.01c-0.86-2.15-1.171-4.631-1.265-6.632
			c-1.436,0.47-2.745,0.929-3.783,1.384c-0.012,0.005-0.024,0.01-0.036,0.016c-0.25,0.11-0.484,0.22-0.699,0.33
			c-0.012,0.006-0.023,0.012-0.035,0.019c-0.197,0.102-0.377,0.203-0.542,0.304c-0.019,0.012-0.04,0.024-0.059,0.036
			c-0.16,0.101-0.299,0.202-0.422,0.303c-0.025,0.02-0.048,0.041-0.071,0.061c-0.117,0.102-0.221,0.205-0.296,0.307
			c-0.942,1.278-0.784,2.645-0.219,4.156c0.126,0.336,0.271,0.679,0.43,1.029c0.079,0.175,0.161,0.352,0.246,0.532
			c0.338,0.717,0.711,1.465,1.058,2.251c0.954,2.16,2.438,5.383,3.847,7.666c0.128,0.208,0.256,0.408,0.382,0.598
			c0.506,0.762,0.995,1.376,1.438,1.746c0.664,0.555,1.044,1.196,1.36,2.092c0.053,0.149,0.104,0.306,0.154,0.47
			c0.201,0.657,0.391,1.44,0.634,2.399c0.304,1.198,0.693,2.672,1.295,4.517c0.08,0.246,0.183,0.523,0.295,0.814
			C209.564,431.621,209.593,431.695,209.623,431.771z"/>
		<path style="fill:#E8A370;" d="M192.4,206.236c0,0,0.484,4.25-0.891,7.637c0,0,2.443-4.379,2.336-8.826L192.4,206.236z"/>
		<path style="fill:#E8A370;" d="M358.323,108.016c0,0,5.215-1.793,8.044,0C366.367,108.016,362.724,104.222,358.323,108.016z"/>
		<path style="fill:#E8A370;" d="M319.515,155.781c0,0,4.009-1.51,7.961,3.753c0,0,0.056-3.765-6.513-5.264L319.515,155.781z"/>
		<path style="fill:#C13838;" d="M262.276,318.922c0,0,16.245-9.25,23.284-23.871c0,0-2.708,12.017-2.708,20.629
			c0,8.612,1.653,10.403,1.653,10.403s-14.172,1.701-18.066,6.724L262.276,318.922z"/>
		<path style="fill:#E8A370;" d="M230.707,133.872c-0.276-1.339-0.585-3.272-0.429-4.682c0.263-2.37,2.809-5.618,8.515-8.339
			c0.639-0.305,1.226-0.545,1.776-0.746c-3.231,0.424-6.957,1.623-9.633,4.632c-1.253,1.409-2.373,6.962-0.475,8.861
			C230.546,133.683,230.626,133.778,230.707,133.872z"/>
		<g>
			<path style="fill:#E0AD0B;" d="M292.092,170.372c3.798,4.733,4.885,16.241,4.885,16.241s10.13-2.442,14.692-3.07
				c0.661,0.191,1.294,0.201,1.892-0.132c0,0,0.257-4.82-0.418-10.531c-3.792,1.728-11.512,4.726-13.474,1.529
				C297.041,170.126,292.092,170.372,292.092,170.372z"/>
			<path style="fill:#E0AD0B;" d="M233.151,207.936c0,0,4.73,6.092,7.167,13.708c2.437,7.615-5.178,20.714-5.483,28.329
				c0,0,10.689-3.59,23.767-5.063c-4.703-2.646-10.159-6.807-9.47-11.627c1.187-8.307,3.085-11.393-2.192-17.032
				c-5.278-5.64-3.979-11.686-5.069-17.581c-1.09-5.895-6.864-11.906-6.864-11.906c-0.359,8.07-3.676,14.003-8.218,18.284
				c-2.558,2.41-9.751,4.905-15.549,6.624c2.339,6.5,1.053,11.495,1.053,11.495S231.163,212.2,233.151,207.936z"/>
		</g>
	</g>
	<g>
		
			<rect x="285.912" y="77.14" transform="matrix(-0.3583 0.9336 -0.9336 -0.3583 466.3994 -164.9532)" style="fill:#F24141;" width="7.949" height="1.327"/>
		
			<rect x="287.887" y="80.014" transform="matrix(-0.3584 0.9336 -0.9336 -0.3584 467.59 -160.0158)" style="fill:#D33333;" width="1.793" height="1.327"/>
		<path style="fill:#C5DAFF;" d="M287.843,81.277c-2.447-1.074-3.804-3.446-3.044-5.426c0.76-1.98,3.356-2.835,5.893-1.995
			L287.843,81.277z M297.902,89.524c1.205-0.248,0.683-1.78,0.683-1.78s1.415,1.118,2.065,0.171c0.747-1.09-0.719-2.137-0.719-2.137
			s1.77,0.398,2.142-0.569c0.371-0.967-1.28-1.899-1.28-1.899c1.772,0.663,2.358-0.416,2.358-0.416s0.286-1.194-1.474-1.887
			c0,0,1.851,0.412,2.222-0.555c0.371-0.967-1.211-1.856-1.211-1.856s1.79,0.203,1.964-1.107c0.151-1.138-1.649-1.254-1.649-1.254
			s1.413-0.789,0.683-1.78c-0.73-0.99-3.626-0.097-5.173,0.254c-2.84,0.644-4.454,0.321-6.582-0.38l-1.424,3.711l-1.424,3.711
			c2.05,0.903,3.466,1.742,5.145,4.121C295.142,87.17,296.697,89.772,297.902,89.524z"/>
		<path style="fill:#91AFDB;" d="M287.843,81.277c-2.252-0.988-3.559-3.074-3.164-4.943c0.763,1.138,1.96,2.333,3.808,3.266
			L287.843,81.277z M289.7,80.141L289.7,80.141l-0.618,1.611c2.05,0.903,3.466,1.742,5.145,4.121c0.915,1.296,2.47,3.898,3.675,3.65
			c1.205-0.248,0.683-1.78,0.683-1.78s1.415,1.118,2.065,0.171C298.067,81.478,289.7,80.141,289.7,80.141z"/>
	</g>
</g>
<g id="DESIGNED_BY_FREEPIK">
	<g>
		<g id="XMLID_29_">
			<g id="XMLID_48_">
				<path id="XMLID_56_" style="fill:#9EB7C7;" d="M260.104,465.465c-0.432,0.443-0.803,0.931-1.108,1.453l-0.465-0.241
					c-0.067-0.298-0.349-0.503-0.659-0.466c-0.331,0.039-0.568,0.339-0.529,0.67c0.039,0.331,0.339,0.568,0.67,0.529
					c0.066-0.008,0.127-0.026,0.184-0.052l0.451,0.234c-0.251,0.554-0.433,1.139-0.539,1.744l0.747,0.132
					c0.23-1.306,0.85-2.507,1.792-3.473L260.104,465.465z"/>
				<path id="XMLID_55_" style="fill:#9EB7C7;" d="M265.592,463.163c-0.171,0-0.341,0.006-0.51,0.017l-0.074-0.626
					c0.188-0.149,0.296-0.389,0.266-0.645c-0.046-0.393-0.402-0.674-0.795-0.628c-0.393,0.046-0.674,0.402-0.628,0.795
					c0.03,0.254,0.189,0.461,0.404,0.564l0.074,0.624c-0.714,0.116-1.403,0.332-2.06,0.646l0.327,0.684
					c0.934-0.447,1.942-0.673,2.995-0.673c0.496,0,0.993,0.053,1.475,0.158l0.161-0.741
					C266.693,463.222,266.142,463.163,265.592,463.163z"/>
				<path id="XMLID_54_" style="fill:#9EB7C7;" d="M272.194,465.711c0.331-0.04,0.566-0.341,0.525-0.672
					c-0.041-0.331-0.342-0.566-0.672-0.526c-0.309,0.038-0.535,0.304-0.53,0.609l-0.416,0.363c-0.418-0.43-0.889-0.813-1.408-1.139
					l-0.404,0.641c1.134,0.715,2.021,1.726,2.563,2.925l0.69-0.313c-0.251-0.554-0.567-1.072-0.942-1.545l0.402-0.351
					C272.065,465.716,272.129,465.719,272.194,465.711z"/>
				<path id="XMLID_53_" style="fill:#9EB7C7;" d="M265.044,473.372c-0.386,0.023-0.775,0.035-1.157,0.035
					c-0.88,0-1.733-0.061-2.478-0.179c-0.39-0.062-0.846-0.155-1.27-0.292c1.046,1.861,3.069,3.125,5.388,3.125
					c2.855,0,5.262-1.916,5.95-4.504c-0.682,0.449-1.505,0.825-2.459,1.123C267.839,473.047,266.464,473.286,265.044,473.372z"/>
				<path id="XMLID_49_" style="fill:#9EB7C7;" d="M265.592,464.68c-3.352,0-6.08,2.666-6.08,5.943c0,0.426,0.046,0.849,0.137,1.261
					c0.674,0.483,2.706,0.89,5.348,0.731c2.879-0.173,5.297-0.957,6.672-2.159c-0.005-0.195-0.021-0.39-0.045-0.582
					C271.244,466.913,268.65,464.68,265.592,464.68z M263.432,471.194c-1.02,0-1.85-0.83-1.85-1.85c0-1.02,0.83-1.85,1.85-1.85
					c1.02,0,1.85,0.83,1.85,1.85C265.282,470.365,264.452,471.194,263.432,471.194z M268.17,470.286c-0.75,0-1.36-0.61-1.36-1.36
					s0.61-1.361,1.36-1.361s1.36,0.61,1.36,1.361S268.92,470.286,268.17,470.286z"/>
			</g>
			<path id="XMLID_46_" style="fill:#9EB7C7;" d="M281.595,466.547c-0.295-0.116-0.806-0.309-1.383-0.237
				c-0.551,0.069-0.844,0.341-0.844,1.007v0.866h2.228v1.717h-2.228v5.455h-1.932v-5.455h-1.34v-1.717h1.34v-0.888
				c0-1.68,0.896-2.783,2.568-2.783c0.642,0,1.157,0.122,1.59,0.308L281.595,466.547z"/>
			<path id="XMLID_44_" style="fill:#9EB7C7;" d="M286.298,469.879c-0.177-0.03-0.358-0.046-0.526-0.046
				c-0.896,0-1.51,0.548-1.51,1.614v3.908h-1.932v-7.172h1.873v0.785c0.451-0.673,1.14-0.977,2.021-0.977
				c0.414,0,0.848,0.128,1.094,0.337L286.298,469.879z"/>
			<path id="XMLID_41_" style="fill:#9EB7C7;" d="M293.965,471.757c0,0.222-0.015,0.489-0.037,0.651h-5.085
				c0.207,1.036,0.932,1.488,1.843,1.488c0.622,0,1.295-0.252,1.813-0.688l1.132,1.243c-0.814,0.748-1.85,1.088-3.057,1.088
				c-2.198,0-3.723-1.495-3.723-3.753c0-2.258,1.48-3.797,3.627-3.797C292.544,467.99,293.958,469.522,293.965,471.757z
				 M288.851,471.091h3.175c-0.177-0.918-0.733-1.436-1.562-1.436C289.554,469.655,289.021,470.203,288.851,471.091z"/>
			<path id="XMLID_38_" style="fill:#9EB7C7;" d="M301.618,471.757c0,0.222-0.015,0.489-0.037,0.651h-5.085
				c0.207,1.036,0.933,1.488,1.843,1.488c0.622,0,1.295-0.252,1.813-0.688l1.133,1.243c-0.814,0.748-1.85,1.088-3.057,1.088
				c-2.198,0-3.723-1.495-3.723-3.753c0-2.258,1.48-3.797,3.627-3.797C300.197,467.99,301.611,469.522,301.618,471.757z
				 M296.504,471.091h3.175c-0.178-0.918-0.733-1.436-1.562-1.436C297.207,469.655,296.674,470.203,296.504,471.091z"/>
			<path id="XMLID_35_" style="fill:#9EB7C7;" d="M309.964,471.764c0,2.154-1.495,3.775-3.471,3.775
				c-0.962,0-1.643-0.378-2.109-0.933v3.708h-1.924v-10.133h1.887v0.792c0.466-0.585,1.155-0.984,2.139-0.984
				C308.469,467.99,309.964,469.61,309.964,471.764z M304.287,471.764c0,1.132,0.747,1.976,1.843,1.976
				c1.14,0,1.85-0.881,1.85-1.976c0-1.095-0.71-1.976-1.85-1.976C305.035,469.788,304.287,470.632,304.287,471.764z"/>
			<path id="XMLID_32_" style="fill:#9EB7C7;" d="M313.068,465.836c0,0.696-0.54,1.229-1.236,1.229
				c-0.696,0-1.229-0.533-1.229-1.229c0-0.696,0.533-1.243,1.229-1.243C312.527,464.592,313.068,465.14,313.068,465.836z
				 M312.809,475.354h-1.932v-7.172h1.932V475.354z"/>
			<path id="XMLID_30_" style="fill:#9EB7C7;" d="M316.032,470.736l2.702-2.554h2.368l-3.479,3.375l3.501,3.797h-2.376l-2.716-2.901
				v2.901H314.1v-10.658h1.932V470.736z"/>
		</g>
		<g>
			<path style="fill:#9EB7C7;" d="M184.412,475.289v-1.055c-0.527,0.718-1.391,1.23-2.388,1.23c-1.846,0-3.149-1.406-3.149-3.706
				c0-2.256,1.289-3.721,3.149-3.721c0.952,0,1.816,0.469,2.388,1.245v-3.765h1.099v9.77H184.412z M184.412,473.37v-3.208
				c-0.396-0.615-1.245-1.143-2.124-1.143c-1.421,0-2.27,1.172-2.27,2.739c0,1.567,0.85,2.724,2.27,2.724
				C183.168,474.483,184.017,473.986,184.412,473.37z"/>
			<path style="fill:#9EB7C7;" d="M186.932,471.744c0-2.051,1.465-3.706,3.486-3.706c2.139,0,3.398,1.67,3.398,3.794v0.279h-5.727
				c0.088,1.333,1.025,2.446,2.549,2.446c0.805,0,1.626-0.322,2.182-0.894l0.527,0.718c-0.703,0.703-1.655,1.084-2.812,1.084
				C188.44,475.465,186.932,473.956,186.932,471.744z M190.403,468.947c-1.509,0-2.256,1.274-2.314,2.358h4.643
				C192.718,470.25,192.014,468.947,190.403,468.947z"/>
			<path style="fill:#9EB7C7;" d="M194.607,474.351l0.571-0.791c0.469,0.542,1.362,1.011,2.329,1.011c1.084,0,1.67-0.513,1.67-1.216
				c0-1.714-4.38-0.659-4.38-3.281c0-1.098,0.952-2.036,2.636-2.036c1.201,0,2.051,0.454,2.622,1.026l-0.513,0.762
				c-0.424-0.513-1.201-0.894-2.109-0.894c-0.967,0-1.567,0.483-1.567,1.113c0,1.552,4.38,0.527,4.38,3.281
				c0,1.187-0.952,2.138-2.783,2.138C196.306,475.465,195.324,475.113,194.607,474.351z"/>
			<path style="fill:#9EB7C7;" d="M201.477,466.471c0-0.41,0.337-0.747,0.732-0.747c0.41,0,0.747,0.337,0.747,0.747
				c0,0.41-0.337,0.732-0.747,0.732C201.814,467.203,201.477,466.881,201.477,466.471z M201.667,475.289v-7.075h1.099v7.075H201.667
				z"/>
			<path style="fill:#9EB7C7;" d="M204.582,477.105l0.556-0.82c0.586,0.703,1.289,0.967,2.3,0.967c1.172,0,2.27-0.571,2.27-2.124
				v-1.011c-0.513,0.718-1.377,1.26-2.373,1.26c-1.845,0-3.149-1.377-3.149-3.662c0-2.27,1.289-3.677,3.149-3.677
				c0.952,0,1.802,0.469,2.373,1.245v-1.069h1.098v6.87c0,2.344-1.641,3.076-3.369,3.076
				C206.237,478.16,205.417,477.926,204.582,477.105z M209.709,473.253v-3.091c-0.381-0.615-1.23-1.143-2.109-1.143
				c-1.421,0-2.27,1.128-2.27,2.695c0,1.553,0.849,2.695,2.27,2.695C208.478,474.41,209.328,473.868,209.709,473.253z"/>
			<path style="fill:#9EB7C7;" d="M217.413,475.289v-4.629c0-1.245-0.63-1.641-1.582-1.641c-0.865,0-1.685,0.527-2.095,1.099v5.17
				h-1.099v-7.075h1.099v1.025c0.498-0.586,1.464-1.201,2.519-1.201c1.48,0,2.256,0.747,2.256,2.285v4.966H217.413z"/>
			<path style="fill:#9EB7C7;" d="M219.932,471.744c0-2.051,1.465-3.706,3.486-3.706c2.138,0,3.398,1.67,3.398,3.794v0.279h-5.727
				c0.088,1.333,1.025,2.446,2.549,2.446c0.806,0,1.626-0.322,2.183-0.894l0.527,0.718c-0.703,0.703-1.655,1.084-2.813,1.084
				C221.441,475.465,219.932,473.956,219.932,471.744z M223.404,468.947c-1.509,0-2.256,1.274-2.314,2.358h4.643
				C225.718,470.25,225.015,468.947,223.404,468.947z"/>
			<path style="fill:#9EB7C7;" d="M233.35,475.289v-1.055c-0.527,0.718-1.391,1.23-2.388,1.23c-1.846,0-3.149-1.406-3.149-3.706
				c0-2.256,1.289-3.721,3.149-3.721c0.952,0,1.817,0.469,2.388,1.245v-3.765h1.098v9.77H233.35z M233.35,473.37v-3.208
				c-0.396-0.615-1.245-1.143-2.124-1.143c-1.421,0-2.27,1.172-2.27,2.739c0,1.567,0.85,2.724,2.27,2.724
				C232.105,474.483,232.954,473.986,233.35,473.37z"/>
			<path style="fill:#9EB7C7;" d="M239.692,475.289v-9.77h1.098v3.765c0.572-0.776,1.421-1.245,2.388-1.245
				c1.845,0,3.149,1.465,3.149,3.721c0,2.299-1.304,3.706-3.149,3.706c-0.996,0-1.86-0.513-2.388-1.23v1.055H239.692z
				 M242.9,474.483c1.436,0,2.285-1.157,2.285-2.724c0-1.568-0.85-2.739-2.285-2.739c-0.864,0-1.728,0.527-2.109,1.143v3.208
				C241.171,473.986,242.036,474.483,242.9,474.483z"/>
			<path style="fill:#9EB7C7;" d="M247.528,477.061c0.161,0.073,0.425,0.117,0.601,0.117c0.483,0,0.805-0.161,1.055-0.747
				l0.469-1.069l-2.959-7.148h1.187l2.358,5.8l2.344-5.8h1.201l-3.545,8.51c-0.425,1.025-1.143,1.421-2.08,1.435
				c-0.234,0-0.601-0.044-0.805-0.103L247.528,477.061z"/>
		</g>
	</g>
</g>
</svg>
