<?xml version="1.0" encoding="utf-8"?>
<!-- Generator: Adobe Illustrator 27.5.0, SVG Export Plug-In . SVG Version: 6.00 Build 0)  -->
<svg version="1.1" xmlns="http://www.w3.org/2000/svg" xmlns:xlink="http://www.w3.org/1999/xlink" x="0px" y="0px"
	 viewBox="0 0 500 500" style="enable-background:new 0 0 500 500;" xml:space="preserve">
<g id="BACKGROUND">
	<rect x="0" style="fill:#FFFFFF;" width="499.999" height="500"/>
</g>
<g id="OBJECTS">
	<g>
		<g>
			<g>
				<path style="fill:#B3F7FF;" d="M402.98,120.669l-83.233-49.581c-39.826-23.724-90.212-20.137-126.276,8.988L84.105,168.398
					c-37.479,30.268-51.096,81.29-33.683,126.208l0,0c1.537,3.965,3.292,7.802,5.239,11.507c-4.034,4.033-6.53,9.605-6.53,15.759
					c0,12.306,9.976,22.283,22.283,22.283c4.561,0,8.799-1.373,12.331-3.724c18.125,14.764,40.832,23.747,65.169,24.799
					l172.337,7.449c45.666,1.974,87.855-24.307,106.217-66.166l20.262-46.191C470.176,209.148,450.989,149.267,402.98,120.669z"/>
				<circle style="fill:#B3F7FF;" cx="386.798" cy="82.478" r="17.712"/>
				
					<ellipse transform="matrix(0.3854 -0.9228 0.9228 0.3854 -56.1321 174.3846)" style="fill:#B3F7FF;" cx="102.837" cy="129.328" rx="5.714" ry="5.713"/>
			</g>
			<path style="fill:#4F9967;" d="M439.53,426.643H60.47v-2.383c0-33.316,27.008-60.323,60.323-60.323h258.414
				c33.316,0,60.323,27.008,60.323,60.323V426.643z"/>
		</g>
		<path style="fill:#444463;" d="M450.551,444.516H49.449c-4.909,0-8.889-3.98-8.889-8.889v-0.702c0-4.909,3.98-8.889,8.889-8.889
			h401.102c4.909,0,8.889,3.98,8.889,8.889v0.702C459.44,440.537,455.46,444.516,450.551,444.516z"/>
		<g>
			<g>
				<g>
					<path style="fill:#67E56A;" d="M418.185,395.949c0,7.134-5.783,12.917-12.917,12.917c-7.134,0-12.917-5.783-12.917-12.917
						c0-7.134,5.783-24.701,12.917-24.701C412.402,371.249,418.185,388.816,418.185,395.949z"/>
					<path style="fill:#58CC58;" d="M393.849,401.979c2.167,4.095,6.465,6.887,11.419,6.887c6.015,0,11.055-4.118,12.492-9.684
						C414.108,402.472,406.367,402.887,393.849,401.979z"/>
					<path style="fill:#A1F973;" d="M405.268,371.249c-6.941,0-12.602,16.628-12.902,24.098c6.16-1.13,21.936-5.018,21.7-15.157
						C411.759,375.241,408.668,371.249,405.268,371.249z"/>
				</g>
				<g>
					<rect x="392.562" y="403.207" style="fill:#EFE5D0;" width="25.411" height="22.748"/>
					<rect x="397.263" y="407.415" style="fill:#E2D0B0;" width="16.01" height="14.332"/>
					<path style="fill:#C4B090;" d="M397.263,421.747l16.01-14.332h-16.01C397.263,407.415,397.161,421.849,397.263,421.747z"/>
				</g>
			</g>
			<g>
				<g>
					<path style="fill:#67E56A;" d="M447.77,395.949c0,7.134-5.783,12.917-12.917,12.917c-7.134,0-12.917-5.783-12.917-12.917
						c0-7.134,5.783-24.701,12.917-24.701C441.987,371.249,447.77,388.816,447.77,395.949z"/>
					<path style="fill:#58CC58;" d="M423.434,401.979c2.167,4.095,6.465,6.887,11.419,6.887c6.015,0,11.055-4.118,12.492-9.684
						C443.693,402.472,435.952,402.887,423.434,401.979z"/>
					<path style="fill:#A1F973;" d="M434.853,371.249c-6.941,0-12.602,16.628-12.902,24.098c6.16-1.13,21.936-5.018,21.7-15.157
						C441.344,375.241,438.253,371.249,434.853,371.249z"/>
				</g>
				<g>
					<rect x="422.147" y="403.207" style="fill:#EFE5D0;" width="25.411" height="22.748"/>
					<rect x="426.848" y="407.415" style="fill:#E2D0B0;" width="16.01" height="14.332"/>
					<path style="fill:#C4B090;" d="M426.848,421.747l16.01-14.332h-16.01C426.848,407.415,426.746,421.849,426.848,421.747z"/>
				</g>
			</g>
		</g>
		<g>
			<g>
				<g>
					<path style="fill:#67E56A;" d="M76.661,395.949c0,7.134-5.783,12.917-12.917,12.917s-12.917-5.783-12.917-12.917
						c0-7.134,5.783-24.701,12.917-24.701S76.661,388.816,76.661,395.949z"/>
					<path style="fill:#58CC58;" d="M52.325,401.979c2.167,4.095,6.464,6.887,11.419,6.887c6.015,0,11.055-4.118,12.492-9.684
						C72.585,402.472,64.844,402.887,52.325,401.979z"/>
					<path style="fill:#A1F973;" d="M63.744,371.249c-6.941,0-12.602,16.628-12.903,24.098c6.16-1.13,21.936-5.018,21.7-15.157
						C70.235,375.241,67.144,371.249,63.744,371.249z"/>
				</g>
				<g>
					<rect x="51.039" y="403.207" style="fill:#EFE5D0;" width="25.411" height="22.748"/>
					<rect x="55.739" y="407.415" style="fill:#E2D0B0;" width="16.01" height="14.332"/>
					<path style="fill:#C4B090;" d="M55.739,421.747l16.01-14.332h-16.01C55.739,407.415,55.637,421.849,55.739,421.747z"/>
				</g>
			</g>
			<g>
				<g>
					<path style="fill:#67E56A;" d="M106.246,395.949c0,7.134-5.783,12.917-12.917,12.917c-7.134,0-12.917-5.783-12.917-12.917
						c0-7.134,5.783-24.701,12.917-24.701C100.463,371.249,106.246,388.816,106.246,395.949z"/>
					<path style="fill:#58CC58;" d="M81.91,401.979c2.167,4.095,6.465,6.887,11.419,6.887c6.015,0,11.055-4.118,12.492-9.684
						C102.17,402.472,94.429,402.887,81.91,401.979z"/>
					<path style="fill:#A1F973;" d="M93.329,371.249c-6.941,0-12.602,16.628-12.902,24.098c6.16-1.13,21.936-5.018,21.7-15.157
						C99.82,375.241,96.729,371.249,93.329,371.249z"/>
				</g>
				<g>
					<rect x="80.623" y="403.207" style="fill:#EFE5D0;" width="25.411" height="22.748"/>
					<rect x="85.324" y="407.415" style="fill:#E2D0B0;" width="16.01" height="14.332"/>
					<path style="fill:#C4B090;" d="M85.324,421.747l16.01-14.332h-16.01C85.324,407.415,85.222,421.849,85.324,421.747z"/>
				</g>
			</g>
		</g>
		<g>
			<g>
				<g>
					<g>
						<rect x="111.672" y="240.532" style="fill:#FFD876;" width="276.657" height="186.366"/>
					</g>
					<rect x="119.407" y="283.546" style="fill:#FFCF4A;" width="30.853" height="15.426"/>
					<rect x="295.953" y="269.406" style="fill:#FFB133;" width="30.853" height="15.426"/>
					<rect x="220.535" y="310.543" style="fill:#FFCF4A;" width="30.853" height="15.427"/>
					<rect x="351.66" y="345.681" style="fill:#FFB133;" width="30.853" height="15.426"/>
					<rect x="111.693" y="313.114" style="fill:#FFB133;" width="14.855" height="15.426"/>
					<rect x="373.371" y="313.114" style="fill:#FFCF4A;" width="14.855" height="15.426"/>
					<rect x="202.966" y="376.105" style="fill:#FFCF4A;" width="14.855" height="15.426"/>
					<polygon style="fill:#FFB133;" points="388.328,257.407 111.672,260.835 111.672,240.532 388.328,240.532 					"/>
				</g>
				<g>
					<rect x="111.672" y="412.814" style="fill:#EFE5D0;" width="276.657" height="14.084"/>
					<rect x="111.672" y="423.334" style="fill:#E2D0B0;" width="276.657" height="3.564"/>
				</g>
			</g>
			<g>
				<polygon style="fill:#CCC2B2;" points="397.469,251.417 102.531,251.417 97.225,217.739 402.775,217.739 				"/>
				<polygon style="fill:#EFE5D0;" points="343.675,164.294 156.333,164.294 97.225,217.772 402.783,217.772 				"/>
				<g>
					<polygon style="fill:#F4586B;" points="102.531,251.417 140.87,251.417 140.87,217.739 97.225,217.739 					"/>
					<rect x="184.456" y="217.739" style="fill:#F4586B;" width="43.746" height="33.677"/>
					<rect x="271.789" y="217.739" style="fill:#F4586B;" width="43.746" height="33.677"/>
					<polygon style="fill:#F4586B;" points="359.121,217.739 359.121,251.417 397.469,251.417 402.775,217.739 					"/>
				</g>
				<g>
					<path style="fill:#FF7E71;" d="M343.675,164.294h-2.536c-6.456,0.086-23.324,0.282-24.27,0h-0.012l42.264,53.368h43.541
						L343.675,164.294z"/>
					<path style="fill:#FF7E71;" d="M263.336,164.26l8.453,53.403h43.746l-25.403-53.403
						C290.131,164.26,264.142,164.26,263.336,164.26z"/>
					<polygon style="fill:#FF7E71;" points="184.456,217.663 228.202,217.663 236.637,164.26 209.842,164.26 					"/>
					<path style="fill:#FF7E71;" d="M97.124,217.663h43.746l42.274-53.403c-0.254,0-26.796,0-26.796,0L97.124,217.663z"/>
					<g>
						<path style="fill:#FFAD91;" d="M111.238,204.936c10.681,2.106,22.548,4.212,34.947,6.012l14.884-18.803
							c-8.621-2.333-17.295-5.219-25.982-8.715L111.238,204.936z"/>
						<path style="fill:#FFAD91;" d="M193.559,198.513l-7.934,16.692c14.893,0.97,29.568,1.084,42.988-0.139l2.325-14.717
							C218.797,200.636,206.294,200.101,193.559,198.513z"/>
						<path style="fill:#FFAD91;" d="M268.501,196.894l1.702,10.751c11.791-2.88,23.894-6.343,35.777-10.068l-3.786-7.959
							C291.633,192.496,280.352,195.015,268.501,196.894z"/>
						<path style="fill:#FFAD91;" d="M352.011,171.836c-6.595,2.93-13.999,5.976-22.101,8.94l5.506,6.952
							c8.578-3.038,16.747-6.068,24.274-8.945L352.011,171.836z"/>
					</g>
				</g>
			</g>
			<g>
				<g>
					<rect x="139.118" y="276.262" style="fill:#444463;" width="71.99" height="150.636"/>
					<rect x="145.535" y="282.261" style="fill:#9FDAFF;" width="59.157" height="69.062"/>
					<rect x="145.535" y="356.893" style="fill:#9FDAFF;" width="59.157" height="69.062"/>
					<polygon style="fill:#C2EBFF;" points="201.427,351.323 204.691,342.808 204.691,283.78 159.82,351.323 					"/>
					<polygon style="fill:#C2EBFF;" points="199.292,356.893 156.12,356.893 145.535,372.826 145.535,425.955 172.814,425.955 					
						"/>
					<path style="fill:#FFFFFF;" d="M199.806,363.25h-9.749c-0.972,0-1.768-0.795-1.768-1.768l0,0c0-0.972,0.795-1.768,1.768-1.768
						h9.749c0.972,0,1.768,0.795,1.768,1.768l0,0C201.574,362.454,200.778,363.25,199.806,363.25z"/>
				</g>
				<g>
					<polyline style="fill:none;stroke:#444463;stroke-miterlimit:10;" points="156.151,312.685 174.792,297.848 195.735,312.15 
											"/>
					<path style="fill:#FFFFFF;" d="M178.97,298.491c0,2.189-1.775,3.964-3.964,3.964c-2.189,0-3.964-1.775-3.964-3.964
						c0-2.189,1.775-3.964,3.964-3.964C177.195,294.527,178.97,296.302,178.97,298.491z"/>
					<g>
						<rect x="151.786" y="313.31" style="fill:#7BADC6;" width="43.494" height="26.139"/>
						<rect x="154.116" y="310.971" style="fill:#F4586B;" width="43.494" height="26.139"/>
						<text transform="matrix(1 0 0 1 159.6863 328.2545)" style="fill:#444463; font-family:'Lato-Black'; font-size:11.5698px;">OPEN</text>
					</g>
				</g>
				<g>
					<path style="fill:#55557C;" d="M138.921,300.892c-1.059,0-1.926,0.867-1.926,1.926v13.63c0,1.059,0.867,1.926,1.926,1.926
						c1.059,0,1.926-0.867,1.926-1.926v-13.63C140.847,301.758,139.98,300.892,138.921,300.892z"/>
					<path style="fill:#55557C;" d="M138.921,386.744c-1.059,0-1.926,0.867-1.926,1.926v13.63c0,1.059,0.867,1.926,1.926,1.926
						c1.059,0,1.926-0.867,1.926-1.926v-13.63C140.847,387.61,139.98,386.744,138.921,386.744z"/>
				</g>
			</g>
			<g>
				<g>
					<rect x="234.676" y="391.008" style="fill:#EFE5D0;" width="141.797" height="5.475"/>
					<path style="fill:#FFB133;" d="M376.473,396.483c0,0-64.45,4.69-94.875,4.904c-30.424,0.214-46.922-4.904-46.922-4.904H376.473
						z"/>
				</g>
				<g>
					<rect x="236.819" y="276.262" style="fill:#444463;" width="135.41" height="114.841"/>
					<rect x="243.389" y="281.834" style="fill:#9FDAFF;" width="122.269" height="103.696"/>
					<path style="fill:#7DC0E2;" d="M365.658,353.837c-34.824-0.327-77.937,4.222-122.269,21.086v10.608h122.269V353.837z"/>
					<g>
						<polygon style="fill:#C2EBFF;" points="246.062,385.53 299.594,385.53 348.517,281.834 326.962,281.834 						"/>
						<polygon style="fill:#C2EBFF;" points="361.757,281.834 353.355,281.834 313.74,385.53 328.204,385.53 						"/>
					</g>
					<rect x="343.759" y="363.637" style="fill:#FFFFFF;" width="21.889" height="21.889"/>
					<rect x="346.995" y="368.449" style="fill:#EFE5D0;" width="15.031" height="5.626"/>
					<path style="fill:#444463;" d="M361.273,366.595h-14.111c-0.153,0-0.278-0.125-0.278-0.278l0,0
						c0-0.153,0.125-0.278,0.278-0.278h14.111c0.153,0,0.278,0.125,0.278,0.278l0,0C361.551,366.47,361.426,366.595,361.273,366.595
						z"/>
					<path style="fill:#444463;" d="M361.273,376.892h-14.111c-0.153,0-0.278-0.125-0.278-0.278l0,0
						c0-0.153,0.125-0.278,0.278-0.278h14.111c0.153,0,0.278,0.125,0.278,0.278l0,0
						C361.551,376.767,361.426,376.892,361.273,376.892z"/>
					<path style="fill:#444463;" d="M361.273,381.003h-14.111c-0.153,0-0.278-0.125-0.278-0.278l0,0
						c0-0.153,0.125-0.278,0.278-0.278h14.111c0.153,0,0.278,0.125,0.278,0.278l0,0
						C361.551,380.878,361.426,381.003,361.273,381.003z"/>
					<g>
						<path style="fill:#444463;" d="M347.162,378.947h7.056c0.153,0,0.278-0.125,0.278-0.278c0-0.153-0.125-0.278-0.278-0.278
							h-7.056c-0.153,0-0.278,0.125-0.278,0.278C346.884,378.822,347.009,378.947,347.162,378.947z"/>
						<path style="fill:#444463;" d="M354.217,382.503h-7.056c-0.153,0-0.278,0.125-0.278,0.278s0.125,0.278,0.278,0.278h7.056
							c0.153,0,0.278-0.125,0.278-0.278S354.37,382.503,354.217,382.503z"/>
					</g>
				</g>
			</g>
			<g>
				<g>
					<rect x="184.366" y="139.138" style="fill:#444463;" width="5.999" height="25.997"/>
					<rect x="247" y="139.138" style="fill:#444463;" width="5.999" height="25.997"/>
					<rect x="309.634" y="139.138" style="fill:#444463;" width="5.999" height="25.997"/>
				</g>
				<path style="fill:#55557C;" d="M317.037,166.077H182.963c-1.882,0-3.407-1.526-3.407-3.407l0,0c0-1.882,1.525-3.407,3.407-3.407
					h134.074c1.882,0,3.407,1.525,3.407,3.407l0,0C320.444,164.551,318.919,166.077,317.037,166.077z"/>
				<g>
					<path style="fill:#FFB133;" d="M323.49,147.28H176.51c-11.833,0-21.426-9.593-21.426-21.426l0,0
						c0-11.833,9.593-21.426,21.426-21.426H323.49c11.833,0,21.426,9.593,21.426,21.426l0,0
						C344.915,137.687,335.323,147.28,323.49,147.28z"/>
					<path style="fill:#FFB133;" d="M323.49,147.28H176.51c-11.833,0-21.426-9.593-21.426-21.426l0,0
						c0-11.833,9.593-21.426,21.426-21.426H323.49c11.833,0,21.426,9.593,21.426,21.426l0,0
						C344.915,137.687,335.323,147.28,323.49,147.28z"/>
					<path style="fill:#FFCF4A;" d="M323.49,104.429H176.51c-8.779,0-16.321,5.283-19.631,12.841
						c3.781-6.078,10.518-10.127,18.203-10.127h146.979c11.833,0,21.426,9.593,21.426,21.426l0,0c0,3.054-0.643,5.956-1.795,8.585
						c2.041-3.281,3.223-7.151,3.223-11.299l0,0C344.915,114.021,335.323,104.429,323.49,104.429z"/>
					<path style="fill:#EFE5D0;" d="M176.51,140.531c-8.093,0-14.676-6.584-14.676-14.676c0-8.093,6.584-14.677,14.676-14.677
						h146.98c8.093,0,14.676,6.584,14.676,14.677c0,8.093-6.583,14.676-14.676,14.676H176.51z"/>
					<path style="fill:#CCC2B2;" d="M214.536,116.284c31.171,0,78.2-1.186,118.008-1.957c-2.497-1.966-5.637-3.149-9.054-3.149
						H176.51c-8.093,0-14.676,6.584-14.676,14.677c0,2.218,0.509,4.314,1.393,6.201C162.352,115.188,174.47,116.284,214.536,116.284
						z"/>
				</g>
				<g>
					<path style="fill:#B2A89A;" d="M207.798,127.228c-0.498-0.493-1.068-0.898-1.708-1.215c-0.641-0.318-1.295-0.594-1.963-0.83
						s-1.322-0.449-1.963-0.641c-0.64-0.192-1.21-0.403-1.708-0.632c-0.499-0.23-0.901-0.504-1.208-0.822
						c-0.307-0.317-0.46-0.717-0.46-1.199c0-0.756,0.255-1.355,0.764-1.799c0.509-0.443,1.284-0.665,2.325-0.665
						c0.602,0,1.139,0.08,1.61,0.238c0.471,0.159,0.89,0.337,1.257,0.534c0.367,0.197,0.695,0.375,0.986,0.534
						c0.29,0.159,0.561,0.238,0.813,0.238c0.285,0,0.517-0.066,0.698-0.197c0.181-0.131,0.353-0.329,0.517-0.591l1.38-2.579
						c-0.427-0.395-0.911-0.748-1.454-1.06c-0.542-0.312-1.125-0.58-1.749-0.805c-0.624-0.225-1.284-0.395-1.979-0.509
						c-0.696-0.115-1.41-0.172-2.144-0.172c-1.314,0-2.481,0.2-3.499,0.599c-1.018,0.4-1.878,0.934-2.579,1.602
						c-0.701,0.668-1.232,1.429-1.594,2.283c-0.361,0.854-0.542,1.731-0.542,2.628c0,1.117,0.153,2.056,0.46,2.817
						c0.306,0.761,0.709,1.396,1.208,1.906c0.498,0.509,1.065,0.919,1.7,1.232c0.635,0.312,1.287,0.575,1.955,0.788
						c0.668,0.214,1.32,0.408,1.955,0.583c0.635,0.175,1.202,0.378,1.7,0.608c0.498,0.23,0.901,0.52,1.207,0.87
						c0.306,0.351,0.46,0.805,0.46,1.363c0,0.964-0.279,1.668-0.838,2.111c-0.559,0.443-1.342,0.665-2.349,0.665
						c-0.745,0-1.391-0.104-1.938-0.312c-0.548-0.208-1.032-0.438-1.454-0.69c-0.422-0.252-0.799-0.482-1.134-0.69
						c-0.334-0.208-0.665-0.312-0.994-0.312c-0.252,0-0.484,0.063-0.698,0.189c-0.213,0.126-0.386,0.282-0.517,0.468l-1.643,2.595
						c0.471,0.471,1.024,0.898,1.659,1.282c0.635,0.383,1.314,0.714,2.037,0.994c0.723,0.279,1.47,0.495,2.242,0.649
						c0.772,0.153,1.53,0.23,2.275,0.23c1.358,0,2.571-0.205,3.639-0.616c1.068-0.411,1.965-0.975,2.694-1.692
						c0.728-0.717,1.284-1.558,1.667-2.521c0.383-0.964,0.575-1.998,0.575-3.105c0-0.996-0.154-1.848-0.46-2.554
						C208.699,128.32,208.297,127.721,207.798,127.228z"/>
					<polygon style="fill:#B2A89A;" points="234.614,125.322 224.89,125.322 224.89,115.318 219.305,115.318 219.305,139.252 
						224.89,139.252 224.89,129.133 234.614,129.133 234.614,139.252 240.2,139.252 240.2,115.318 234.614,115.318 					"/>
					<path style="fill:#B2A89A;" d="M271.475,118.587c-1.084-1.095-2.39-1.957-3.918-2.587c-1.527-0.63-3.222-0.944-5.083-0.944
						c-1.862,0-3.559,0.312-5.093,0.936c-1.533,0.624-2.844,1.484-3.934,2.579c-1.089,1.095-1.933,2.387-2.53,3.876
						c-0.597,1.49-0.895,3.099-0.895,4.829c0,1.731,0.298,3.341,0.895,4.83c0.597,1.49,1.441,2.784,2.53,3.885
						c1.089,1.101,2.401,1.963,3.934,2.587c1.534,0.624,3.23,0.936,5.093,0.936c1.861,0,3.556-0.312,5.083-0.936
						c1.528-0.624,2.834-1.486,3.918-2.587c1.085-1.101,1.925-2.395,2.522-3.885c0.597-1.489,0.895-3.099,0.895-4.83
						c0-1.719-0.298-3.323-0.895-4.813C273.4,120.975,272.56,119.683,271.475,118.587z M268.749,130.488
						c-0.307,0.947-0.748,1.749-1.322,2.407c-0.575,0.657-1.279,1.158-2.111,1.503c-0.832,0.345-1.78,0.517-2.842,0.517
						c-1.073,0-2.029-0.172-2.867-0.517c-0.837-0.345-1.544-0.846-2.118-1.503c-0.575-0.657-1.016-1.459-1.323-2.407
						c-0.306-0.947-0.46-2.018-0.46-3.212c0-1.183,0.154-2.247,0.46-3.195c0.307-0.947,0.748-1.749,1.323-2.407
						c0.574-0.657,1.281-1.16,2.118-1.511c0.838-0.35,1.794-0.525,2.867-0.525c1.062,0,2.009,0.175,2.842,0.525
						c0.832,0.351,1.536,0.854,2.111,1.511c0.574,0.657,1.015,1.459,1.322,2.407c0.307,0.947,0.46,2.012,0.46,3.195
						C269.209,128.471,269.055,129.541,268.749,130.488z"/>
					<path style="fill:#B2A89A;" d="M302.242,120.049c-0.373-0.953-0.951-1.779-1.733-2.48c-0.783-0.701-1.78-1.251-2.989-1.651
						c-1.211-0.399-2.659-0.599-4.345-0.599h-8.443v23.933h5.552v-8h2.891c1.653,0,3.085-0.2,4.295-0.599
						c1.21-0.4,2.21-0.955,2.998-1.668c0.789-0.712,1.375-1.566,1.758-2.562c0.383-0.996,0.575-2.092,0.575-3.285
						C302.801,122.031,302.614,121.002,302.242,120.049z M296.296,126.029c-0.635,0.69-1.676,1.035-3.121,1.035h-2.891v-7.589h2.891
						c0.701,0,1.306,0.088,1.815,0.263c0.509,0.175,0.93,0.425,1.264,0.748c0.334,0.323,0.584,0.709,0.748,1.158
						c0.165,0.45,0.247,0.948,0.247,1.495C297.249,124.375,296.93,125.338,296.296,126.029z"/>
				</g>
				<g>
					<path style="fill:#444463;" d="M209.548,126.085c-0.498-0.493-1.068-0.898-1.708-1.215c-0.641-0.318-1.295-0.594-1.963-0.83
						c-0.668-0.235-1.322-0.449-1.963-0.641c-0.64-0.192-1.21-0.403-1.708-0.632c-0.498-0.23-0.901-0.504-1.207-0.822
						c-0.307-0.317-0.46-0.717-0.46-1.199c0-0.756,0.255-1.355,0.764-1.799c0.509-0.444,1.284-0.665,2.325-0.665
						c0.602,0,1.139,0.08,1.61,0.238c0.471,0.159,0.89,0.337,1.257,0.534c0.367,0.197,0.695,0.375,0.986,0.534
						c0.29,0.159,0.561,0.238,0.813,0.238c0.285,0,0.517-0.066,0.698-0.197c0.181-0.131,0.353-0.329,0.517-0.591l1.38-2.579
						c-0.427-0.395-0.911-0.748-1.454-1.06c-0.542-0.312-1.125-0.58-1.749-0.805c-0.624-0.225-1.284-0.395-1.979-0.509
						c-0.696-0.115-1.41-0.172-2.144-0.172c-1.314,0-2.48,0.2-3.499,0.599c-1.018,0.4-1.878,0.934-2.579,1.602
						c-0.701,0.668-1.232,1.429-1.594,2.283c-0.361,0.854-0.542,1.731-0.542,2.628c0,1.117,0.153,2.056,0.46,2.817
						c0.307,0.761,0.709,1.396,1.208,1.906c0.498,0.509,1.065,0.92,1.7,1.232c0.635,0.312,1.287,0.575,1.955,0.788
						c0.668,0.214,1.32,0.408,1.955,0.583c0.635,0.175,1.202,0.378,1.7,0.608c0.498,0.23,0.901,0.52,1.207,0.87
						c0.306,0.351,0.46,0.805,0.46,1.363c0,0.964-0.279,1.668-0.838,2.111c-0.559,0.443-1.342,0.665-2.349,0.665
						c-0.745,0-1.391-0.104-1.938-0.312c-0.548-0.208-1.033-0.438-1.454-0.69c-0.422-0.252-0.799-0.482-1.134-0.69
						c-0.334-0.208-0.665-0.312-0.994-0.312c-0.252,0-0.484,0.063-0.698,0.189c-0.213,0.126-0.386,0.282-0.517,0.468l-1.643,2.595
						c0.471,0.471,1.024,0.898,1.659,1.282c0.635,0.383,1.314,0.714,2.037,0.994c0.723,0.279,1.47,0.495,2.242,0.649
						c0.772,0.153,1.53,0.23,2.275,0.23c1.358,0,2.571-0.205,3.639-0.616c1.068-0.411,1.965-0.974,2.694-1.692
						c0.728-0.717,1.284-1.558,1.667-2.521c0.383-0.964,0.575-1.998,0.575-3.105c0-0.996-0.153-1.848-0.46-2.554
						C210.449,127.177,210.047,126.578,209.548,126.085z"/>
					<polygon style="fill:#444463;" points="236.364,124.179 226.64,124.179 226.64,114.176 221.055,114.176 221.055,138.109 
						226.64,138.109 226.64,127.99 236.364,127.99 236.364,138.109 241.949,138.109 241.949,114.176 236.364,114.176 					"/>
					<path style="fill:#444463;" d="M273.225,117.444c-1.084-1.095-2.39-1.957-3.918-2.587c-1.527-0.63-3.222-0.944-5.083-0.944
						c-1.862,0-3.559,0.312-5.093,0.936c-1.533,0.624-2.844,1.484-3.934,2.579c-1.089,1.095-1.933,2.387-2.53,3.876
						c-0.597,1.49-0.895,3.099-0.895,4.829c0,1.731,0.299,3.341,0.895,4.83c0.597,1.49,1.441,2.784,2.53,3.885
						c1.089,1.101,2.401,1.963,3.934,2.587c1.534,0.624,3.23,0.936,5.093,0.936c1.861,0,3.556-0.312,5.083-0.936
						c1.528-0.624,2.834-1.486,3.918-2.587c1.085-1.101,1.924-2.395,2.521-3.885c0.597-1.489,0.895-3.099,0.895-4.83
						c0-1.719-0.298-3.323-0.895-4.813C275.15,119.832,274.31,118.54,273.225,117.444z M270.498,129.346
						c-0.307,0.947-0.748,1.749-1.322,2.407c-0.575,0.657-1.279,1.158-2.111,1.503c-0.832,0.345-1.78,0.517-2.842,0.517
						c-1.073,0-2.029-0.172-2.867-0.517c-0.837-0.345-1.544-0.846-2.118-1.503c-0.575-0.657-1.016-1.459-1.323-2.407
						c-0.306-0.947-0.459-2.018-0.459-3.212c0-1.183,0.153-2.247,0.459-3.195c0.307-0.947,0.748-1.749,1.323-2.407
						c0.574-0.657,1.282-1.16,2.118-1.511c0.838-0.35,1.794-0.525,2.867-0.525c1.062,0,2.009,0.175,2.842,0.525
						c0.832,0.351,1.536,0.854,2.111,1.511c0.574,0.657,1.015,1.459,1.322,2.407c0.307,0.947,0.46,2.012,0.46,3.195
						C270.959,127.328,270.805,128.398,270.498,129.346z"/>
					<path style="fill:#444463;" d="M303.992,118.907c-0.373-0.953-0.951-1.78-1.733-2.48c-0.783-0.701-1.78-1.251-2.99-1.651
						c-1.211-0.399-2.659-0.599-4.345-0.599h-8.443v23.933h5.552v-8h2.891c1.653,0,3.085-0.2,4.295-0.599
						c1.21-0.4,2.21-0.955,2.998-1.668c0.789-0.712,1.375-1.566,1.758-2.562c0.383-0.996,0.575-2.092,0.575-3.285
						C304.551,120.889,304.364,119.859,303.992,118.907z M298.045,124.886c-0.635,0.69-1.676,1.035-3.121,1.035h-2.891v-7.589h2.891
						c0.701,0,1.306,0.088,1.815,0.263s0.93,0.425,1.264,0.748c0.334,0.323,0.584,0.709,0.748,1.158
						c0.165,0.45,0.247,0.948,0.247,1.495C298.998,123.233,298.68,124.196,298.045,124.886z"/>
				</g>
			</g>
			<g>
				<polygon style="fill:#55557C;" points="398.551,290.595 398.551,285.262 390.254,285.262 390.254,276.003 388.032,276.003 
					388.032,345.781 390.254,345.781 390.254,335.707 398.551,335.707 398.551,330.373 390.254,330.373 390.254,290.595 				"/>
				<g>
					<g>
						<path style="fill:#FF7E71;" d="M419.143,346.077h-18.074c-3.109,0-5.63-2.521-5.63-5.63v-59.259c0-3.109,2.52-5.63,5.63-5.63
							h18.074c3.109,0,5.63,2.52,5.63,5.63v59.259C424.773,343.556,422.253,346.077,419.143,346.077z"/>
						<path style="fill:#FFAD91;" d="M395.44,310.369v14.464c12.117-7.075,22.104-19.707,29.333-31.226v-12.419
							c0-2.51-1.643-4.634-3.912-5.361C415.687,286.85,407.079,301.778,395.44,310.369z"/>
						<path style="fill:#F4586B;" d="M401.069,346.077h18.074c3.109,0,5.63-2.521,5.63-5.63v-38.589
							c-8.467,17.736-18.812,32.695-29.333,31.623v6.966C395.44,343.556,397.96,346.077,401.069,346.077z"/>
					</g>
					<g>
						
							<text transform="matrix(1 0 0 1 410.0331 283.3365)" style="fill:#444463; font-family:'Lato-Black'; font-size:14px;glyph-orientation-vertical:0;writing-mode:tb;">open</text>
					</g>
				</g>
			</g>
		</g>
	</g>
</g>
</svg>
