<?xml version="1.0" encoding="utf-8"?>
<!-- Generator: Adobe Illustrator 27.5.0, SVG Export Plug-In . SVG Version: 6.00 Build 0)  -->
<svg version="1.1" xmlns="http://www.w3.org/2000/svg" xmlns:xlink="http://www.w3.org/1999/xlink" x="0px" y="0px"
	 viewBox="0 0 750 500" style="enable-background:new 0 0 750 500;" xml:space="preserve">
<g id="Background_Complete">
	<g>
		<g>
			<g>
				<rect x="33.592" y="128.556" style="fill:#F5F5F5;" width="31.365" height="31.365"/>
				<rect x="33.592" y="163.676" style="fill:#F5F5F5;" width="31.365" height="31.365"/>
			</g>
			<g>
				<rect x="68.765" y="128.495" style="fill:#F5F5F5;" width="31.365" height="31.365"/>
				<rect x="68.765" y="163.615" style="fill:#F5F5F5;" width="31.365" height="31.365"/>
			</g>
			<g>
				<rect x="103.844" y="128.495" style="fill:#F5F5F5;" width="31.365" height="31.365"/>
				<rect x="103.844" y="163.615" style="fill:#F5F5F5;" width="31.365" height="31.365"/>
			</g>
			<g>
				<rect x="139.017" y="128.495" style="fill:#F5F5F5;" width="31.365" height="31.365"/>
				<rect x="139.017" y="163.615" style="fill:#F5F5F5;" width="31.365" height="31.365"/>
			</g>
			<g>
				<rect x="174.097" y="128.495" style="fill:#F5F5F5;" width="31.365" height="31.365"/>
				<rect x="174.097" y="163.615" style="fill:#F5F5F5;" width="31.365" height="31.365"/>
			</g>
			<g>
				<rect x="209.269" y="128.495" style="fill:#F5F5F5;" width="31.365" height="31.365"/>
				<rect x="209.269" y="163.615" style="fill:#F5F5F5;" width="31.365" height="31.365"/>
			</g>
			<g>
				<rect x="244.349" y="128.495" style="fill:#F5F5F5;" width="31.365" height="31.365"/>
				<rect x="244.349" y="163.615" style="fill:#F5F5F5;" width="31.365" height="31.365"/>
			</g>
			<g>
				<rect x="279.522" y="128.495" style="fill:#F5F5F5;" width="31.365" height="31.365"/>
				<rect x="279.522" y="163.615" style="fill:#F5F5F5;" width="31.365" height="31.365"/>
			</g>
			<g>
				<rect x="314.602" y="128.495" style="fill:#F5F5F5;" width="31.365" height="31.365"/>
				<rect x="314.602" y="163.615" style="fill:#F5F5F5;" width="31.365" height="31.365"/>
			</g>
			<g>
				<rect x="349.774" y="128.495" style="fill:#F5F5F5;" width="31.365" height="31.365"/>
				<rect x="349.774" y="163.615" style="fill:#F5F5F5;" width="31.365" height="31.365"/>
			</g>
			<g>
				<rect x="384.854" y="128.495" style="fill:#F5F5F5;" width="31.365" height="31.365"/>
				<rect x="384.854" y="163.615" style="fill:#F5F5F5;" width="31.365" height="31.365"/>
			</g>
			<g>
				<rect x="420.027" y="128.495" style="fill:#F5F5F5;" width="31.365" height="31.365"/>
				<rect x="420.027" y="163.615" style="fill:#F5F5F5;" width="31.365" height="31.365"/>
			</g>
			<g>
				<rect x="455.107" y="128.495" style="fill:#F5F5F5;" width="31.365" height="31.365"/>
				<rect x="455.107" y="163.615" style="fill:#F5F5F5;" width="31.365" height="31.365"/>
			</g>
			<g>
				<rect x="490.279" y="128.495" style="fill:#F5F5F5;" width="31.365" height="31.365"/>
				<rect x="490.279" y="163.615" style="fill:#F5F5F5;" width="31.365" height="31.365"/>
			</g>
			<g>
				<rect x="525.359" y="128.495" style="fill:#F5F5F5;" width="31.365" height="31.365"/>
				<rect x="525.359" y="163.615" style="fill:#F5F5F5;" width="31.365" height="31.365"/>
			</g>
			<g>
				<rect x="560.532" y="128.495" style="fill:#F5F5F5;" width="31.365" height="31.365"/>
				<rect x="560.532" y="163.615" style="fill:#F5F5F5;" width="31.365" height="31.365"/>
			</g>
			<g>
				<rect x="595.612" y="128.495" style="fill:#F5F5F5;" width="31.365" height="31.365"/>
				<rect x="595.612" y="163.615" style="fill:#F5F5F5;" width="31.365" height="31.365"/>
			</g>
			<g>
				<rect x="630.784" y="128.495" style="fill:#F5F5F5;" width="31.365" height="31.365"/>
				<rect x="630.784" y="163.615" style="fill:#F5F5F5;" width="31.365" height="31.365"/>
			</g>
			<g>
				<rect x="666.555" y="128.495" style="fill:#F5F5F5;" width="31.365" height="31.365"/>
				<rect x="666.555" y="163.615" style="fill:#F5F5F5;" width="31.365" height="31.365"/>
			</g>
		</g>
		<g>
			<g>
				<rect x="33.592" y="59.369" style="fill:#F5F5F5;" width="31.365" height="31.365"/>
				<rect x="33.592" y="94.488" style="fill:#F5F5F5;" width="31.365" height="31.365"/>
			</g>
			<g>
				<rect x="68.765" y="59.308" style="fill:#F5F5F5;" width="31.365" height="31.365"/>
				<rect x="68.765" y="94.427" style="fill:#F5F5F5;" width="31.365" height="31.365"/>
			</g>
			<g>
				<rect x="103.844" y="59.308" style="fill:#F5F5F5;" width="31.365" height="31.365"/>
				<rect x="103.844" y="94.427" style="fill:#F5F5F5;" width="31.365" height="31.365"/>
			</g>
			<g>
				<rect x="139.017" y="59.308" style="fill:#F5F5F5;" width="31.365" height="31.365"/>
				<rect x="139.017" y="94.427" style="fill:#F5F5F5;" width="31.365" height="31.365"/>
			</g>
			<g>
				<rect x="174.097" y="59.308" style="fill:#F5F5F5;" width="31.365" height="31.365"/>
				<rect x="174.097" y="94.427" style="fill:#F5F5F5;" width="31.365" height="31.365"/>
			</g>
			<g>
				<rect x="209.269" y="59.308" style="fill:#F5F5F5;" width="31.365" height="31.365"/>
				<rect x="209.269" y="94.427" style="fill:#F5F5F5;" width="31.365" height="31.365"/>
			</g>
			<g>
				<rect x="244.349" y="59.308" style="fill:#F5F5F5;" width="31.365" height="31.365"/>
				<rect x="244.349" y="94.427" style="fill:#F5F5F5;" width="31.365" height="31.365"/>
			</g>
			<g>
				<rect x="279.522" y="59.308" style="fill:#F5F5F5;" width="31.365" height="31.365"/>
				<rect x="279.522" y="94.427" style="fill:#F5F5F5;" width="31.365" height="31.365"/>
			</g>
			<g>
				<rect x="314.602" y="59.308" style="fill:#F5F5F5;" width="31.365" height="31.365"/>
				<rect x="314.602" y="94.427" style="fill:#F5F5F5;" width="31.365" height="31.365"/>
			</g>
			<g>
				<rect x="349.774" y="59.308" style="fill:#F5F5F5;" width="31.365" height="31.365"/>
				<rect x="349.774" y="94.427" style="fill:#F5F5F5;" width="31.365" height="31.365"/>
			</g>
			<g>
				<rect x="384.854" y="59.308" style="fill:#F5F5F5;" width="31.365" height="31.365"/>
				<rect x="384.854" y="94.427" style="fill:#F5F5F5;" width="31.365" height="31.365"/>
			</g>
			<g>
				<rect x="420.027" y="59.308" style="fill:#F5F5F5;" width="31.365" height="31.365"/>
				<rect x="420.027" y="94.427" style="fill:#F5F5F5;" width="31.365" height="31.365"/>
			</g>
			<g>
				<rect x="455.107" y="59.308" style="fill:#F5F5F5;" width="31.365" height="31.365"/>
				<rect x="455.107" y="94.427" style="fill:#F5F5F5;" width="31.365" height="31.365"/>
			</g>
			<g>
				<rect x="490.279" y="59.308" style="fill:#F5F5F5;" width="31.365" height="31.365"/>
				<rect x="490.279" y="94.427" style="fill:#F5F5F5;" width="31.365" height="31.365"/>
			</g>
			<g>
				<rect x="525.359" y="59.308" style="fill:#F5F5F5;" width="31.365" height="31.365"/>
				<rect x="525.359" y="94.427" style="fill:#F5F5F5;" width="31.365" height="31.365"/>
			</g>
			<g>
				<rect x="560.532" y="59.308" style="fill:#F5F5F5;" width="31.365" height="31.365"/>
				<rect x="560.532" y="94.427" style="fill:#F5F5F5;" width="31.365" height="31.365"/>
			</g>
			<g>
				<rect x="595.612" y="59.308" style="fill:#F5F5F5;" width="31.365" height="31.365"/>
				<rect x="595.612" y="94.427" style="fill:#F5F5F5;" width="31.365" height="31.365"/>
			</g>
			<g>
				<rect x="630.784" y="59.308" style="fill:#F5F5F5;" width="31.365" height="31.365"/>
				<rect x="630.784" y="94.427" style="fill:#F5F5F5;" width="31.365" height="31.365"/>
			</g>
			<g>
				<rect x="666.555" y="59.308" style="fill:#F5F5F5;" width="31.365" height="31.365"/>
				<rect x="666.555" y="94.427" style="fill:#F5F5F5;" width="31.365" height="31.365"/>
			</g>
		</g>
	</g>
	<g>
		<path style="fill:#E0E0E0;" d="M510.537,218.574c-6.403-0.354-13.652,4.816-18.589,0.724c-3.793-3.145-2.772-9.467-5.788-13.362
			c-2.916-3.766-8.593-3.986-13.175-2.684c-4.582,1.301-8.866,3.767-13.605,4.243c-4.739,0.476-10.369-2.045-10.981-6.768
			c-0.485-3.741,2.326-7.49,1.293-11.118c-1.339-4.703-7.658-5.439-12.515-4.869c-13.888,1.63-27.409,6.308-39.335,13.607
			c-3.301,2.02-6.536,4.265-10.229,5.422c-3.693,1.157-8.04,1.047-11.067-1.364c-1.643-1.309-2.773-3.185-4.453-4.446
			c-3.78-2.839-9.257-1.807-13.385,0.494c-4.128,2.302-7.608,5.697-11.897,7.682c-4.29,1.985-10.052,2.127-13.101-1.486
			c-1.11-1.315-1.755-3.009-3.037-4.156c-3.055-2.735-7.873-1.126-11.473,0.838c-12.601,6.877-23.48,16.515-35.728,24.004
			c-7.326,4.48-15.479,8.204-23.853,9.833l259.408-0.576C522.761,228.371,517.781,218.975,510.537,218.574z"/>
	</g>
	<path style="fill:#E0E0E0;" d="M474.641,179.12c0,3.34-2.708,6.048-6.048,6.048c-3.34,0-6.048-2.708-6.048-6.048
		c0-3.34,2.708-6.048,6.048-6.048C471.933,173.072,474.641,175.78,474.641,179.12z"/>
	<g>
		<path style="fill:#E0E0E0;" d="M605.477,361.772c0,0-0.296,0.096-0.879,0.257c-0.58,0.169-1.455,0.381-2.581,0.719
			c-2.206,0.814-5.449,2.12-9.185,4.601c-3.757,2.44-7.945,5.988-12.759,10.149c-2.424,2.062-4.999,4.298-7.918,6.437
			c-2.916,2.126-6.121,4.274-9.837,5.848c-1.873,0.73-3.809,1.466-5.873,1.911c-2.054,0.48-4.197,0.748-6.384,0.912
			c-4.38,0.332-8.942,0.143-13.646,0.084c-2.353-0.026-4.745-0.017-7.166,0.134c-2.421,0.147-4.864,0.491-7.333,0.895
			c-4.932,0.874-9.936,2.154-15.114,3.298c-2.596,0.54-5.225,1.108-7.927,1.454c-1.342,0.225-2.715,0.297-4.084,0.44
			c-1.378,0.035-2.763,0.156-4.158,0.066c-5.57-0.085-11.293-1.699-16.16-4.875c-4.919-3.099-9.183-7.198-13.763-10.968
			c-2.29-1.887-4.686-3.686-7.285-5.181c-1.303-0.738-2.647-1.413-4.048-1.963c-0.682-0.324-1.425-0.485-2.138-0.73l-1.081-0.339
			c-0.367-0.092-0.74-0.16-1.11-0.242c-2.954-0.697-5.99-0.904-8.993-0.913c-3.007-0.025-5.997,0.167-8.965,0.378
			c-5.924,0.401-11.842,0.93-17.604,0.071l-1.077-0.147l-1.06-0.235c-0.702-0.171-1.419-0.28-2.104-0.503l-2.051-0.668
			c-0.684-0.217-1.327-0.54-1.989-0.805c-2.596-1.195-4.968-2.762-7.148-4.497c-4.366-3.488-7.961-7.615-11.465-11.579
			c-3.498-3.972-6.899-7.874-10.72-11.102c-1.907-1.61-3.92-3.043-6.055-4.176c-2.135-1.129-4.39-1.945-6.681-2.391
			c-4.609-0.92-9.175-0.177-13.514,0.235c-2.178,0.218-4.334,0.351-6.445,0.243c-2.112-0.091-4.158-0.51-6.078-1.121
			c-3.855-1.23-7.159-3.298-10.027-5.491c-2.878-2.2-5.363-4.543-7.667-6.739c-4.572-4.428-8.485-8.276-12.073-10.958
			c-3.565-2.709-6.712-4.259-8.913-5.083c-1.111-0.39-1.965-0.669-2.554-0.806c-0.584-0.156-0.88-0.249-0.88-0.249
			s0.304,0.058,0.893,0.197c0.595,0.12,1.456,0.383,2.577,0.759c2.221,0.795,5.4,2.324,8.999,5.02
			c3.621,2.667,7.566,6.505,12.152,10.91c2.311,2.183,4.798,4.51,7.666,6.686c2.858,2.169,6.136,4.203,9.938,5.403
			c1.894,0.596,3.906,1.003,5.986,1.087c2.08,0.101,4.215-0.036,6.385-0.258c4.32-0.419,8.927-1.187,13.636-0.259
			c2.335,0.45,4.635,1.278,6.806,2.421c2.171,1.148,4.212,2.597,6.141,4.22c3.863,3.254,7.282,7.169,10.785,11.135
			c3.507,3.958,7.093,8.062,11.414,11.507c2.157,1.714,4.497,3.255,7.048,4.427c0.651,0.258,1.282,0.576,1.954,0.788l2.015,0.655
			c0.673,0.219,1.38,0.325,2.071,0.493l1.044,0.231l1.063,0.144c5.682,0.846,11.565,0.322,17.494-0.083
			c2.97-0.212,5.973-0.406,9.005-0.382c3.027,0.009,6.1,0.216,9.104,0.924c0.376,0.083,0.755,0.153,1.128,0.246l1.101,0.345
			c0.727,0.249,1.482,0.415,2.177,0.744c1.428,0.56,2.794,1.247,4.116,1.996c2.637,1.516,5.054,3.335,7.355,5.231
			c4.599,3.791,8.848,7.874,13.706,10.936c4.805,3.136,10.399,4.717,15.904,4.81c1.376,0.092,2.747-0.028,4.11-0.061
			c1.358-0.141,2.716-0.21,4.051-0.432c2.682-0.34,5.302-0.902,7.891-1.438c5.167-1.135,10.181-2.41,15.138-3.28
			c2.483-0.402,4.944-0.744,7.384-0.888c2.439-0.148,4.842-0.152,7.199-0.121c4.713,0.069,9.261,0.267,13.611-0.053
			c2.172-0.158,4.296-0.418,6.329-0.887c2.042-0.434,3.957-1.157,5.813-1.873c3.683-1.547,6.874-3.67,9.785-5.777
			c2.914-2.118,5.494-4.341,7.926-6.391c4.831-4.139,9.05-7.674,12.837-10.097c3.767-2.464,7.04-3.747,9.263-4.531
			c1.135-0.324,2.017-0.52,2.602-0.672C605.174,361.833,605.477,361.772,605.477,361.772z"/>
	</g>
	<g>
		<path style="fill:#E0E0E0;" d="M676.31,264.73c0.009,0.003-0.022,0.103-0.09,0.3c-0.056,0.202-0.197,0.48-0.421,0.821
			c-0.457,0.67-1.48,1.473-3.021,1.748c-1.51,0.282-3.526,0.139-5.461-0.944c-1.956-0.998-3.839-2.679-6.279-3.836
			c-1.218-0.57-2.612-0.895-4.074-0.893c-1.464,0.012-2.975,0.37-4.439,0.969c-2.955,1.207-5.626,3.409-8.086,6.044
			c-1.275,1.267-2.699,2.607-4.586,3.236c-0.938,0.304-1.961,0.37-2.943,0.232c-0.987-0.126-1.937-0.412-2.879-0.694
			c-1.868-0.616-3.8-1.003-5.806-0.898c-1.994,0.115-3.991,0.61-5.899,1.39c-3.83,1.579-7.113,4.039-10.064,6.61
			c-2.97,2.563-5.76,5.167-8.746,7.253c-1.487,1.046-3.025,1.953-4.601,2.666c-1.575,0.72-3.192,1.2-4.769,1.567
			c-3.18,0.659-6.227,0.68-8.958,0.438c-2.737-0.246-5.174-0.746-7.288-1.256c-2.114-0.517-3.914-1.038-5.372-1.498
			c-1.461-0.453-2.587-0.831-3.348-1.094c-0.357-0.126-0.642-0.227-0.864-0.305c-0.194-0.072-0.291-0.112-0.289-0.121
			c0.003-0.009,0.106,0.015,0.305,0.07c0.225,0.066,0.515,0.15,0.879,0.256c0.805,0.238,1.935,0.573,3.374,1
			c1.466,0.429,3.269,0.921,5.381,1.409c2.111,0.481,4.54,0.952,7.253,1.172c2.708,0.217,5.715,0.172,8.835-0.493
			c1.548-0.37,3.131-0.848,4.671-1.562c1.542-0.707,3.05-1.604,4.516-2.642c2.942-2.07,5.71-4.667,8.688-7.247
			c2.961-2.588,6.289-5.093,10.201-6.706c1.95-0.797,4.006-1.308,6.07-1.425c2.065-0.112,4.12,0.308,5.979,0.927
			c1.853,0.579,3.77,1.077,5.521,0.476c1.744-0.572,3.133-1.846,4.4-3.102c2.467-2.624,5.225-4.888,8.261-6.104
			c1.51-0.607,3.076-0.969,4.6-0.971c1.522,0.007,2.98,0.361,4.231,0.961c2.503,1.218,4.353,2.912,6.262,3.914
			c1.867,1.077,3.813,1.243,5.288,1.001c1.501-0.238,2.501-0.981,2.973-1.611C676.186,265.147,676.269,264.712,676.31,264.73z"/>
	</g>
	<path style="fill:#EBEBEB;" d="M698.031,259.636c0,2.824-2.289,5.113-5.113,5.113c-2.824,0-5.113-2.289-5.113-5.113
		c0-2.824,2.289-5.113,5.113-5.113C695.741,254.524,698.031,256.813,698.031,259.636z"/>
	<path style="fill:#EBEBEB;" d="M254.839,322.901c0,2.824-2.289,5.113-5.113,5.113c-2.824,0-5.113-2.289-5.113-5.113
		s2.289-5.113,5.113-5.113C252.55,317.789,254.839,320.078,254.839,322.901z"/>
	<circle style="fill:#EBEBEB;" cx="279.806" cy="344.745" r="7.119"/>
	<path style="fill:#EBEBEB;" d="M690.362,276.472c0,1.412-1.145,2.556-2.556,2.556c-1.412,0-2.556-1.145-2.556-2.556
		c0-1.412,1.145-2.556,2.556-2.556C689.217,273.916,690.362,275.06,690.362,276.472z"/>
	<path style="fill:#EBEBEB;" d="M273.71,316.34c0,1.412-1.145,2.556-2.556,2.556c-1.412,0-2.556-1.145-2.556-2.556
		s1.145-2.556,2.556-2.556C272.565,313.784,273.71,314.928,273.71,316.34z"/>
	<path style="fill:#F5F5F5;" d="M66.828,324.2c7.486-16.277,24.816-28.85,40.784-32.121c15.967-3.271,33.108-0.432,47.169,7.811
		c28.324,16.607,43.042,53.002,74.222,63.29c16.44,5.425,34.408,2.352,51.548,4.785c12.223,1.735,24.349,6.543,32.934,15.415
		c8.585,8.873,13.054,22.2,9.488,34.019c-2.579,8.549-8.264,18.391-15.803,23.177c-7.539,4.785-17.156,10.329-25.796,12.584
		c-57.16,14.917-119.8,10.926-170.315-19.7c-14.757-8.947-30.78-30.557-40.127-46.506C63.005,373.432,55.794,351.078,66.828,324.2"
		/>
	<path style="fill:#F5F5F5;" d="M717.745,350.171c-5.503-11.153-16.614-19.293-26.312-20.939c-9.698-1.646-19.698,1.058-27.517,7.44
		c-15.751,12.858-22.136,39.09-39.993,47.617c-9.415,4.496-20.289,3.071-30.314,5.49c-7.149,1.725-14.042,5.609-18.567,12.209
		c-4.525,6.6-6.317,16.168-3.432,24.344c2.087,5.913,6.102,12.61,10.891,15.669c4.789,3.059,10.862,6.567,16.141,7.799
		c34.926,8.152,71.882,2.765,99.908-20.878c8.187-6.906,16.305-22.782,20.825-34.396
		C723.208,384.679,726.043,368.642,717.745,350.171"/>
	
		<ellipse transform="matrix(0.6538 -0.7567 0.7567 0.6538 -170.5925 471.5864)" style="fill:#F5F5F5;" cx="430.039" cy="422.211" rx="31.151" ry="31.151"/>
	<path style="fill:#F5F5F5;" d="M616.748,246.902c-2.624-3.62-7.796-4.423-12.182-3.555c-4.386,0.868-8.401,3.046-12.703,4.264
		c-4.302,1.219-10.663,0.547-14.078-2.339c-7.055-4.296-10.761-3.942-14.15-3.074c-3.47,0.888-6.403,3.924-7.951,7.155
		c-2.175,4.54,0.382,11.449,3.346,15.519c6.588,9.045,17.325,13.072,28.508,12.664c11.183-0.407,21.99-6.67,27.903-16.171
		C618.158,256.999,619.766,251.066,616.748,246.902z"/>
</g>
<g id="Background_Simple" style="display:none;">
	<path style="display:inline;fill:#F5F5F5;" d="M534.228,122.742l-1.992-3.912c-16.789-32.977-49.982-54.579-86.648-54.996
		c-4.713-0.054-9.432,0.233-14.114,0.875c-33.711,4.625-64.454,27.561-78.821,58.802c-8.449,18.373-12.04,39.986-26.516,53.99
		c-18.839,18.225-48.395,16.635-74.28,13.889c-25.885-2.746-55.466-4.261-74.226,14.048c-11.749,11.466-16.496,28.665-16.849,45.17
		c-0.937,43.696,26.485,84.876,63.61,107.099c37.125,22.223,82.406,27.346,125.253,21.988
		c60.023-7.505,118.702-36.042,156.279-84.08C543.501,247.578,557.199,179.333,534.228,122.742z"/>
	<circle style="display:inline;fill:#F5F5F5;" cx="137.085" cy="358.418" r="23.675"/>
	
		<ellipse transform="matrix(0.159 -0.9873 0.9873 0.159 334.7846 706.3342)" style="display:inline;fill:#F5F5F5;" cx="581.991" cy="156.658" rx="23.675" ry="23.675"/>
</g>
<g id="Character">
	<g>
		<g>
			<g>
				<path style="fill:#FFBF9D;" d="M623.709,306.049c9.96-5.75,6.853-9.897,8.688-15.819c0.874-2.823,2.096-5.374,4.562-6.897
					c1.846-1.14,5.118-0.853,7.129-0.066c2.012,0.788,4.177,1.67,6.023,2.81c7.484,4.624,15.09,5.899,23.614,3.986
					c6.273-1.407,12.295-4.621,18.708-4.306c1.444,0.071,2.952,0.356,4.075,1.296c1.123,0.94,1.706,2.694,0.977,3.983
					c-0.879,1.554-2.956,1.65-4.667,2.005c-3.109,0.644-5.202,3.583-8.238,5.647c-2.648,1.8-9.382,5.781-12.164,7.351
					c-11.21,6.324-26.227,13.601-36.642,19.057"/>
				<g>
					<path style="fill:#FF9A6C;" d="M623.772,306.157c3.567-2.09,6.912-4.722,7.692-8.992c0.284-1.553,0.308-3.14,0.553-4.699
						c0.359-2.284,1.152-4.65,2.466-6.563c1.902-2.77,4.73-3.634,7.957-2.98c2.966,0.601,5.789,2.205,8.37,3.721
						c4.852,2.85,10.316,4.479,15.962,4.397c6.167-0.089,11.706-2.392,17.554-4.027c3.054-0.854,6.485-1.595,9.653-0.953
						c1.658,0.336,3.239,1.297,3.632,3.052c0.485,2.164-1.398,3.131-3.163,3.498c-1.042,0.217-2.079,0.33-3.063,0.77
						c-1.148,0.514-2.146,1.305-3.1,2.113c-1.959,1.658-3.889,3.207-6.066,4.568c-3.902,2.44-7.874,4.78-11.903,7.005
						c-11.373,6.283-23.096,11.898-34.606,17.921c-0.143,0.075-0.016,0.29,0.126,0.216c10.92-5.714,22.029-11.067,32.855-16.961
						c4.303-2.343,8.539-4.809,12.71-7.38c2.057-1.268,4.03-2.561,5.859-4.149c1.055-0.916,2.092-1.881,3.293-2.609
						c1.375-0.834,2.776-0.969,4.295-1.325c1.839-0.431,3.464-1.627,3.004-3.734c-0.545-2.498-3.17-3.295-5.419-3.415
						c-6.373-0.339-12.253,2.775-18.313,4.212c-6.489,1.538-13.205,1.186-19.357-1.468c-4.97-2.144-10.005-6.667-15.792-5.838
						c-5.06,0.725-6.948,7.067-7.386,11.401c-0.201,1.982-0.308,3.988-1.204,5.807c-1.379,2.801-4.12,4.663-6.735,6.195
						C623.507,306.022,623.633,306.238,623.772,306.157L623.772,306.157z"/>
				</g>
			</g>
			<g>
				<path style="fill:#FFBF9D;" d="M625.555,304.901c-40.325,17.432-64.279,7.23-82.743,27.845l-84.5-23.52l-20.166,30.36
					l12.898,18.498l85.924,14.101c0,0,12.001,1.202,19.464-4.736c7.463-5.937,91.454-48.555,91.454-48.555"/>
				<g>
					<path style="fill:#FF9A6C;" d="M647.887,318.895c0,0-0.317,0.181-0.949,0.511c-0.642,0.333-1.58,0.82-2.808,1.457
						c-2.483,1.28-6.129,3.16-10.828,5.584c-9.409,4.861-23.058,11.879-39.896,20.737c-8.412,4.441-17.651,9.294-27.439,14.768
						c-2.45,1.363-4.92,2.791-7.381,4.308c-1.193,0.791-2.382,1.626-3.616,2.485c-1.282,0.757-2.62,1.458-4.054,1.939
						c-2.838,1.044-5.887,1.553-8.974,1.754c-1.547,0.094-3.107,0.106-4.68,0.004c-1.574-0.203-3.102-0.492-4.67-0.736
						c-24.982-4.092-52.532-8.605-81.589-13.365l-0.108-0.018l-0.063-0.09c-2.196-3.149-4.553-6.53-6.926-9.931
						c-2.003-2.873-3.995-5.73-5.973-8.567l-0.101-0.145l0.098-0.147c6.902-10.387,13.648-20.539,20.171-30.356l0.102-0.154
						l0.178,0.05c31.431,8.767,60.173,16.784,84.487,23.565l-0.21,0.061c2.265-2.529,4.771-4.747,7.457-6.563
						c2.682-1.822,5.528-3.241,8.394-4.342c5.752-2.192,11.495-3.233,16.835-4.133c5.353-0.883,10.359-1.603,14.947-2.434
						c4.59-0.817,8.768-1.706,12.499-2.641c7.471-1.85,13.14-3.872,16.959-5.305c1.915-0.709,3.354-1.312,4.327-1.707
						c0.973-0.394,1.48-0.583,1.48-0.583s-0.49,0.227-1.456,0.64c-0.965,0.414-2.398,1.036-4.307,1.764
						c-3.808,1.47-9.472,3.531-16.946,5.418c-3.732,0.953-7.913,1.86-12.506,2.694c-4.591,0.848-9.598,1.585-14.943,2.481
						c-5.332,0.914-11.053,1.967-16.754,4.155c-2.842,1.099-5.656,2.51-8.307,4.319c-2.654,1.801-5.13,4.001-7.371,6.512
						l-0.086,0.096l-0.124-0.034c-24.321-6.755-53.072-14.741-84.512-23.474l0.28-0.104c-6.52,9.819-13.263,19.973-20.162,30.362
						l-0.003-0.292c1.978,2.836,3.97,5.694,5.973,8.566c2.372,3.402,4.729,6.783,6.925,9.932l-0.171-0.108
						c29.049,4.776,56.592,9.304,81.567,13.41c1.556,0.245,3.122,0.54,4.642,0.739c1.543,0.102,3.091,0.093,4.618,0.001
						c3.051-0.195,6.062-0.694,8.849-1.716c1.409-0.47,2.718-1.156,3.971-1.892c1.184-0.822,2.391-1.667,3.616-2.478
						c2.479-1.523,4.954-2.949,7.409-4.309c9.806-5.462,19.054-10.296,27.479-14.718c16.862-8.818,30.537-15.788,39.974-20.595
						c4.719-2.387,8.38-4.239,10.872-5.499c1.238-0.618,2.184-1.09,2.831-1.412C647.554,319.045,647.887,318.895,647.887,318.895z"
						/>
				</g>
			</g>
			<g>
				<path style="fill:#FFBF9D;" d="M657.682,333.662c0,0-35.681-19.317-49.827-23.961c-9.316-3.058-32.62-4.195-42.44-7.618
					c-9.819-3.423-94.218-39.44-94.218-39.44l-25.12,4.979l-1.973,25.108l4.913,12.677l8.399,12.778c0,0,66.229,16.267,82.6,18.797
					c16.371,2.53,52.032,6.2,65.792,9.499c16.086,3.856,42.626,7.862,42.626,7.862"/>
				<g>
					<path style="fill:#FF9A6C;" d="M648.434,354.343c0,0-0.325-0.033-0.957-0.123c-0.642-0.095-1.58-0.234-2.81-0.417
						c-2.472-0.377-6.123-0.949-10.84-1.74c-4.716-0.792-10.499-1.797-17.218-3.116c-3.357-0.669-6.952-1.403-10.748-2.301
						c-3.787-0.893-7.861-1.57-12.149-2.249c-8.582-1.342-18.064-2.546-28.297-3.839c-5.117-0.652-10.422-1.328-15.902-2.026
						c-5.473-0.723-11.138-1.48-16.882-2.687c-11.495-2.334-23.555-5.109-36.132-8.041c-12.575-2.941-25.658-6.075-39.146-9.371
						l-0.098-0.024l-0.055-0.084c-2.649-4.028-5.51-8.38-8.401-12.777l-0.015-0.023l-0.01-0.026
						c-1.553-4.006-3.227-8.324-4.914-12.676l-0.021-0.055l0.005-0.059c0.347-4.422,0.72-9.163,1.095-13.937
						c0.295-3.748,0.588-7.476,0.878-11.171l0.015-0.197l0.193-0.038c8.572-1.698,16.981-3.364,25.12-4.977l0.078-0.016l0.073,0.031
						c26.172,11.156,50.809,21.62,73.089,30.922c5.572,2.32,10.995,4.574,16.278,6.689c2.643,1.061,5.234,2.114,7.902,2.757
						c2.662,0.669,5.327,1.154,7.951,1.575c5.249,0.852,10.341,1.474,15.217,2.151c4.875,0.677,9.553,1.341,13.934,2.409
						c2.189,0.56,4.252,1.329,6.235,2.118c1.99,0.778,3.89,1.617,5.742,2.419c3.68,1.656,7.122,3.261,10.306,4.82
						c6.378,3.099,11.791,5.876,16.193,8.162c4.401,2.289,7.786,4.094,10.072,5.327c1.134,0.618,1.999,1.089,2.591,1.411
						c0.581,0.321,0.872,0.496,0.872,0.496c-0.569-0.295-4.921-2.554-13.62-7.07c-4.414-2.259-9.839-5.012-16.224-8.086
						c-3.188-1.546-6.633-3.138-10.313-4.781c-1.851-0.795-3.751-1.628-5.737-2.397c-1.98-0.781-4.035-1.54-6.2-2.088
						c-4.354-1.05-9.029-1.703-13.902-2.369c-4.875-0.666-9.97-1.278-15.231-2.122c-2.631-0.417-5.305-0.899-7.989-1.568
						c-2.698-0.645-5.32-1.706-7.959-2.761c-5.292-2.109-10.718-4.356-16.294-6.67c-22.294-9.276-46.939-19.72-73.116-30.869
						l0.151,0.016c-8.139,1.614-16.548,3.282-25.119,4.982l0.209-0.235c-0.29,3.695-0.583,7.422-0.878,11.171
						c-0.375,4.774-0.748,9.515-1.096,13.937l-0.017-0.114c1.686,4.352,3.359,8.671,4.911,12.677l-0.025-0.048
						c2.889,4.397,5.749,8.75,8.397,12.779l-0.153-0.108c13.484,3.301,26.565,6.443,39.135,9.394
						c12.571,2.942,24.628,5.73,36.108,8.076c5.732,1.213,11.374,1.974,16.85,2.706c5.478,0.707,10.781,1.392,15.896,2.052
						c10.232,1.312,19.713,2.537,28.3,3.902c4.291,0.691,8.366,1.38,12.166,2.288c3.787,0.908,7.377,1.655,10.729,2.335
						c6.71,1.343,12.487,2.375,17.197,3.195C643.173,353.456,647.815,354.239,648.434,354.343z"/>
				</g>
			</g>
			<g>
				<path style="fill:#FFBF9D;" d="M655.501,332.491c10.438,4.764,11.35-0.281,17.042-2.324c2.714-0.974,5.425-1.497,8.085-0.378
					c1.993,0.838,3.734,3.709,4.332,5.842c0.597,2.133,1.214,4.448,1.438,6.656c0.909,8.95,4.488,15.99,11.089,21.873
					c4.858,4.329,10.965,7.368,14.571,12.846c0.812,1.234,1.497,2.649,1.442,4.139c-0.055,1.491-1.064,3.025-2.501,3.197
					c-1.733,0.208-3.054-1.447-4.356-2.646c-2.366-2.178-5.901-2.14-9.325-3.405c-2.985-1.103-10.225-4.041-13.002-5.62
					c-11.193-6.364-24.641-13.372-35.882-18.328"/>
				<g>
					<path style="fill:#FF9A6C;" d="M648.434,354.343c0.004-0.008,0.138,0.042,0.398,0.149c0.281,0.118,0.661,0.279,1.147,0.484
						c1.006,0.432,2.482,1.085,4.37,1.956c3.778,1.736,9.197,4.355,15.792,7.788c3.297,1.718,6.889,3.635,10.712,5.756
						c1.93,1.035,3.84,2.242,5.952,3.193c2.105,0.977,4.311,1.907,6.585,2.828c2.291,0.895,4.582,1.92,7.09,2.44
						c1.247,0.296,2.532,0.567,3.787,1.046c0.626,0.24,1.237,0.549,1.802,0.938c0.574,0.387,1.058,0.879,1.531,1.339
						c0.932,0.899,1.978,1.906,3.235,1.832c1.243-0.056,2.183-1.309,2.365-2.559c0.193-1.288-0.299-2.623-0.988-3.789
						c-0.719-1.169-1.559-2.292-2.522-3.311c-3.862-4.11-8.832-6.787-12.779-10.462c-3.986-3.615-7.01-8.029-8.709-12.684
						c-0.86-2.322-1.429-4.679-1.776-6.993c-0.179-1.16-0.26-2.31-0.443-3.407c-0.182-1.105-0.43-2.183-0.699-3.238
						c-0.289-1.049-0.512-2.108-0.909-3.056c-0.394-0.957-0.908-1.848-1.505-2.642c-0.607-0.78-1.307-1.492-2.142-1.9
						c-0.848-0.405-1.777-0.612-2.679-0.686c-1.823-0.128-3.558,0.314-5.125,0.845c-1.578,0.52-2.925,1.328-4.155,2.142
						c-1.231,0.805-2.429,1.548-3.671,1.904c-1.238,0.372-2.432,0.348-3.47,0.249c-2.085-0.274-3.595-0.916-4.609-1.316
						c-0.482-0.216-0.859-0.384-1.138-0.509c-0.255-0.117-0.383-0.181-0.38-0.189c0.004-0.008,0.14,0.04,0.401,0.141
						c0.283,0.113,0.665,0.265,1.155,0.46c1.021,0.368,2.539,0.974,4.592,1.212c1.021,0.082,2.183,0.089,3.376-0.285
						c1.198-0.358,2.359-1.092,3.584-1.91c1.219-0.824,2.598-1.669,4.206-2.212c1.582-0.549,3.355-1.019,5.259-0.899
						c0.946,0.072,1.909,0.278,2.82,0.706c0.924,0.448,1.656,1.195,2.293,2.003c0.626,0.823,1.158,1.737,1.572,2.727
						c0.422,1,0.646,2.055,0.942,3.108c0.275,1.061,0.53,2.15,0.72,3.272c0.193,1.13,0.277,2.272,0.457,3.412
						c0.351,2.286,0.921,4.609,1.773,6.894c1.686,4.58,4.664,8.911,8.604,12.476c3.888,3.62,8.867,6.29,12.815,10.484
						c0.985,1.043,1.843,2.187,2.589,3.402c0.715,1.219,1.269,2.651,1.051,4.133c-0.118,0.727-0.419,1.422-0.903,1.983
						c-0.475,0.559-1.181,0.978-1.944,1.009c-0.761,0.059-1.479-0.256-2.059-0.642c-0.585-0.397-1.082-0.872-1.562-1.339
						c-0.926-0.984-1.939-1.722-3.161-2.173c-1.199-0.461-2.467-0.733-3.719-1.032c-2.544-0.534-4.881-1.584-7.155-2.48
						c-2.277-0.93-4.484-1.868-6.599-2.858c-2.135-0.971-4.052-2.193-5.967-3.23c-3.81-2.136-7.39-4.07-10.673-5.808
						c-6.568-3.473-11.958-6.139-15.707-7.931c-1.86-0.878-3.313-1.565-4.327-2.043c-0.477-0.225-0.85-0.401-1.126-0.531
						C648.558,354.418,648.43,354.352,648.434,354.343z"/>
				</g>
			</g>
		</g>
		<g>
			<path style="fill:#FFBF9D;" d="M225.01,241.05c0,0,16.076,19.71,33.009,29.681c16.932,9.972,55.536,31.888,65.331,36.848
				c9.795,4.96,61.784,21.579,61.784,21.579s5.581-6.192,7.811-16.977c2.23-10.784,0.223-57.843,0.223-57.843
				s-13.973-5.456-18.112-11.608c-2.318-3.445-38.695-38.442-38.695-38.442s-30.202-18.015-34.694-17.057
				c-4.492,0.958-27.646,15.994-27.646,15.994l-24.657,28.765C249.364,231.989,226.735,233.38,225.01,241.05z"/>
			<path style="fill:#FFBF9D;" d="M229.422,237.411c0,0-42.021,1.282-53.039-0.679s-34.126,1.349-45.604,2.538
				c-11.477,1.189-38.468,4.733-38.468,4.733v14.03c0,0,50.041,5.707,63.354,4.518c13.314-1.189,17.216-1.189,25.02-0.951
				c7.805,0.238,29.187,5.999,48.252,6.04c20.024,0.043,31.969,0.02,31.969,0.02l-12.505-22.705L229.422,237.411z"/>
			<path style="fill:#FFBF9D;" d="M28.035,251.639c0,0,0,4.932,5.482,4.932c0,0,0.433,2.69,5.482,2.541
				c5.049-0.15,24.814,2.69,24.814,2.69h5.482c0,0-7.791,2.69-10.676,3.138c-2.885,0.448-8.512,2.541-7.358,4.484
				c1.154,1.943,3.174,2.391,7.791,1.046c4.617-1.345,10.676-1.345,15.581-1.943c4.905-0.598,6.781-0.448,9.378-3.288
				c2.597-2.84,8.298-7.207,8.298-7.207v-14.03c0,0-7.433,1.061-10.607,2.406c-3.174,1.345-13.85,4.484-18.467,4.334
				C58.621,250.593,28.035,251.639,28.035,251.639z"/>
			<g>
				<path style="fill:#FF9A6C;" d="M318.941,258.852c-0.075-0.097,1.778-1.089,3.918-3.599c2.155-2.47,4.354-6.587,5.339-11.516
					c0.982-4.934,0.856-9.539,0.759-12.836c-0.062-1.579-0.114-2.895-0.155-3.919c-0.033-0.926-0.037-1.44,0-1.442
					c0.035-0.003,0.107,0.506,0.203,1.428c0.095,0.922,0.216,2.259,0.32,3.915c0.191,3.3,0.38,7.943-0.616,12.957
					c-1.001,5.015-3.303,9.2-5.572,11.654c-1.123,1.24-2.174,2.105-2.948,2.624c-0.374,0.278-0.701,0.441-0.909,0.57
					C319.066,258.811,318.95,258.867,318.941,258.852z"/>
			</g>
			<g>
				<path style="fill:#FF9A6C;" d="M334.738,281.258c-0.017,0.032-0.428-0.145-1.159-0.493c-0.732-0.345-1.777-0.874-3.057-1.55
					c-2.559-1.352-6.039-3.329-9.764-5.704c-3.725-2.379-6.984-4.702-9.288-6.454c-1.152-0.875-2.072-1.601-2.693-2.119
					c-0.623-0.517-0.957-0.816-0.935-0.844c0.022-0.028,0.398,0.216,1.058,0.683c0.745,0.53,1.678,1.194,2.788,1.983
					c2.355,1.672,5.637,3.94,9.35,6.312c3.714,2.368,7.153,4.39,9.662,5.821c1.184,0.674,2.179,1.241,2.973,1.694
					C334.375,280.988,334.755,281.226,334.738,281.258z"/>
			</g>
		</g>
		<g>
			<g>
				<g>
					<g>
						<g>
							<g>
								<g>
									<g>
										<g>
											<g>
												<g>
													<path style="fill:#FFBF9D;" d="M277.8,202.574l-43.999-48.285c-11.542-12.89-28.663-16.918-41.229-5.024l-1.097,1.167
														c-11.04,11.744-11.219,29.998-0.4,41.947c10.066,11.117,21.33,23.271,27.241,28.692
														c12.237,11.222,25.491,0.892,25.491,0.892c0.027-0.026,8.292,7.569,8.292,7.569l14.852,1.988l0,0L277.8,202.574z"/>
												</g>
											</g>
										</g>
									</g>
								</g>
							</g>
						</g>
					</g>
					<g>
						<g>
							<g>
								<g>
									<g>
										<g>
											<g>
												<g>
													<g>
														<path style="fill:#FF9A6C;" d="M243.806,221.963c0,0,7.615-7.204,10.15-20.127c0,0,6.487,12.897-5.949,23.943
															L243.806,221.963z"/>
													</g>
												</g>
											</g>
										</g>
									</g>
								</g>
							</g>
						</g>
					</g>
					<g>
						<g>
							<g>
								<g>
									<g>
										<g>
											<g>
												<g>
													<g>
														<g>
															<g>
																<g>
																	<g>
																		<g>
																			<g>
																				<path style="fill:#263238;" d="M204.752,199.631c0.882,0.89,2.362,0.877,3.309-0.027
																					c0.944-0.902,0.999-2.355,0.116-3.245c-0.882-0.89-2.363-0.878-3.308,0.024
																					C203.923,197.288,203.87,198.742,204.752,199.631z"/>
																			</g>
																		</g>
																	</g>
																</g>
															</g>
														</g>
													</g>
												</g>
											</g>
										</g>
									</g>
								</g>
							</g>
						</g>
					</g>
					<g>
						<g>
							<g>
								<g>
									<g>
										<g>
											<g>
												<g>
													<g>
														<g>
															<g>
																<g>
																	<g>
																		<g>
																			<g>
																				<path style="fill:#263238;" d="M222.069,183.331c0.882,0.89,2.362,0.877,3.309-0.027
																					c0.945-0.902,0.999-2.355,0.117-3.245c-0.882-0.889-2.364-0.877-3.308,0.025
																					C221.239,180.988,221.187,182.442,222.069,183.331z"/>
																			</g>
																		</g>
																	</g>
																</g>
															</g>
														</g>
													</g>
												</g>
											</g>
										</g>
									</g>
								</g>
							</g>
						</g>
					</g>
					<g>
						<g>
							<g>
								<g>
									<g>
										<g>
											<g>
												<g>
													<g>
														<g>
															<g>
																<g>
																	<g>
																		<g>
																			<g>
																				<path style="fill:#263238;" d="M224.409,197.108c-0.098-0.108-1.383,0.86-3.383,2.507
																					c-0.495,0.429-1.012,0.79-1.411,0.565c-0.448-0.211-0.773-0.89-1.109-1.64
																					c-0.729-1.526-1.494-3.125-2.295-4.801c-3.314-6.787-6.218-12.176-6.49-12.041
																					c-0.272,0.136,2.193,5.748,5.506,12.535c0.828,1.663,1.616,3.248,2.372,4.763
																					c0.371,0.687,0.692,1.571,1.631,1.998c0.475,0.206,1.06,0.099,1.428-0.128c0.379-0.217,0.635-0.479,0.87-0.701
																					C223.401,198.375,224.508,197.214,224.409,197.108z"/>
																			</g>
																		</g>
																	</g>
																</g>
															</g>
														</g>
													</g>
												</g>
											</g>
										</g>
									</g>
								</g>
							</g>
						</g>
					</g>
					<g>
						<g>
							<g>
								<g>
									<g>
										<g>
											<g>
												<g>
													<g>
														<g>
															<g>
																<path style="fill:#263238;" d="M210.343,173.782c0.684,0.277,2.143-1.837,4.413-3.82
																	c2.23-2.03,4.496-3.238,4.3-3.949c-0.103-0.331-0.87-0.455-2.022-0.178c-1.145,0.27-2.651,0.992-4.002,2.194
																	c-1.348,1.204-2.236,2.618-2.636,3.725C209.991,172.867,210.026,173.643,210.343,173.782z"/>
															</g>
														</g>
													</g>
												</g>
											</g>
										</g>
									</g>
								</g>
							</g>
						</g>
					</g>
					<g>
						<g>
							<g>
								<g>
									<g>
										<g>
											<g>
												<g>
													<g>
														<g>
															<g>
																<path style="fill:#263238;" d="M193.288,189.775c0.785,0.022,1.798-1.889,3.516-3.703
																	c1.663-1.864,3.489-3.042,3.392-3.814c-0.063-0.357-0.711-0.523-1.748-0.241c-1.026,0.274-2.407,1.058-3.57,2.321
																	c-1.161,1.265-1.819,2.699-1.997,3.736C192.695,189.123,192.922,189.747,193.288,189.775z"/>
															</g>
														</g>
													</g>
												</g>
											</g>
										</g>
									</g>
								</g>
							</g>
						</g>
					</g>
					<g>
						<g>
							<g>
								<g>
									<g>
										<g>
											<g>
												<path style="fill:#FFBF9D;" d="M241.829,163.697c0.105-0.29,5.355-10.622,13.377-2.584
													c8.021,8.039-3.387,16.393-2.419,15.057C252.978,175.905,241.829,163.697,241.829,163.697z"/>
											</g>
										</g>
									</g>
								</g>
							</g>
						</g>
					</g>
					<g>
						<g>
							<g>
								<g>
									<g>
										<g>
											<g>
												<g>
													<path style="fill:#FF9A6C;" d="M252.675,169.834c0.009-0.061,0.238-0.042,0.583-0.169
														c0.336-0.124,0.806-0.448,1.068-1.023c0.538-1.159-0.092-3.221-1.499-4.709c-0.709-0.752-1.558-1.296-2.393-1.614
														c-0.832-0.343-1.622-0.374-2.126-0.024c-0.523,0.326-0.571,0.884-0.443,1.209c0.117,0.332,0.328,0.441,0.299,0.498
														c-0.002,0.042-0.307,0.037-0.573-0.359c-0.126-0.193-0.221-0.477-0.186-0.819c0.036-0.349,0.24-0.712,0.57-0.977
														c0.662-0.576,1.79-0.562,2.706-0.214c0.954,0.318,1.924,0.912,2.721,1.756c1.565,1.671,2.248,4.014,1.421,5.51
														c-0.418,0.712-1.06,1.012-1.493,1.065C252.883,170.014,252.661,169.877,252.675,169.834z"/>
												</g>
											</g>
										</g>
									</g>
								</g>
							</g>
						</g>
					</g>
					<g>
						<g>
							<g>
								<g>
									<g>
										<g>
											<g>
												<g>
													<g>
														<path style="fill:#263238;" d="M231.234,192.633c-0.296,0.256,1.516,2.131,1.204,5.013
															c-0.306,2.884-2.504,4.61-2.265,4.886c0.088,0.143,0.797-0.068,1.661-0.862c0.853-0.773,1.802-2.209,1.994-3.973
															c0.186-1.763-0.449-3.257-1.13-4.087C232.01,192.759,231.352,192.498,231.234,192.633z"/>
													</g>
												</g>
											</g>
										</g>
									</g>
								</g>
							</g>
						</g>
					</g>
				</g>
				<path style="fill:#455A64;" d="M187.076,186.849c0,0-2.114-10.273,9.488-21.167c18.342-17.222,47.562,3.032,47.562,3.032
					l0.272-8.487c0,0-18.805-31.23-47.891-18.848c-11.424,4.863-17.04,14.189-16.959,26.997
					C179.624,180.506,187.076,186.849,187.076,186.849z"/>
				<g>
					<path style="fill:#FFFFFF;" d="M182.562,169.137c-0.036,0.004-0.1-0.393-0.185-1.12c-0.049-0.363-0.093-0.808-0.096-1.328
						c-0.01-0.519-0.052-1.112-0.001-1.766c0.032-1.31,0.227-2.864,0.586-4.561c0.391-1.689,0.967-3.515,1.787-5.344
						c0.842-1.819,1.843-3.452,2.861-4.856c1.045-1.385,2.09-2.551,3.058-3.435c0.46-0.467,0.935-0.824,1.333-1.157
						c0.395-0.338,0.759-0.597,1.065-0.798c0.604-0.412,0.946-0.624,0.966-0.595c0.062,0.084-1.279,0.989-3.109,2.814
						c-0.921,0.905-1.921,2.078-2.926,3.453c-0.979,1.395-1.948,3.004-2.775,4.79c-0.805,1.795-1.383,3.582-1.793,5.235
						c-0.378,1.661-0.608,3.185-0.686,4.474C182.469,167.523,182.666,169.128,182.562,169.137z"/>
				</g>
				<g style="opacity:0.3;">
					<path style="fill:#FFFFFF;" d="M231.865,146.524c0.328,0.712-0.307,1.277-1.058,1.5c-0.751,0.223-1.556-0.01-2.292-0.279
						c-0.736-0.269-1.492-0.581-2.273-0.514c-1.742,0.15-2.764,2.02-4.299,2.858c-1.249,0.682-2.818,0.624-4.123,0.056
						c-1.305-0.569-2.365-1.6-3.186-2.762c-0.714-1.012-1.341-2.202-2.475-2.699c-0.926-0.406-2.026-0.246-2.927,0.213
						c-0.901,0.459-1.635,1.185-2.313,1.936c-0.693,0.766-1.399,1.608-2.386,1.913c-1.201,0.372-2.505-0.16-3.526-0.894
						c-2.185-1.571-3.611-4.081-3.793-6.766c0,0,7.318-3.321,16.116-2.464c3.787,0.369,7.41,1.551,10.422,2.951
						C228.586,143.822,231.865,146.524,231.865,146.524z"/>
				</g>
			</g>
			<g>
				<g>
					<g>
						<g>
							<g>
								<g>
									<g>
										<g>
											<g>
												<g>
													<g>
														<g>
															<g>
																<g>
																	<g>
																		<g>
																			<g>
																				<g>
																					<g>
																						<g>
																							<g>
																								<g>
																									<g>
																										<path style="fill:#263238;" d="M217.755,178.979c0.459,0.058,0.999-2.3,3.101-4.051
																											c2.073-1.78,4.535-1.962,4.543-2.417c0.014-0.21-0.625-0.475-1.712-0.414
																											c-1.076,0.054-2.605,0.512-3.906,1.612c-1.3,1.102-1.986,2.516-2.196,3.55
																											C217.363,178.307,217.538,178.962,217.755,178.979z"/>
																									</g>
																								</g>
																							</g>
																						</g>
																					</g>
																				</g>
																			</g>
																		</g>
																	</g>
																</g>
															</g>
														</g>
													</g>
												</g>
											</g>
										</g>
									</g>
								</g>
							</g>
						</g>
					</g>
				</g>
				<g>
					<g>
						<g>
							<g>
								<g>
									<g>
										<g>
											<g>
												<g>
													<path style="fill:#263238;" d="M198.82,195.227c0.459,0.058,0.999-2.3,3.101-4.051
														c2.073-1.781,4.535-1.962,4.543-2.416c0.014-0.211-0.625-0.475-1.712-0.415c-1.076,0.054-2.605,0.512-3.906,1.612
														c-1.299,1.102-1.986,2.516-2.196,3.55C198.429,194.555,198.604,195.21,198.82,195.227z"/>
												</g>
											</g>
										</g>
									</g>
								</g>
							</g>
						</g>
					</g>
				</g>
			</g>
		</g>
		<g>
			<path style="fill:#FFBF9D;" d="M284.354,211.812c0,0,0-16.869,5.845-23.555s30.097-17.105,30.097-17.105
				s18.187-3.558,30.385-9.911c6.407-3.337,13.816-4.641,19.407-5.126c5.162-0.449,10.315,0.967,14.568,3.926l63.1,43.894
				l-8.782,15.624c0,0-48.053-20.452-53.18-24.772c-5.127-4.32-16.054-10.419-16.054-10.419s-13.166,10.529-20.838,13.214
				s-21.347,12.96-21.347,12.96l-29.224,12.198L284.354,211.812z"/>
			<path style="fill:#FFBF9D;" d="M438.388,218.146c0,0,2.155,10.942,7.461,13.764c5.305,2.822,11.806,8.723,13.054,12.505
				c1.248,3.782,4.129,3.602,4.489,0.72c0.36-2.882-0.354-5.462-2.341-9.001c-1.987-3.538-0.051-3.147,1.744-2.189
				c2.335,1.247,14.285,6.147,20.588,6.327c6.303,0.18,7.384-2.701,6.844-3.242c-0.54-0.54-15.128-6.484-15.128-6.484
				s20.02,2.611,21.948,2.309c2.422-0.38,2.634-3.719-0.127-4.477c-1.578-0.433-2.492-0.487-2.492-0.487s0.543-2.111-3.571-3.671
				c-4.003-1.517-13.056-5.287-13.056-5.287s14.948,3.689,14.948,2.608c0-1.081-0.54-2.521-2.521-3.422
				c-1.981-0.901-30.711-10.232-36.019-11.886c-5.625-1.753-7.915-3.32-7.915-3.32L438.388,218.146z"/>
			<g>
				<path style="fill:#FF9A6C;" d="M341.44,201.408c0.039,0.065-0.971,0.727-2.603,1.787c-1.623,1.067-3.882,2.531-6.083,4.493
					c-2.202,1.961-3.814,4.12-4.711,5.824c-0.914,1.7-1.21,2.879-1.299,2.852c-0.031-0.008,0.008-0.31,0.148-0.842
					c0.138-0.532,0.399-1.287,0.823-2.177c0.832-1.786,2.445-4.045,4.692-6.044c2.244-1.999,4.559-3.428,6.236-4.418
					C340.33,201.899,341.404,201.35,341.44,201.408z"/>
			</g>
			<g>
				<path style="fill:#FF9A6C;" d="M290.632,187.905c0.073,0.045-0.544,1.107-1.378,2.898c-0.836,1.788-1.835,4.334-2.547,7.257
					c-0.705,2.926-0.98,5.648-1.056,7.62c-0.078,1.973-0.015,3.201-0.101,3.207c-0.036,0.003-0.087-0.301-0.148-0.856
					c-0.067-0.554-0.112-1.36-0.119-2.358c-0.019-1.994,0.202-4.765,0.917-7.736c0.723-2.967,1.794-5.533,2.723-7.297
					c0.463-0.884,0.871-1.581,1.185-2.042C290.417,188.133,290.602,187.886,290.632,187.905z"/>
			</g>
			<g>
				<path style="fill:#FF9A6C;" d="M475.206,224.221c0.017-0.071,1.097,0.125,2.832,0.484c1.899,0.395,4.213,0.875,6.771,1.407
					c2.647,0.53,5.052,0.956,6.798,1.244c1.745,0.29,2.828,0.46,2.82,0.536c-0.007,0.067-1.106,0.026-2.871-0.172
					c-1.765-0.196-4.193-0.566-6.849-1.098c-2.655-0.533-5.038-1.109-6.753-1.559C476.239,224.613,475.189,224.29,475.206,224.221z"
					/>
			</g>
		</g>
		<g>
			<path style="opacity:0.3;fill:#FFFFFF;" d="M485.965,235.068l4.261,1.963c0.54,0.54-0.54,3.422-6.844,3.242
				c0,0-2.666-0.176-6.996-1.268c-4.705-1.186-11.199-3.937-11.199-3.937H485.965z"/>
			<path style="opacity:0.4;fill:#FFFFFF;" d="M450.804,235.167c3.618,2.875,7.262,6.711,8.099,9.248
				c1.248,3.782,4.14,3.603,4.489,0.72c0.433-3.574-0.983-6.766-2.97-10.304L450.804,235.167z"/>
		</g>
		<g>
			<path style="fill:#FF725E;" d="M389.976,252.848c0,0,21.325-7.3,43.206-2.568c21.881,4.732,38.273,11.058,38.273,11.058
				s-5.484,10.419-10.993,31.313c-3.619,13.727-2.896,25.533-2.896,25.533s-7.278,25.715-6.421,39.899
				c-25.424-6.917-48.649-14.295-67.378-24.848l-8.388-4.079l10.856-59.869L389.976,252.848z"/>
			<g>
				<path style="fill:#263238;" d="M395.225,251.375c0.142,0.026-3.089,17.995-7.215,40.13c-4.127,22.142-7.586,40.064-7.727,40.038
					c-0.141-0.026,3.089-17.991,7.215-40.133C391.624,269.275,395.083,251.348,395.225,251.375z"/>
			</g>
			<g>
				<path style="fill:#263238;" d="M430.039,316.34c0.038,0.044-0.723,0.803-2.131,1.815c-1.404,1.011-3.489,2.232-5.971,3.169
					c-2.484,0.932-4.858,1.388-6.582,1.548c-1.726,0.163-2.798,0.089-2.798,0.03c-0.002-0.085,1.062-0.141,2.753-0.395
					c1.69-0.251,4.005-0.755,6.444-1.67c2.437-0.92,4.509-2.066,5.949-2.987C429.144,316.929,429.985,316.274,430.039,316.34z"/>
			</g>
			<g>
				<path style="fill:#263238;" d="M457.743,317.923c-0.002,0.036-0.6,0.034-1.682-0.001c-1.081-0.03-2.645-0.119-4.574-0.267
					c-3.857-0.294-9.176-0.897-14.99-1.943c-5.815-1.052-11.01-2.345-14.727-3.417c-1.859-0.535-3.355-0.997-4.379-1.346
					c-1.025-0.345-1.587-0.552-1.576-0.586c0.011-0.034,0.593,0.107,1.635,0.392c1.129,0.303,2.617,0.702,4.417,1.185
					c3.734,0.979,8.926,2.211,14.722,3.26c5.796,1.043,11.09,1.702,14.931,2.089c1.855,0.176,3.39,0.321,4.553,0.432
					C457.15,317.817,457.745,317.887,457.743,317.923z"/>
			</g>
		</g>
	</g>
	<g style="opacity:0.4;">
		<path style="fill:#FFFFFF;" d="M375,242.922c3.123,3.785,10.57,8.028,14.952,10.031l0.024-0.105c0,0,1.945-0.663,5.246-1.459
			l0.003-0.014c-0.001,0.005-0.002,0.009-0.003,0.014c7.66-1.847,22.669-4.415,37.96-1.108
			c21.881,4.732,38.273,11.059,38.273,11.059s-0.245,0.466-0.679,1.388l0.184-0.388c0,0,84.635,36.322,94.454,39.745
			c9.819,3.423,33.124,4.56,42.439,7.618c0.732,0.24,1.534,0.528,2.373,0.842c4.836-1.483,9.931-3.31,15.328-5.643l0,0
			c7.71-5.172,5.131-9.151,6.842-14.672c0.874-2.823,2.096-5.374,4.562-6.897c1.846-1.14,5.118-0.853,7.129-0.066
			c2.012,0.788,4.177,1.67,6.023,2.81c7.484,4.624,15.09,5.899,23.614,3.986c6.273-1.408,12.295-4.621,18.708-4.306
			c1.444,0.071,2.952,0.356,4.075,1.296c1.123,0.94,1.706,2.694,0.977,3.983c-0.879,1.554-2.956,1.65-4.667,2.005
			c-3.109,0.644-5.202,3.583-8.238,5.647c-2.648,1.8-9.382,5.781-12.164,7.351c-7.333,4.137-16.291,8.68-24.529,12.856l0,0
			c0,0-3.297,1.673-8.631,4.396c-0.241,0.124-0.479,0.246-0.716,0.369c7.325,3.714,13.75,7.116,16.961,8.831v0
			c10.438,4.763,11.35-0.281,17.042-2.324c2.714-0.974,5.425-1.497,8.085-0.378c1.993,0.838,3.734,3.709,4.332,5.842
			c0.597,2.132,1.214,4.448,1.438,6.656c0.91,8.95,4.488,15.99,11.089,21.873c4.858,4.329,10.965,7.368,14.571,12.846
			c0.812,1.234,1.497,2.649,1.442,4.139c-0.055,1.491-1.064,3.025-2.501,3.197c-1.733,0.208-3.054-1.447-4.356-2.646
			c-2.366-2.178-5.901-2.14-9.324-3.405c-2.985-1.103-10.225-4.041-13.002-5.62c-11.193-6.364-24.641-13.372-35.882-18.328
			c0,0-26.54-4.007-42.626-7.863c-2.248-0.539-5.087-1.087-8.324-1.639c-19.4,10.139-37.743,19.977-41.051,22.609
			c-7.463,5.937-19.464,4.736-19.464,4.736l-85.924-14.101l-0.024-0.034c-25.375-6.907-48.555-14.278-67.253-24.814l-3.485-1.694
			l0,0l0,0l-4.904-2.384l0.54-2.98c-15.395-5.016-45.372-14.954-52.569-18.599c-9.795-4.961-48.399-26.877-65.331-36.848
			c-1.601-0.943-3.195-1.974-4.768-3.066c-5.5,0.001-13.788-0.003-24.313-0.026c-19.065-0.041-40.447-5.802-48.252-6.04
			c-7.805-0.238-11.707-0.238-25.02,0.951c-13.314,1.189-63.354-4.518-63.354-4.518s-5.702,4.367-8.299,7.207
			c-2.597,2.84-4.472,2.69-9.378,3.288c-4.905,0.598-10.965,0.598-15.581,1.943c-4.617,1.345-6.636,0.897-7.791-1.046
			c-1.154-1.943,4.472-4.035,7.358-4.484s10.676-3.138,10.676-3.138h-5.482c0,0-19.765-2.84-24.814-2.69
			c-5.049,0.15-5.482-2.541-5.482-2.541c-5.482,0-5.482-4.932-5.482-4.932s30.585-1.046,35.202-0.897
			c4.617,0.15,15.293-2.989,18.467-4.334c3.174-1.345,10.607-2.406,10.607-2.406s26.991-3.544,38.468-4.733
			c11.477-1.189,34.585-4.499,45.604-2.538c9.715,1.729,43.527,0.937,51.391,0.726c2.165-1.521,5.307-2.637,8.526-3.449
			c0,0,13.221,2.239,18.17,2.211s13.322,0.252,19.437-1.685c6.115-1.937,25.188-6.676,32.422-6.829
			c7.233-0.153,25.546,2.354,28.021,2.361c2.475,0.008,30.662,2.175,30.662,2.175S371.382,238.537,375,242.922z"/>
	</g>
</g>
<g id="Water">
	<g>
		<g>
			<g>
				<path style="fill:#263238;" d="M347.24,209.454c0,0,0.17,0.078,0.398,0.343c0.219,0.265,0.482,0.739,0.546,1.406
					c0.064,0.657-0.068,1.513-0.603,2.31c-0.525,0.795-1.389,1.48-2.409,2.042c-2.044,1.115-4.64,2.115-7.614,2.858
					c-2.974,0.75-6.311,1.231-9.811,1.618c-0.447,0.049-0.891,0.097-1.305,0.142l-0.941,0.103l0.757-0.569
					c2.688-2.02,5.162-4.052,7.551-5.717c2.377-1.681,4.685-2.946,6.703-3.801c2.015-0.825,3.71-1.457,4.976-1.402
					c0.623,0.017,1.094,0.186,1.371,0.355C347.139,209.31,347.24,209.454,347.24,209.454c-0.022,0.062-0.544-0.498-1.754-0.469
					c-1.195,0.002-2.849,0.671-4.831,1.534c-1.977,0.889-4.233,2.168-6.575,3.858c-2.352,1.673-4.812,3.715-7.51,5.747l-0.184-0.466
					c0.413-0.045,0.857-0.094,1.303-0.143c3.492-0.386,6.806-0.85,9.754-1.567c2.947-0.709,5.525-1.663,7.553-2.716
					c1.005-0.528,1.833-1.158,2.346-1.885c0.516-0.719,0.671-1.51,0.641-2.13C347.902,209.931,347.173,209.482,347.24,209.454z"/>
			</g>
		</g>
		<g>
			<path style="fill:#263238;" d="M142.691,211.788c-0.02-0.002,0.035-0.36,0.459-0.816c0.411-0.445,1.266-0.934,2.396-0.86
				c1.133,0.027,2.414,0.953,2.882,2.367c0.25,0.694,0.337,1.488,0.194,2.284c-0.144,0.797-0.533,1.57-1.098,2.203
				c-1.123,1.271-2.858,1.887-4.323,1.538c-1.502-0.333-2.402-1.535-2.779-2.537c-0.39-1.04-0.285-1.98-0.082-2.547
				c0.217-0.574,0.47-0.812,0.484-0.799c0.044,0.027-0.145,0.302-0.29,0.857c-0.133,0.55-0.17,1.414,0.23,2.352
				c0.388,0.908,1.241,1.951,2.538,2.205c1.277,0.283,2.823-0.272,3.833-1.416c1.043-1.134,1.291-2.737,0.84-3.983
				c-0.404-1.27-1.468-2.084-2.462-2.159c-1.002-0.111-1.805,0.274-2.223,0.641C142.858,211.493,142.737,211.813,142.691,211.788z"
				/>
		</g>
		<g>
			<path style="fill:#263238;" d="M707.747,234.831c0,0-0.603,0.018-1.781,0.027c-1.185,0.006-2.935,0.014-5.227,0.026
				c-4.602,0.011-11.376,0.028-20.098,0.049c-17.461,0.02-42.715,0.048-73.919,0.083c-31.211,0.016-68.371,0.035-109.632,0.056
				c-20.632,0.005-42.288,0.01-64.739,0.015c-5.613,0.001-11.275,0.002-16.983,0.002c-2.854,0-5.72,0.001-8.597,0.001l-2.16,0
				c-0.72-0.002-1.439-0.082-2.16-0.12c-1.441-0.095-2.884-0.19-4.331-0.285c-11.57-0.762-23.31-1.535-35.189-2.318
				c-11.879-0.828-23.64-1.394-35.177-2.723c-5.763-0.671-11.457-1.556-17.149-1.712c-5.692-0.214-11.313,0.642-16.766,1.899
				c-5.462,1.249-10.797,2.848-16.168,4.123c-2.684,0.644-5.382,1.184-8.087,1.602c-2.709,0.391-5.42,0.657-8.125,0.807
				c-10.824,0.544-21.503-1.037-31.288-4.392c-4.894-1.66-9.557-3.78-14.45-4.844c-2.434-0.549-4.922-0.794-7.364-0.574
				c-2.453,0.174-4.765,1.023-7.108,1.742c-2.322,0.723-4.837,1.253-7.269,0.717c-2.422-0.491-4.552-1.7-6.644-2.784
				c-2.086-1.111-4.224-2.09-6.509-2.428c-2.272-0.368-4.592-0.218-6.811,0.262c-4.453,1.005-8.494,3.101-12.347,5.239
				c-1.918,1.083-3.834,2.204-5.861,3.026c-2.016,0.845-4.101,1.464-6.199,1.888c-4.202,0.854-8.418,0.969-12.5,0.888
				c-4.083-0.058-8.077-0.024-11.978-0.041c-31.203-0.049-56.453-0.089-73.911-0.117c-8.721-0.025-15.494-0.045-20.095-0.058
				c-2.292-0.012-4.041-0.022-5.226-0.028c-1.177-0.009-1.781-0.027-1.781-0.027s0.603-0.018,1.781-0.026
				c1.185-0.005,2.934-0.013,5.226-0.023c4.601-0.009,11.374-0.022,20.096-0.04c17.459-0.012,42.711-0.028,73.916-0.049
				c3.901,0.011,7.896-0.029,11.979,0.024c4.072,0.075,8.257-0.046,12.413-0.896c2.075-0.421,4.133-1.036,6.123-1.872
				c2.003-0.815,3.882-1.918,5.815-3.012c3.862-2.146,7.927-4.268,12.458-5.296c2.258-0.492,4.635-0.65,6.973-0.273
				c2.353,0.346,4.558,1.355,6.645,2.466c2.099,1.087,4.201,2.268,6.528,2.736c2.325,0.511,4.737,0.008,7.047-0.712
				c2.316-0.711,4.68-1.584,7.199-1.766c2.501-0.227,5.04,0.023,7.506,0.577c4.958,1.077,9.637,3.203,14.505,4.849
				c9.729,3.329,20.348,4.895,31.107,4.349c2.688-0.15,5.383-0.416,8.076-0.805c2.688-0.417,5.37-0.955,8.045-1.598
				c5.353-1.272,10.687-2.873,16.171-4.13c5.471-1.264,11.152-2.131,16.894-1.916c5.736,0.156,11.445,1.044,17.195,1.712
				c11.51,1.325,23.273,1.89,35.148,2.718c11.876,0.783,23.611,1.557,35.178,2.32c1.446,0.095,2.889,0.191,4.329,0.286
				c0.721,0.037,1.439,0.117,2.159,0.12l2.16,0c2.877,0,5.742,0.001,8.596,0.001c5.708,0.001,11.37,0.002,16.982,0.002
				c22.449,0.005,44.105,0.01,64.735,0.015c41.259,0.021,78.416,0.04,109.625,0.056c31.203,0.035,56.456,0.063,73.916,0.083
				c8.722,0.021,15.496,0.038,20.098,0.049c2.292,0.011,4.042,0.02,5.227,0.026C707.144,234.814,707.747,234.831,707.747,234.831z"
				/>
		</g>
		<g>
			<path style="fill:#263238;" d="M410.46,237.932c0,0-0.282,0.096-0.837,0.25c-0.557,0.15-1.379,0.389-2.465,0.657
				c-2.17,0.537-5.374,1.27-9.509,1.937c-8.245,1.328-20.349,2.357-34.736,0.435l0.158-0.387c0.912,0.683,1.551,1.717,1.826,2.836
				c0.266,1.126,0.199,2.317-0.1,3.445c-0.299,1.132-0.879,2.199-1.677,3.097c-0.808,0.905-1.85,1.547-2.954,2.046
				c-2.237,0.975-4.749,1.186-7.222,1.084c-2.482-0.126-4.984-0.49-7.482-1.069c-4.993-1.156-9.938-3.279-14.443-6.275
				c-2.232-1.427-4.678-2.887-7.395-2.707c-1.322,0.068-2.653,0.538-3.565,1.496c-0.924,0.956-1.35,2.303-1.825,3.62
				c-0.639,1.785-1.602,3.478-2.89,4.857c-1.275,1.391-2.81,2.508-4.453,3.361c-3.299,1.706-7.007,2.365-10.571,2.2
				c-3.588-0.182-6.985-1.277-10.084-2.714c-3.11-1.442-5.933-3.264-8.578-5.163c-1.325-0.948-2.603-1.924-3.853-2.898
				c-1.25-0.975-2.468-1.943-3.749-2.771c-1.277-0.827-2.629-1.505-4.048-1.852c-1.418-0.354-2.886-0.281-4.25,0.08
				c-2.751,0.758-4.994,2.522-7.232,3.978c-1.12,0.743-2.243,1.449-3.418,2.01c-1.175,0.559-2.394,0.962-3.611,1.211
				c-2.443,0.471-4.846,0.398-7.035-0.014c-2.198-0.391-4.192-1.111-5.969-1.938c-3.545-1.707-6.215-3.825-8.303-5.607
				c-2.084-1.799-3.596-3.31-4.629-4.323c-0.499-0.502-0.885-0.891-1.16-1.168c-0.259-0.266-0.382-0.411-0.382-0.411
				s0.148,0.12,0.419,0.373c0.284,0.268,0.682,0.645,1.196,1.131c1.055,0.989,2.589,2.474,4.687,4.244
				c2.1,1.752,4.777,3.835,8.295,5.498c1.762,0.806,3.736,1.503,5.904,1.876c2.158,0.394,4.518,0.451,6.902-0.021
				c1.189-0.25,2.373-0.647,3.518-1.197c1.145-0.554,2.251-1.253,3.362-1.997c2.224-1.455,4.474-3.255,7.342-4.061
				c1.42-0.383,2.978-0.464,4.466-0.096c1.489,0.36,2.888,1.06,4.193,1.9c1.308,0.841,2.54,1.817,3.789,2.786
				c1.25,0.969,2.525,1.938,3.844,2.879c2.634,1.883,5.437,3.684,8.508,5.102c3.056,1.413,6.407,2.483,9.9,2.655
				c3.479,0.158,7.104-0.49,10.307-2.15c1.596-0.829,3.079-1.911,4.307-3.252c1.243-1.335,2.157-2.941,2.783-4.682
				c0.473-1.299,0.905-2.724,1.939-3.803c1.028-1.077,2.498-1.583,3.911-1.654c1.426-0.094,2.844,0.247,4.116,0.794
				c1.28,0.546,2.448,1.273,3.585,1.997c4.471,2.978,9.34,5.072,14.28,6.225c2.466,0.576,4.948,0.941,7.389,1.069
				c2.431,0.105,4.874-0.102,7.013-1.03c1.051-0.471,2.056-1.092,2.8-1.926c0.746-0.835,1.299-1.84,1.582-2.907
				c0.285-1.062,0.349-2.182,0.106-3.222c-0.254-1.034-0.829-1.968-1.654-2.593l-0.659-0.499l0.817,0.112
				c14.328,1.962,26.399,1,34.639-0.253c4.133-0.629,7.34-1.322,9.517-1.818c1.071-0.257,1.898-0.456,2.478-0.595
				C410.166,237.985,410.46,237.932,410.46,237.932z"/>
		</g>
		<g>
			<path style="fill:#263238;" d="M527.35,248.825c0.012,0.014-0.121,0.138-0.388,0.364c-0.272,0.218-0.7,0.512-1.299,0.803
				c-1.194,0.591-3.142,1.02-5.515,0.84c-2.387-0.118-5.097-0.986-8.119-1.578c-1.512-0.284-3.129-0.466-4.773-0.268
				c-1.646,0.189-3.275,0.813-4.93,1.49c-1.657,0.667-3.308,1.37-5.025,1.619c-1.7,0.29-3.384,0.231-4.935-0.038
				c-1.557-0.262-2.983-0.74-4.267-1.278c-1.288-0.533-2.443-1.127-3.465-1.717c-2.049-1.176-3.606-2.281-4.673-3.051
				c-0.534-0.385-0.94-0.696-1.212-0.91c-0.273-0.214-0.411-0.333-0.4-0.348c0.01-0.015,0.169,0.076,0.461,0.262
				c0.339,0.222,0.758,0.496,1.267,0.829c1.1,0.717,2.683,1.772,4.737,2.896c1.025,0.564,2.175,1.133,3.448,1.639
				c1.27,0.512,2.67,0.963,4.185,1.205c1.51,0.248,3.133,0.295,4.768,0.008c1.645-0.243,3.253-0.929,4.915-1.599
				c1.656-0.677,3.337-1.321,5.066-1.514c1.723-0.2,3.391,0.002,4.924,0.303c3.068,0.63,5.725,1.522,8.057,1.682
				c2.322,0.221,4.216-0.14,5.405-0.658C526.778,249.295,527.315,248.775,527.35,248.825z"/>
		</g>
		<g>
			<path style="fill:#263238;" d="M530.551,242.647c-0.008-0.025,0.117-0.113,0.385-0.12c0.264-0.01,0.663,0.117,1.005,0.456
				c0.331,0.329,0.64,0.898,0.507,1.582c-0.138,0.685-0.809,1.22-1.541,1.323c-0.731,0.128-1.504-0.163-1.9-0.692
				c-0.408-0.513-0.498-1.11-0.467-1.569c0.082-0.951,0.59-1.351,0.616-1.304c0.078,0.044-0.273,0.496-0.248,1.312
				c0.017,0.395,0.136,0.878,0.467,1.253c0.315,0.382,0.875,0.578,1.45,0.485c0.57-0.084,1.043-0.466,1.155-0.92
				c0.117-0.454-0.072-0.93-0.313-1.223C531.157,242.593,530.548,242.73,530.551,242.647z"/>
		</g>
		<g>
			<path style="fill:#263238;" d="M430.824,344.778c0.006,0.007-0.108,0.106-0.336,0.292c-0.231,0.181-0.561,0.472-1.029,0.807
				c-0.942,0.655-2.386,1.574-4.431,2.365c-2.039,0.769-4.681,1.459-7.803,1.452c-3.103,0.024-6.708-0.648-10.171-2.538
				c-1.719-0.957-3.361-2.191-5.088-3.421c-1.725-1.223-3.567-2.468-5.703-3.211c-2.142-0.703-4.517-0.906-6.897-0.513
				c-2.384,0.371-4.748,1.224-7.103,2.23c-2.36,1.007-4.726,2.18-7.214,3.242c-2.484,1.057-5.112,2.021-7.924,2.44
				c-2.817,0.383-5.729,0.175-8.58-0.413c-2.858-0.582-5.667-1.508-8.468-2.5c-2.806-0.987-5.561-1.998-8.334-2.779
				c-2.767-0.771-5.572-1.352-8.347-1.281c-1.378,0.062-2.753,0.164-4.063,0.529c-1.338,0.242-2.583,0.782-3.788,1.351
				c-2.404,1.17-4.585,2.664-6.814,3.973c-2.213,1.325-4.541,2.435-6.97,2.944c-2.425,0.505-4.851,0.474-7.137,0.199
				c-4.584-0.609-8.64-2.053-12.362-3.163c-3.707-1.172-7.164-1.889-10.247-2.004c-3.074-0.144-5.743,0.254-7.776,0.993
				c-2.034,0.744-3.44,1.728-4.275,2.502c-0.835,0.775-1.217,1.248-1.243,1.224c0,0,0.352-0.495,1.172-1.302
				c0.819-0.805,2.224-1.831,4.276-2.615c2.05-0.778,4.751-1.211,7.857-1.093c3.112,0.087,6.618,0.789,10.341,1.942
				c3.735,1.091,7.787,2.506,12.309,3.087c2.254,0.262,4.629,0.281,6.989-0.218c2.36-0.503,4.627-1.588,6.822-2.91
				c2.207-1.304,4.393-2.809,6.841-4.007c1.225-0.581,2.509-1.139,3.885-1.393c1.348-0.376,2.76-0.485,4.175-0.549
				c2.847-0.075,5.7,0.515,8.495,1.292c2.801,0.787,5.566,1.802,8.367,2.787c2.797,0.991,5.583,1.909,8.399,2.484
				c2.811,0.582,5.657,0.785,8.403,0.415c2.742-0.404,5.333-1.347,7.802-2.392c2.473-1.05,4.842-2.218,7.221-3.226
				c2.375-1.007,4.776-1.868,7.222-2.241c2.44-0.396,4.9-0.18,7.109,0.557c2.203,0.778,4.067,2.057,5.794,3.292
				c1.727,1.245,3.35,2.477,5.034,3.427c3.385,1.874,6.929,2.565,9.992,2.568c3.081,0.035,5.701-0.617,7.731-1.35
				c2.036-0.754,3.486-1.638,4.443-2.261c0.474-0.319,0.813-0.595,1.055-0.762C430.694,344.856,430.819,344.771,430.824,344.778z"/>
		</g>
		<g>
			<path style="fill:#263238;" d="M638.623,296.714c-0.001,0.009-0.104,0.007-0.304-0.005c-0.229-0.017-0.521-0.039-0.888-0.066
				c-0.815-0.071-1.956-0.17-3.408-0.297c-2.959-0.243-7.242-0.654-12.546-0.772c-5.29-0.1-11.659,0.085-18.47,1.732
				c-3.4,0.813-6.878,2.082-10.649,2.866c-1.884,0.375-3.847,0.638-5.85,0.555c-2.002-0.078-4.017-0.526-5.925-1.261
				c-3.829-1.468-7.171-3.662-10.71-5.028c-1.762-0.688-3.568-1.168-5.377-1.292c-1.807-0.135-3.593,0.049-5.291,0.418
				c-3.406,0.744-6.456,2.142-9.271,3.467c-2.813,1.341-5.414,2.678-7.92,3.607c-2.501,0.922-4.852,1.553-6.966,1.785
				c-2.11,0.25-3.961,0.141-5.425-0.163c-0.739-0.128-1.364-0.361-1.914-0.529c-0.529-0.226-0.98-0.41-1.329-0.589
				c-0.318-0.186-0.572-0.335-0.771-0.451c-0.172-0.104-0.257-0.161-0.253-0.168c0.042-0.111,1.378,1.009,4.305,1.538
				c1.448,0.269,3.271,0.346,5.35,0.073c2.082-0.256,4.4-0.904,6.871-1.84c2.473-0.942,5.048-2.288,7.864-3.652
				c2.816-1.345,5.883-2.773,9.355-3.546c1.73-0.383,3.564-0.579,5.428-0.445c1.867,0.122,3.731,0.614,5.526,1.312
				c3.607,1.388,6.953,3.579,10.709,5.016c1.873,0.72,3.817,1.152,5.762,1.23c1.946,0.083,3.869-0.171,5.728-0.537
				c3.722-0.766,7.202-2.023,10.637-2.832c6.879-1.635,13.287-1.78,18.592-1.634c5.32,0.165,9.601,0.632,12.557,0.938
				c1.448,0.168,2.586,0.3,3.399,0.394c0.364,0.048,0.655,0.087,0.882,0.118C638.523,296.686,638.625,296.706,638.623,296.714z"/>
		</g>
		<g>
			<path style="fill:#263238;" d="M234.46,400.638c-0.001,0.009-0.104,0.007-0.304-0.005c-0.229-0.017-0.521-0.039-0.888-0.066
				c-0.815-0.071-1.957-0.171-3.408-0.297c-2.959-0.244-7.242-0.654-12.546-0.772c-5.29-0.1-11.659,0.085-18.469,1.732
				c-3.4,0.813-6.878,2.082-10.649,2.866c-1.884,0.375-3.847,0.638-5.85,0.555c-2.002-0.078-4.017-0.527-5.925-1.261
				c-3.829-1.468-7.171-3.662-10.71-5.028c-1.762-0.688-3.568-1.168-5.377-1.292c-1.807-0.135-3.593,0.049-5.291,0.418
				c-3.406,0.744-6.456,2.142-9.271,3.467c-2.813,1.341-5.414,2.678-7.92,3.607c-2.501,0.922-4.852,1.553-6.966,1.785
				c-2.111,0.25-3.961,0.141-5.425-0.163c-0.739-0.127-1.364-0.361-1.913-0.529c-0.529-0.226-0.98-0.41-1.329-0.589
				c-0.318-0.186-0.572-0.335-0.771-0.451c-0.172-0.104-0.257-0.161-0.253-0.168c0.042-0.111,1.378,1.009,4.305,1.538
				c1.448,0.269,3.271,0.346,5.35,0.073c2.082-0.256,4.4-0.904,6.871-1.84c2.473-0.941,5.048-2.288,7.864-3.652
				c2.816-1.345,5.883-2.773,9.355-3.546c1.73-0.383,3.564-0.579,5.428-0.445c1.867,0.122,3.731,0.614,5.526,1.312
				c3.607,1.388,6.953,3.579,10.709,5.016c1.873,0.72,3.817,1.152,5.762,1.23c1.946,0.083,3.869-0.171,5.728-0.537
				c3.722-0.766,7.202-2.023,10.637-2.832c6.879-1.635,13.287-1.781,18.592-1.634c5.32,0.165,9.601,0.632,12.556,0.938
				c1.448,0.168,2.586,0.3,3.399,0.394c0.364,0.048,0.655,0.087,0.882,0.117C234.36,400.61,234.461,400.629,234.46,400.638z"/>
		</g>
		<g>
			<path style="fill:#263238;" d="M565.311,401.066c-0.004,0.008-0.096-0.028-0.271-0.107c-0.2-0.093-0.453-0.211-0.769-0.358
				c-0.333-0.168-0.757-0.349-1.261-0.556c-0.498-0.221-1.084-0.446-1.751-0.68c-2.644-0.961-6.678-1.991-11.732-1.928
				c-2.52,0.024-5.279,0.391-8.134,1.169c-2.87,0.74-5.707,2.236-8.968,3.173c-1.625,0.459-3.391,0.738-5.183,0.518
				c-1.796-0.211-3.506-0.958-5.103-1.859c-1.605-0.908-3.113-2-4.701-2.992c-1.578-1-3.27-1.883-5.112-2.313
				c-1.849-0.379-3.759-0.21-5.506,0.392c-1.755,0.589-3.362,1.511-4.896,2.476c-3.063,1.93-5.905,4.126-9.14,5.261
				c-3.231,1.208-6.607,0.913-9.505,0.266c-2.931-0.654-5.55-1.604-7.98-2.297c-4.837-1.433-9.084-1.414-11.733-0.443
				c-2.678,0.943-3.672,2.32-3.727,2.226c-0.006-0.006,0.059-0.079,0.194-0.216c0.139-0.132,0.329-0.349,0.618-0.587
				c0.576-0.477,1.502-1.12,2.848-1.614c2.681-1.049,7.004-1.123,11.902,0.28c2.45,0.674,5.074,1.602,7.971,2.229
				c2.871,0.621,6.139,0.883,9.252-0.296c3.133-1.109,5.945-3.286,9.029-5.241c1.546-0.976,3.183-1.923,5.005-2.537
				c1.812-0.628,3.832-0.812,5.781-0.409c1.937,0.451,3.682,1.371,5.276,2.382c1.605,1.005,3.108,2.096,4.679,2.988
				c1.565,0.886,3.207,1.604,4.912,1.809c1.702,0.213,3.401-0.044,4.993-0.487c3.192-0.901,6.059-2.39,8.982-3.127
				c2.9-0.772,5.695-1.12,8.244-1.121c5.111-0.016,9.167,1.081,11.806,2.107C563.983,400.206,565.311,401.066,565.311,401.066z"/>
		</g>
		<g>
			<path style="fill:#263238;" d="M234.349,295.819c-0.008,0.005-0.087-0.099-0.233-0.305c-0.158-0.228-0.369-0.532-0.638-0.918
				c-0.264-0.414-0.715-0.832-1.177-1.378c-0.225-0.28-0.549-0.502-0.849-0.783c-0.312-0.27-0.628-0.576-1.026-0.82
				c-1.492-1.103-3.569-2.132-6.138-2.756c-2.565-0.633-5.597-0.885-8.92-0.679c-3.33,0.215-6.91,0.973-10.656,2.168
				c-3.76,1.136-7.73,2.552-12.052,3.59c-4.294,1.028-9.071,1.658-13.86,0.605c-4.786-1.037-9.144-3.687-14.024-5.031
				c-2.434-0.684-4.954-0.879-7.381-0.492c-2.429,0.378-4.744,1.175-6.974,2.059c-4.436,1.763-8.777,3.786-13.299,4.02
				c-4.49,0.258-8.669-0.795-12.438-1.884c-3.781-1.108-7.25-2.31-10.506-3.015c-3.257-0.69-6.294-0.878-8.927-0.661
				c-2.633,0.23-4.853,0.865-6.52,1.688c-1.678,0.816-2.768,1.794-3.49,2.453c-0.317,0.347-0.567,0.619-0.754,0.824
				c-0.172,0.185-0.263,0.278-0.27,0.272c-0.007-0.005,0.07-0.109,0.229-0.306c0.161-0.195,0.394-0.492,0.72-0.863
				c0.703-0.688,1.785-1.704,3.474-2.561c1.676-0.863,3.921-1.536,6.584-1.796c2.662-0.248,5.733-0.083,9.028,0.59
				c3.296,0.69,6.776,1.875,10.55,2.961c3.761,1.069,7.897,2.087,12.287,1.82c4.408-0.239,8.682-2.233,13.143-4.016
				c2.24-0.892,4.59-1.706,7.083-2.096c2.491-0.401,5.114-0.198,7.594,0.502c4.978,1.379,9.319,4.022,13.998,5.036
				c4.677,1.037,9.375,0.435,13.64-0.574c4.29-1.016,8.262-2.415,12.038-3.537c3.757-1.179,7.399-1.931,10.757-2.122
				c3.358-0.184,6.423,0.096,9.015,0.765c2.596,0.659,4.692,1.731,6.187,2.875c0.398,0.254,0.715,0.57,1.025,0.849
				c0.299,0.291,0.62,0.521,0.842,0.81c0.455,0.563,0.896,0.996,1.149,1.423c0.252,0.401,0.45,0.716,0.598,0.952
				C234.293,295.703,234.357,295.815,234.349,295.819z"/>
		</g>
	</g>
</g>
</svg>
