<?xml version="1.0" encoding="utf-8"?>
<!-- Generator: Adobe Illustrator 27.5.0, SVG Export Plug-In . SVG Version: 6.00 Build 0)  -->
<svg version="1.1" xmlns="http://www.w3.org/2000/svg" xmlns:xlink="http://www.w3.org/1999/xlink" x="0px" y="0px"
	 viewBox="0 0 500 500" style="enable-background:new 0 0 500 500;" xml:space="preserve">
<g id="BACKGROUND">
	<rect style="fill:#FFFFFF;" width="500" height="500"/>
</g>
<g id="OBJECTS">
	<g>
		<g>
			
				<linearGradient id="SVGID_1_" gradientUnits="userSpaceOnUse" x1="361.2359" y1="72.8798" x2="199.9655" y2="450.8267" gradientTransform="matrix(-0.1061 0.9505 -0.7798 -0.1621 507.7231 36.222)">
				<stop  offset="0" style="stop-color:#8887E5"/>
				<stop  offset="1" style="stop-color:#B3D9FE"/>
			</linearGradient>
			<path style="fill:url(#SVGID_1_);" d="M310.852,266.107c-2.729-2.889-5.147-6.249-7.034-10.424
				c-3.892-8.611-4.496-18.758-4.179-28.439c1.227-37.469,1.654-81.88-29.983-102.88c-27.12-18.001-62.172-13.82-89.345-1.267
				c-56.933,26.302-59.174,119.098-7.919,157.993c12.054,9.147,24.994,16.882,35.417,28.704
				c13.005,14.75,21.09,34.708,32.098,51.712c15.358,23.724,38.005,35.612,61.969,29.056c26.146-7.152,53.405-33.937,49.216-70.452
				c-1.507-13.137-7.254-25.642-15.71-34.184C327.776,278.243,318.188,273.873,310.852,266.107z"/>
			
				<linearGradient id="SVGID_00000113343027622064792320000016203222072554622379_" gradientUnits="userSpaceOnUse" x1="145.1438" y1="373.6417" x2="123.6538" y2="303.3106">
				<stop  offset="0" style="stop-color:#8887E5"/>
				<stop  offset="1" style="stop-color:#B3D9FE"/>
			</linearGradient>
			<circle style="fill:url(#SVGID_00000113343027622064792320000016203222072554622379_);" cx="131.848" cy="330.127" r="36.468"/>
			
				<linearGradient id="SVGID_00000160893957057398561880000006016099573764923549_" gradientUnits="userSpaceOnUse" x1="339.696" y1="271.8459" x2="391.6246" y2="159.1705">
				<stop  offset="0" style="stop-color:#8887E5"/>
				<stop  offset="1" style="stop-color:#B3D9FE"/>
			</linearGradient>
			
				<ellipse style="fill:url(#SVGID_00000160893957057398561880000006016099573764923549_);" cx="363.953" cy="219.212" rx="51.53" ry="49.838"/>
		</g>
		<g>
			<g>
				
					<linearGradient id="SVGID_00000016754870024470109730000006487655623968096176_" gradientUnits="userSpaceOnUse" x1="184.5378" y1="339.3905" x2="191.3206" y2="279.5419" gradientTransform="matrix(0.8444 -0.5357 0.5357 0.8444 -132.6456 154.3983)">
					<stop  offset="0" style="stop-color:#00417F"/>
					<stop  offset="1" style="stop-color:#3FDCFF"/>
				</linearGradient>
				<path style="fill:url(#SVGID_00000016754870024470109730000006487655623968096176_);" d="M216.034,338.698
					c-4.361,4.464-19.738-3.485-34.348-17.766c-14.613-14.268-18.57-33.917-18.57-33.917s19.73,3.49,34.348,17.766
					C212.077,319.05,220.388,334.239,216.034,338.698z"/>
				
					<linearGradient id="SVGID_00000018238741013302327720000009965267945109628337_" gradientUnits="userSpaceOnUse" x1="187.0173" y1="273.4116" x2="195.4511" y2="339.3478" gradientTransform="matrix(0.8444 -0.5357 0.5357 0.8444 -132.6456 154.3983)">
					<stop  offset="0" style="stop-color:#00417F"/>
					<stop  offset="1" style="stop-color:#3FDCFF"/>
				</linearGradient>
				<path style="fill:url(#SVGID_00000018238741013302327720000009965267945109628337_);" d="M216.034,338.698l-52.918-51.683
					c0,0,19.73,3.49,34.348,17.766C212.077,319.05,220.388,334.239,216.034,338.698z"/>
			</g>
			<g>
				
					<linearGradient id="SVGID_00000007426262844357476660000004159739806464229771_" gradientUnits="userSpaceOnUse" x1="164.4066" y1="354.7234" x2="171.1082" y2="295.5914" gradientTransform="matrix(0.6117 -0.7911 0.7911 0.6117 -181.102 267.8893)">
					<stop  offset="0" style="stop-color:#00417F"/>
					<stop  offset="1" style="stop-color:#3FDCFF"/>
				</linearGradient>
				<path style="fill:url(#SVGID_00000007426262844357476660000004159739806464229771_);" d="M209.196,347.916
					c-2.551,5.613-19.51,3.399-37.885-4.957c-18.374-8.343-28.657-25.267-28.657-25.267s19.504-3.392,37.885,4.957
					C198.913,330.992,211.742,342.31,209.196,347.916z"/>
				
					<linearGradient id="SVGID_00000053532274621419511450000001743957555920230579_" gradientUnits="userSpaceOnUse" x1="166.8566" y1="289.5345" x2="175.1894" y2="354.6811" gradientTransform="matrix(0.6117 -0.7911 0.7911 0.6117 -181.102 267.8893)">
					<stop  offset="0" style="stop-color:#00417F"/>
					<stop  offset="1" style="stop-color:#3FDCFF"/>
				</linearGradient>
				<path style="fill:url(#SVGID_00000053532274621419511450000001743957555920230579_);" d="M209.196,347.916l-66.542-30.224
					c0,0,19.504-3.392,37.885,4.957C198.913,330.992,211.742,342.31,209.196,347.916z"/>
			</g>
			<g>
				
					<linearGradient id="SVGID_00000023967905370188236540000004282160519757745797_" gradientUnits="userSpaceOnUse" x1="208.3157" y1="357.4589" x2="215.017" y2="298.3297" gradientTransform="matrix(0.5905 -0.042 0.071 0.9975 57.7428 -21.5817)">
					<stop  offset="0" style="stop-color:#00417F"/>
					<stop  offset="1" style="stop-color:#3FDCFF"/>
				</linearGradient>
				<path style="fill:url(#SVGID_00000023967905370188236540000004282160519757745797_);" d="M212.858,328.752
					c-3.443,1.664-9.583-12.706-13.713-32.109c-4.135-19.394-1.257-38.133-1.257-38.133s9.578,12.706,13.713,32.109
					C215.736,310.013,216.295,327.088,212.858,328.752z"/>
				
					<linearGradient id="SVGID_00000082338436983322908390000012586005588053516190_" gradientUnits="userSpaceOnUse" x1="210.7642" y1="292.2725" x2="219.0967" y2="357.4172" gradientTransform="matrix(0.5905 -0.042 0.071 0.9975 57.7428 -21.5817)">
					<stop  offset="0" style="stop-color:#00417F"/>
					<stop  offset="1" style="stop-color:#3FDCFF"/>
				</linearGradient>
				<path style="fill:url(#SVGID_00000082338436983322908390000012586005588053516190_);" d="M212.858,328.752l-14.97-70.242
					c0,0,9.578,12.706,13.713,32.109C215.736,310.013,216.295,327.088,212.858,328.752z"/>
			</g>
			<g>
				
					<linearGradient id="SVGID_00000160179912875400042090000016503812817427645872_" gradientUnits="userSpaceOnUse" x1="185.9327" y1="346.0201" x2="192.7157" y2="286.1696" gradientTransform="matrix(-0.976 -0.2176 -0.2176 0.976 561.5313 51.4252)">
					<stop  offset="0" style="stop-color:#00417F"/>
					<stop  offset="1" style="stop-color:#3FDCFF"/>
				</linearGradient>
				<path style="fill:url(#SVGID_00000160179912875400042090000016503812817427645872_);" d="M293.215,349.205
					c5.617,2.72,17.387-9.972,26.288-28.361c8.908-18.378,5.968-38.204,5.968-38.204s-17.378,9.974-26.288,28.361
					C290.275,329.379,287.608,346.487,293.215,349.205z"/>
				
					<linearGradient id="SVGID_00000122718425161133280040000006556545593734348689_" gradientUnits="userSpaceOnUse" x1="188.4122" y1="280.0391" x2="196.8462" y2="345.9774" gradientTransform="matrix(-0.976 -0.2176 -0.2176 0.976 561.5313 51.4252)">
					<stop  offset="0" style="stop-color:#00417F"/>
					<stop  offset="1" style="stop-color:#3FDCFF"/>
				</linearGradient>
				<path style="fill:url(#SVGID_00000122718425161133280040000006556545593734348689_);" d="M293.215,349.205l32.256-66.566
					c0,0-17.378,9.974-26.288,28.361C290.275,329.379,287.608,346.487,293.215,349.205z"/>
			</g>
			<g>
				
					<linearGradient id="SVGID_00000111173756460084106620000002816973342928339096_" gradientUnits="userSpaceOnUse" x1="162.8063" y1="360.1776" x2="169.5075" y2="301.0486" gradientTransform="matrix(-0.7268 -0.6869 -0.6869 0.7268 667.5667 213.063)">
					<stop  offset="0" style="stop-color:#00417F"/>
					<stop  offset="1" style="stop-color:#3FDCFF"/>
				</linearGradient>
				<path style="fill:url(#SVGID_00000111173756460084106620000002816973342928339096_);" d="M291.765,357.605
					c3.389,5.151,19.801,0.339,36.662-10.759c16.862-11.085,24.402-29.397,24.402-29.397s-19.794-0.333-36.662,10.759
					C299.305,339.294,288.382,352.46,291.765,357.605z"/>
				
					<linearGradient id="SVGID_00000108995938678723573250000002327712775672670893_" gradientUnits="userSpaceOnUse" x1="165.2551" y1="294.9915" x2="173.5876" y2="360.1358" gradientTransform="matrix(-0.7268 -0.6869 -0.6869 0.7268 667.5667 213.063)">
					<stop  offset="0" style="stop-color:#00417F"/>
					<stop  offset="1" style="stop-color:#3FDCFF"/>
				</linearGradient>
				<path style="fill:url(#SVGID_00000108995938678723573250000002327712775672670893_);" d="M291.765,357.605l61.065-40.155
					c0,0-19.794-0.333-36.662,10.759C299.305,339.294,288.382,352.46,291.765,357.605z"/>
			</g>
			<g>
				
					<linearGradient id="SVGID_00000093872501751051661460000016407020967684405896_" gradientUnits="userSpaceOnUse" x1="212.6212" y1="363.4169" x2="219.3229" y2="304.2841" gradientTransform="matrix(-0.5919 -0.0078 -0.0131 0.9999 424.1377 -30.9609)">
					<stop  offset="0" style="stop-color:#00417F"/>
					<stop  offset="1" style="stop-color:#3FDCFF"/>
				</linearGradient>
				<path style="fill:url(#SVGID_00000093872501751051661460000016407020967684405896_);" d="M286.959,333.664
					c3.534,1.462,8.831-13.24,11.83-32.85c3.004-19.601-0.955-38.142-0.955-38.142s-8.826,13.24-11.83,32.85
					C283,315.123,283.431,332.202,286.959,333.664z"/>
				
					<linearGradient id="SVGID_00000174579589134095126860000006170159897628115089_" gradientUnits="userSpaceOnUse" x1="215.0704" y1="298.2268" x2="223.4034" y2="363.3751" gradientTransform="matrix(-0.5919 -0.0078 -0.0131 0.9999 424.1377 -30.9609)">
					<stop  offset="0" style="stop-color:#00417F"/>
					<stop  offset="1" style="stop-color:#3FDCFF"/>
				</linearGradient>
				<path style="fill:url(#SVGID_00000174579589134095126860000006170159897628115089_);" d="M286.959,333.664l10.875-70.991
					c0,0-8.826,13.24-11.83,32.85C283,315.123,283.431,332.202,286.959,333.664z"/>
			</g>
		</g>
		
			<radialGradient id="SVGID_00000166671194673659495850000012823744810246006448_" cx="249.8132" cy="442.089" r="180.742" gradientTransform="matrix(1.0985 0 0 0.1012 -24.4199 405.2119)" gradientUnits="userSpaceOnUse">
			<stop  offset="0.0221" style="stop-color:#000000"/>
			<stop  offset="0.1435" style="stop-color:#202020"/>
			<stop  offset="0.4103" style="stop-color:#707070"/>
			<stop  offset="0.8007" style="stop-color:#F0F0F0"/>
			<stop  offset="0.8451" style="stop-color:#FFFFFF"/>
		</radialGradient>
		
			<ellipse style="opacity:0.4;fill:url(#SVGID_00000166671194673659495850000012823744810246006448_);" cx="250" cy="449.964" rx="201.761" ry="19.598"/>
		<g>
			<g>
				<g>
					
						<linearGradient id="SVGID_00000065069699171545720910000017578215728891482014_" gradientUnits="userSpaceOnUse" x1="302.8772" y1="455.9395" x2="393.9682" y2="379.4573">
						<stop  offset="3.380400e-04" style="stop-color:#E9C300"/>
						<stop  offset="1" style="stop-color:#FFA415"/>
					</linearGradient>
					
						<rect x="301.703" y="377.203" style="fill:url(#SVGID_00000065069699171545720910000017578215728891482014_);" width="96.503" height="78.419"/>
					
						<linearGradient id="SVGID_00000069394988215448417870000011047148123545199498_" gradientUnits="userSpaceOnUse" x1="372.9393" y1="386.5941" x2="340.4457" y2="357.1233" gradientTransform="matrix(-1 0 0 1 706.8978 0)">
						<stop  offset="0" style="stop-color:#AF4500"/>
						<stop  offset="0.9997" style="stop-color:#FF793A"/>
					</linearGradient>
					<polygon style="fill:url(#SVGID_00000069394988215448417870000011047148123545199498_);" points="301.703,377.203 
						398.206,377.203 374.757,366.97 301.703,366.97 					"/>
					<g>
						
							<linearGradient id="SVGID_00000039819528204117836160000007255359888308613051_" gradientUnits="userSpaceOnUse" x1="333.3329" y1="394.413" x2="364.0539" y2="440.3481">
							<stop  offset="3.380400e-04" style="stop-color:#E9C300"/>
							<stop  offset="1" style="stop-color:#FFA415"/>
						</linearGradient>
						
							<circle style="opacity:0.5;fill:url(#SVGID_00000039819528204117836160000007255359888308613051_);" cx="348.081" cy="416.465" r="24.612"/>
						
							<linearGradient id="SVGID_00000158723461680448806850000017205241983582046130_" gradientUnits="userSpaceOnUse" x1="368.4013" y1="436.3778" x2="333.507" y2="390.1664">
							<stop  offset="3.380400e-04" style="stop-color:#E9D04F"/>
							<stop  offset="1" style="stop-color:#FFFFFF"/>
						</linearGradient>
						
							<circle style="fill:url(#SVGID_00000158723461680448806850000017205241983582046130_);" cx="351.091" cy="413.454" r="24.612"/>
						
							<linearGradient id="SVGID_00000104667315047935475150000000782490514046910875_" gradientUnits="userSpaceOnUse" x1="366.0912" y1="433.3185" x2="335.8538" y2="393.2742">
							<stop  offset="0" style="stop-color:#FFFFFF"/>
							<stop  offset="0.9997" style="stop-color:#E9D04F"/>
						</linearGradient>
						
							<circle style="fill:url(#SVGID_00000104667315047935475150000000782490514046910875_);" cx="351.091" cy="413.454" r="21.328"/>
						<g>
							<path style="fill:#8A3F06;" d="M343.712,423.969l1.082-4.821c1.728,0.7,3.334,1.049,4.821,1.049
								c1.793,0,2.689-0.667,2.689-2.001c0-0.94-0.459-1.606-1.377-2c-0.919-0.394-2.45-0.591-4.592-0.591v-4.067
								c1.947,0,3.406-0.197,4.379-0.591c0.972-0.393,1.459-0.951,1.459-1.672c0-0.984-0.841-1.476-2.525-1.476
								c-1.596,0-3.247,0.373-4.952,1.115l-1.28-4.46c2.405-1.181,4.931-1.771,7.577-1.771c2.012,0,3.645,0.481,4.904,1.443
								c1.257,0.962,1.886,2.275,1.886,3.936c0,1.072-0.28,2.045-0.837,2.919c-0.557,0.876-1.307,1.575-2.247,2.1
								c1.246,0.569,2.236,1.345,2.969,2.328c0.732,0.984,1.098,2.078,1.098,3.28c0,1.334-0.355,2.493-1.066,3.477
								c-0.711,0.983-1.705,1.743-2.985,2.28c-1.279,0.535-2.75,0.803-4.411,0.803C347.921,425.248,345.723,424.821,343.712,423.969
								z"/>
						</g>
					</g>
				</g>
				<g>
					
						<linearGradient id="SVGID_00000021810305293808621010000013223549821946195352_" gradientUnits="userSpaceOnUse" x1="204.1027" y1="450.715" x2="294.0745" y2="335.037">
						<stop  offset="3.380400e-04" style="stop-color:#E9C300"/>
						<stop  offset="1" style="stop-color:#FFA415"/>
					</linearGradient>
					
						<rect x="198.297" y="327.787" style="fill:url(#SVGID_00000021810305293808621010000013223549821946195352_);" width="103.407" height="127.835"/>
					
						<linearGradient id="SVGID_00000094620190606874697810000007678726093719190682_" gradientUnits="userSpaceOnUse" x1="209.8171" y1="343.4902" x2="283.1846" y2="313.0504">
						<stop  offset="3.380400e-04" style="stop-color:#E9D04F"/>
						<stop  offset="1" style="stop-color:#FFECA9"/>
					</linearGradient>
					<polygon style="fill:url(#SVGID_00000094620190606874697810000007678726093719190682_);" points="301.703,327.787 
						198.297,327.787 218.293,317.554 281.707,317.554 					"/>
					<g>
						
							<linearGradient id="SVGID_00000085964104102465459240000001913796082550766744_" gradientUnits="userSpaceOnUse" x1="235.1466" y1="342.5725" x2="262.9418" y2="387.9225">
							<stop  offset="3.380400e-04" style="stop-color:#E9C300"/>
							<stop  offset="1" style="stop-color:#FFA415"/>
						</linearGradient>
						
							<circle style="opacity:0.5;fill:url(#SVGID_00000085964104102465459240000001913796082550766744_);" cx="249.617" cy="366.183" r="24.612"/>
						
							<linearGradient id="SVGID_00000065061757411227416870000008492644841664275352_" gradientUnits="userSpaceOnUse" x1="269.938" y1="386.096" x2="235.0436" y2="339.8845">
							<stop  offset="3.380400e-04" style="stop-color:#E9D04F"/>
							<stop  offset="1" style="stop-color:#FFFFFF"/>
						</linearGradient>
						
							<circle style="fill:url(#SVGID_00000065061757411227416870000008492644841664275352_);" cx="252.628" cy="363.172" r="24.612"/>
						
							<linearGradient id="SVGID_00000013915950422190630790000017301230769610437303_" gradientUnits="userSpaceOnUse" x1="267.6279" y1="383.0367" x2="237.3904" y2="342.9923">
							<stop  offset="0" style="stop-color:#FFFFFF"/>
							<stop  offset="0.9997" style="stop-color:#E9D04F"/>
						</linearGradient>
						
							<circle style="fill:url(#SVGID_00000013915950422190630790000017301230769610437303_);" cx="252.628" cy="363.172" r="21.328"/>
						<g>
							<path style="fill:#8A3F06;" d="M245.427,370.222h3.158v-12.521l-3.158,0.225v-4.888c1.102,0,2.294-0.206,3.572-0.62
								c1.278-0.414,2.519-1.021,3.723-1.823h3.948v19.628h3.159v5.527h-14.402V370.222z"/>
						</g>
					</g>
					
						<linearGradient id="SVGID_00000170269185962275438630000015313187448334867365_" gradientUnits="userSpaceOnUse" x1="214.9629" y1="416.4121" x2="318.3695" y2="416.4121" gradientTransform="matrix(-1 0 0 1 516.6662 0)">
						<stop  offset="0" style="stop-color:#F26222"/>
						<stop  offset="1" style="stop-color:#FFEA00"/>
					</linearGradient>
					<polygon style="opacity:0.2;fill:url(#SVGID_00000170269185962275438630000015313187448334867365_);" points="301.703,377.203 
						198.297,436.111 198.297,455.622 301.703,455.622 					"/>
				</g>
				<g>
					
						<linearGradient id="SVGID_00000115503369829382255790000006464823010901629327_" gradientUnits="userSpaceOnUse" x1="103.117" y1="453.5725" x2="193.4774" y2="361.7308">
						<stop  offset="3.380400e-04" style="stop-color:#E9C300"/>
						<stop  offset="1" style="stop-color:#FFA415"/>
					</linearGradient>
					
						<rect x="101.794" y="356.128" style="fill:url(#SVGID_00000115503369829382255790000006464823010901629327_);" width="96.503" height="99.494"/>
					
						<linearGradient id="SVGID_00000023962895558801533460000014068548618937555383_" gradientUnits="userSpaceOnUse" x1="166.0414" y1="365.5195" x2="133.5479" y2="336.0486">
						<stop  offset="0" style="stop-color:#AF4500"/>
						<stop  offset="0.9997" style="stop-color:#FF793A"/>
					</linearGradient>
					<polygon style="fill:url(#SVGID_00000023962895558801533460000014068548618937555383_);" points="198.297,356.128 
						101.794,356.128 125.243,345.895 198.297,345.895 					"/>
					<g>
						
							<linearGradient id="SVGID_00000040544118347078428150000016770683610124217744_" gradientUnits="userSpaceOnUse" x1="133.426" y1="373.6877" x2="164.8126" y2="418.7556">
							<stop  offset="3.380400e-04" style="stop-color:#E9C300"/>
							<stop  offset="1" style="stop-color:#FFA415"/>
						</linearGradient>
						
							<circle style="opacity:0.5;fill:url(#SVGID_00000040544118347078428150000016770683610124217744_);" cx="148.54" cy="395.39" r="24.612"/>
						
							<linearGradient id="SVGID_00000131368972568957662960000014996511780716822944_" gradientUnits="userSpaceOnUse" x1="168.8606" y1="415.3031" x2="133.9663" y2="369.0917">
							<stop  offset="3.380400e-04" style="stop-color:#E9D04F"/>
							<stop  offset="1" style="stop-color:#FFFFFF"/>
						</linearGradient>
						
							<circle style="fill:url(#SVGID_00000131368972568957662960000014996511780716822944_);" cx="151.551" cy="392.379" r="24.612"/>
						
							<linearGradient id="SVGID_00000111169209228903465890000000893993932407304338_" gradientUnits="userSpaceOnUse" x1="166.5505" y1="412.2439" x2="136.313" y2="372.1996">
							<stop  offset="0" style="stop-color:#FFFFFF"/>
							<stop  offset="0.9997" style="stop-color:#E9D04F"/>
						</linearGradient>
						
							<circle style="fill:url(#SVGID_00000111169209228903465890000000893993932407304338_);" cx="151.551" cy="392.379" r="21.328"/>
						<g>
							<path style="fill:#8A3F06;" d="M144.608,398.352c2.58-2.318,4.525-4.286,5.838-5.904c1.312-1.617,1.967-2.962,1.967-4.034
								c0-0.699-0.213-1.235-0.639-1.607c-0.426-0.372-1.001-0.558-1.721-0.558c-1.356,0-2.766,0.427-4.232,1.279l-1.606-4.887
								c1.202-0.612,2.388-1.071,3.559-1.378c1.17-0.306,2.399-0.46,3.69-0.46c1.53,0,2.869,0.301,4.017,0.902
								c1.149,0.602,2.028,1.422,2.64,2.46c0.612,1.039,0.918,2.225,0.918,3.559c0,1.99-0.667,3.843-2,5.559
								c-1.334,1.717-3.346,3.35-6.035,4.903h7.904v4.789h-14.299V398.352z"/>
						</g>
					</g>
					
						<linearGradient id="SVGID_00000150069579053577166590000009911321904796662926_" gradientUnits="userSpaceOnUse" x1="318.3695" y1="416.4121" x2="414.8721" y2="416.4121" gradientTransform="matrix(-1 0 0 1 516.6662 0)">
						<stop  offset="0" style="stop-color:#F26222"/>
						<stop  offset="1" style="stop-color:#FFEA00"/>
					</linearGradient>
					<polygon style="opacity:0.2;fill:url(#SVGID_00000150069579053577166590000009911321904796662926_);" points="198.297,377.203 
						101.794,436.111 101.794,455.622 198.297,455.622 					"/>
				</g>
			</g>
			<g>
				<path style="opacity:0.6;fill:#D17E74;" d="M237.666,323.482c0,1.127-6.632,2.041-14.813,2.041s-14.813-0.914-14.813-2.041
					c0-1.127,6.632-2.041,14.813-2.041S237.666,322.355,237.666,323.482z"/>
				<ellipse style="opacity:0.6;fill:#D17E74;" cx="277.147" cy="322.67" rx="14.813" ry="2.041"/>
			</g>
			<g>
				<path style="fill:#D17E74;" d="M270.727,186.8v1.973c-3.69,1.717-7.355,2.825-10.899,3.495
					c-3.629,0.694-7.124,0.925-10.388,0.852c-3.032-0.061-5.858-0.39-8.403-0.852c-5.236-0.926-9.255-2.411-11.313-3.276v-5.298
					C236.324,186.288,248.928,189.077,270.727,186.8z"/>
				<g>
					<g>
						
							<linearGradient id="SVGID_00000084503792256202966720000007025231714923455368_" gradientUnits="userSpaceOnUse" x1="300.819" y1="32.5465" x2="284.9292" y2="101.8363">
							<stop  offset="0" style="stop-color:#F3B199"/>
							<stop  offset="1" style="stop-color:#DF9386"/>
						</linearGradient>
						<path style="fill:url(#SVGID_00000084503792256202966720000007025231714923455368_);" d="M307.968,38.335
							c0.024,0.207,0.012,0.426-0.036,0.646l-1.522,6.43c-0.134,0.572-0.341,1.132-0.609,1.656l-2.557,4.749l-4.043,29.849
							c-0.767,5.687-2.691,11.143-5.651,16.051l-6.442,10.705l-3.044,5.042c-7.1-2.533-8.902-11.861-8.902-11.861l0.451-0.597
							l5.249-6.929c3.264-4.287,5.663-9.17,7.075-14.37l1.9-6.978l5.687-20.91l-0.049-0.499l-0.098-1.121
							c0-0.889-0.268-1.51-0.718-2.021c-0.463-0.511-1.096-0.913-1.863-1.376c-0.56-0.353-1.084-0.767-1.547-1.242l-0.853-0.877
							c-0.268-0.28-0.402-0.646-0.402-1.011c0-0.329,0.11-0.67,0.341-0.938c0.524-0.597,1.425-0.682,2.034-0.171l2.119,1.778
							l-0.877-3.434c-0.256-1.035-0.317-2.119-0.158-3.179l0.268-1.742c0.353-2.35,2.509-3.97,4.859-3.678l3.946,0.499
							c1.437,0.183,2.716,0.852,3.678,1.827C307.164,35.607,307.809,36.898,307.968,38.335z"/>
						<path style="fill:#D17E74;" d="M297.762,52.839c0,0-3.02,15.564-7.928,19.887l5.687-20.91l-0.049-0.499L297.762,52.839z"/>
						<path style="fill:#D17E74;" d="M287.107,108.42l-3.044,5.042c-7.1-2.533-8.902-11.861-8.902-11.861l0.451-0.597
							C279.873,106.033,284.257,107.799,287.107,108.42z"/>
					</g>
					<g>
						
							<linearGradient id="SVGID_00000072267347515769030310000005593754096284229002_" gradientUnits="userSpaceOnUse" x1="194.1092" y1="37.5023" x2="221.4604" y2="102.6244">
							<stop  offset="0" style="stop-color:#F3B199"/>
							<stop  offset="1" style="stop-color:#DF9386"/>
						</linearGradient>
						<path style="fill:url(#SVGID_00000072267347515769030310000005593754096284229002_);" d="M226.533,102.026v0.012
							c-0.085,0.378-1.778,8.098-11.423,10.181h-0.012l-3.946-6.759l-3.41-5.845c-2.923-4.981-4.908-10.461-5.882-16.16
							l-5.176-30.372l-2.484-4.762c-0.268-0.524-0.475-1.084-0.609-1.656l-1.51-6.43c-0.036-0.146-0.061-0.292-0.061-0.438
							c0-0.073,0-0.134,0.012-0.207c0.317-2.874,2.57-5.164,5.444-5.529l3.946-0.499c2.35-0.292,4.506,1.34,4.859,3.678l0.268,1.741
							c0.158,1.06,0.097,2.143-0.158,3.178l-0.877,3.434l2.119-1.766c0.268-0.231,0.609-0.341,0.938-0.341
							c0.402,0,0.804,0.17,1.096,0.499c0.487,0.572,0.451,1.425-0.061,1.961l-0.852,0.865c-0.463,0.475-0.987,0.901-1.547,1.242
							c-1.522,0.925-2.436,2.582-2.436,4.347v0.682l5.882,19.631v0.012l1.815,6.04c1.741,5.821,4.567,11.265,8.342,16.026
							l4.165,5.261L226.533,102.026z"/>
						<path style="fill:#D17E74;" d="M226.533,102.026v0.012c-0.085,0.378-1.778,8.098-11.423,10.181h-0.012l-3.946-6.759
							c2.509,0.024,9.304-0.036,13.822-5.407L226.533,102.026z"/>
						<path style="fill:#D17E74;" d="M210.653,72.713v0.012c-4.713-2.07-9.548-18.913-9.548-18.913
							c1.924,0.329,3.666-0.731,3.666-0.731L210.653,72.713z"/>
					</g>
				</g>
				<g>
					
						<linearGradient id="SVGID_00000054974431442621979090000001906754891615337622_" gradientUnits="userSpaceOnUse" x1="228.6387" y1="175.6681" x2="269.5224" y2="110.7156">
						<stop  offset="0" style="stop-color:#E23923"/>
						<stop  offset="1" style="stop-color:#F26222"/>
					</linearGradient>
					<path style="fill:url(#SVGID_00000054974431442621979090000001906754891615337622_);" d="M284.062,113.461l-6.43,10.656
						c-0.475,0.792-0.901,1.62-1.279,2.46c-0.682,1.559-1.194,3.191-1.51,4.859c-0.305,1.522-0.438,3.069-0.402,4.628l0.061,3.203
						l0.134,6.43l0.012,0.316l0.207,10.753l0.597,29.471c-1.62,0.207-3.191,0.402-4.725,0.56
						c-21.799,2.277-34.403-0.512-41.004-3.105c-4.408-1.729-6.138-3.386-6.138-3.386l0.694-15.649l0.572-12.885l0.085-1.924
						l0.56-12.763c0.171-3.727-0.597-7.417-2.229-10.753v-0.012c-0.244-0.499-0.499-0.986-0.779-1.461l-7.38-12.641
						c9.645-2.082,11.338-9.803,11.423-10.181l3.617,4.579c2.582,3.251,6.345,5.346,10.461,5.821l2.411,0.28
						c0.183,0.378,0.378,0.743,0.585,1.096v1.766c0,4.469,3.629,8.099,8.098,8.099c2.241,0,4.274-0.901,5.736-2.375
						c1.461-1.461,2.375-3.495,2.375-5.724v-0.609c0.694-0.986,1.315-2.119,1.827-3.349c4.165-0.524,7.964-2.691,10.497-6.052
						l3.02-3.97C275.16,101.6,276.962,110.928,284.062,113.461z"/>
					
						<linearGradient id="SVGID_00000166651713145426604940000001479164421190226322_" gradientUnits="userSpaceOnUse" x1="217.5788" y1="165.8862" x2="278.1936" y2="135.0976">
						<stop  offset="0" style="stop-color:#F9EAF4"/>
						<stop  offset="1" style="stop-color:#FFE1C9"/>
					</linearGradient>
					<path style="fill:url(#SVGID_00000166651713145426604940000001479164421190226322_);" d="M274.441,136.064l0.195,9.633
						c-17.719,13.554-37.618,17.743-50.356,18.961l0.572-12.885c29.325-3.118,45.022-15.612,49.991-20.337
						C274.539,132.958,274.405,134.505,274.441,136.064z"/>
					<path style="opacity:0.6;fill:#D17E74;" d="M238.954,140.484c0,0-4.542,8.135-14.017,9.365l0.56-12.763
						c0.171-3.727-0.597-7.417-2.229-10.753v-0.012l12.41-8.914l-4.733,7.028c-2.414,3.585-3.529,7.888-3.16,12.195l0.744,8.678
						C228.53,145.307,230.552,146.025,238.954,140.484z"/>
					<g>
						<path style="opacity:0.6;fill:#D17E74;" d="M274.648,146.013l0.207,10.753c-13.177,10.059-30.397,8.659-30.397,8.659
							C259.194,161.443,268.852,152.967,274.648,146.013z"/>
						<path style="opacity:0.6;fill:#D17E74;" d="M274.502,139.267c-7.441,2.63-17.013,3.044-20.544,3.105
							c14.565-3.105,22.396-15.795,22.396-15.795c-0.682,1.559-1.194,3.191-1.51,4.859c-0.305,1.522-0.438,3.069-0.402,4.628
							L274.502,139.267z"/>
					</g>
				</g>
				<g>
					<g>
						
							<linearGradient id="SVGID_00000031173084867764788320000014777881650558765450_" gradientUnits="userSpaceOnUse" x1="230.7629" y1="202.0687" x2="234.385" y2="191.2023">
							<stop  offset="0" style="stop-color:#E23923"/>
							<stop  offset="1" style="stop-color:#F26222"/>
						</linearGradient>
						<path style="fill:url(#SVGID_00000031173084867764788320000014777881650558765450_);" d="M229.723,188.992
							c2.058,0.865,6.077,2.35,11.313,3.276c-2.971,14.869-17.451,9.937-17.451,9.937l4.591-13.907
							C228.177,188.298,228.725,188.578,229.723,188.992z"/>
						
							<linearGradient id="SVGID_00000072244796596321921790000001707597794877636017_" gradientUnits="userSpaceOnUse" x1="269.7754" y1="202.2217" x2="265.5605" y2="187.9965">
							<stop  offset="0" style="stop-color:#E23923"/>
							<stop  offset="1" style="stop-color:#F26222"/>
						</linearGradient>
						<path style="fill:url(#SVGID_00000072244796596321921790000001707597794877636017_);" d="M271.738,188.298l4.579,11.995
							c-14.833,5.456-16.489-8.025-16.489-8.025c3.544-0.67,7.21-1.778,10.899-3.495
							C271.068,188.626,271.397,188.468,271.738,188.298z"/>
						
							<linearGradient id="SVGID_00000146499963077710717630000008424848725130511776_" gradientUnits="userSpaceOnUse" x1="215.0976" y1="229.142" x2="245.5185" y2="229.142">
							<stop  offset="0" style="stop-color:#F9EAF4"/>
							<stop  offset="1" style="stop-color:#FFE1C9"/>
						</linearGradient>
						<path style="fill:url(#SVGID_00000146499963077710717630000008424848725130511776_);" d="M245.518,232.431l-1.705,2.399
							c0,0-1.035-0.597-2.777-1.437c-4.859-2.375-15.247-6.747-23.966-5.797c-0.67,0.061-1.327,0.171-1.973,0.304l1.474-4.445
							C217.338,223.456,232.281,223.078,245.518,232.431z"/>
						
							<linearGradient id="SVGID_00000064351896310015173050000005010296873125926281_" gradientUnits="userSpaceOnUse" x1="256.1743" y1="227.7" x2="285.7914" y2="227.7">
							<stop  offset="0" style="stop-color:#F9EAF4"/>
							<stop  offset="1" style="stop-color:#FFE1C9"/>
						</linearGradient>
						<path style="fill:url(#SVGID_00000064351896310015173050000005010296873125926281_);" d="M284.781,225.136
							c-3.422,0.073-14.796,0.804-24.21,6.844c-0.719,0.451-1.425,0.938-2.107,1.461l-2.29-2.789c0,0,11.18-8.695,28.411-8.695
							l1.206,3.166C285.791,225.124,285.426,225.112,284.781,225.136z"/>
						
							<linearGradient id="SVGID_00000055692093780840419350000016698241841980100236_" gradientUnits="userSpaceOnUse" x1="249.3073" y1="233.1127" x2="254.5826" y2="189.9211">
							<stop  offset="0" style="stop-color:#E23923"/>
							<stop  offset="1" style="stop-color:#F26222"/>
						</linearGradient>
						<path style="fill:url(#SVGID_00000055692093780840419350000016698241841980100236_);" d="M284.586,221.956
							c-17.232,0-28.411,8.695-28.411,8.695l-5.029-6.126l-4.774,6.71l-0.852,1.193c-13.238-9.353-28.18-8.975-28.947-8.975
							l7.015-21.251c0,0,14.48,4.932,17.451-9.937c2.545,0.463,5.371,0.792,8.403,0.852c3.264,0.073,6.759-0.158,10.388-0.852
							c0,0,1.656,13.481,16.489,8.025L284.586,221.956z"/>
						<path style="opacity:0.6;fill:#D17E74;" d="M274.819,219.581c-15.564,2.874-18.645,11.07-18.645,11.07l-5.029-6.126
							l-4.774,6.71c-8.634-10.278-22.091-13.603-22.091-13.603c16.27,0,21.701,7.039,22.03,7.477
							c-4.007-8.756-13.505-12.848-13.505-12.848c13.177,1.376,18.34,8.464,18.34,8.464c7.343-9.974,19.582-8.379,19.582-8.379
							c-17.074,3.312-14.553,11.106-14.553,11.106C261.094,219.63,274.186,219.581,274.819,219.581z"/>
						<path style="fill:#51190D;" d="M251.145,224.527c-0.48-1.772-0.588-3.544-0.609-5.316c0.018-1.772,0.126-3.544,0.609-5.316
							c0.483,1.772,0.591,3.544,0.609,5.316C251.733,220.984,251.625,222.756,251.145,224.527z"/>
						<path style="fill:#51190D;" d="M249.44,193.12c0.239,3.382,0.36,6.763,0.453,10.144c0.115,3.382,0.135,6.763,0.151,10.144
							l-0.604-0.604l6.223,0.029l-0.575,0.575c0.029-2.628,0.098-5.257,0.192-7.885c0.07-2.628,0.207-5.257,0.383-7.885
							c0.176,2.628,0.313,5.257,0.383,7.885c0.095,2.628,0.163,5.257,0.192,7.885l0.006,0.573l-0.582,0.003l-6.223,0.029
							l-0.607,0.003l0.003-0.607c0.016-3.381,0.036-6.763,0.151-10.144C249.08,199.883,249.201,196.502,249.44,193.12z"/>
					</g>
					<g>
						<g>
							
								<linearGradient id="SVGID_00000038412616184106832130000011414448321304944010_" gradientUnits="userSpaceOnUse" x1="217.4018" y1="233.881" x2="234.2471" y2="279.9423">
								<stop  offset="0" style="stop-color:#F3B199"/>
								<stop  offset="1" style="stop-color:#DF9386"/>
							</linearGradient>
							<path style="fill:url(#SVGID_00000038412616184106832130000011414448321304944010_);" d="M241.037,233.391l-5.955,11.155
								c-2.29,4.299-4.104,8.817-5.407,13.493c0,0.012,0,0.012,0,0.012c-0.925,3.288-1.583,6.637-1.985,10.035l-2.022,17.098
								c-5.407,1.948-12.945,0.986-12.945,0.986h-0.012l-0.743-23.041c-0.146-4.859,0.219-9.73,1.133-14.504l3.97-21.031
								c5.614-0.609,11.91,0.986,16.989,2.837C236.872,231.443,239.308,232.551,241.037,233.391z"/>
							<path style="fill:#D17E74;" d="M241.037,233.391l-5.955,11.155c-2.29,4.299-4.104,8.817-5.407,13.493
								c-0.134-0.548-3.325-14.589,4.384-27.608C236.872,231.443,239.308,232.551,241.037,233.391z"/>
						</g>
						<g>
							<path style="fill:#FFEA00;" d="M225.668,285.185l-3.045,25.684h-9.109l-0.804-24.697h0.012c0,0,4.64,0.597,9.268-0.097
								C223.245,285.891,224.511,285.611,225.668,285.185z"/>
							<path style="fill:#FFEA00;" d="M225.668,285.185l-3.045,25.684h-2.35c-0.305-9.048,0.986-19.668,1.717-24.795
								C223.245,285.891,224.511,285.611,225.668,285.185z"/>
						</g>
						<g>
							<path style="fill:#FFFFFF;" d="M221.174,323.984l-5.456,2.18c-2.107,0.84-4.36,1.23-6.625,1.133l-9.292-0.39
								c-0.853-0.036-1.498-0.731-1.498-1.559c0-0.097,0-0.195,0.024-0.292c0.085-0.426,0.207-0.84,0.377-1.242
								c0.658-1.583,1.961-2.837,3.605-3.434l0.913-0.329c2.131-0.779,4.031-2.083,5.529-3.787l4.762-5.395h9.109l1.035,8.05
								l0.085,0.706C223.975,321.5,222.916,323.29,221.174,323.984z"/>
							<path style="fill:#CECEC8;" d="M221.174,323.984l-5.456,2.18c-2.107,0.84-4.36,1.23-6.625,1.133l-9.292-0.39
								c-0.853-0.036-1.498-0.731-1.498-1.559c0-0.097,0-0.195,0.024-0.292c0.085-0.426,0.207-0.84,0.377-1.242
								c4.226,1.413,7.916,1.656,10.315,1.595c1.668-0.037,3.3-0.439,4.81-1.157l3.276-1.559c0.95-0.451,1.888-0.889,2.874-1.218
								c1.851-0.621,2.996-1.571,3.678-2.557l0.085,0.706C223.975,321.5,222.916,323.29,221.174,323.984z"/>
						</g>
					</g>
					<g>
						<g>
							
								<linearGradient id="SVGID_00000072987667747756889550000005176603177434430887_" gradientUnits="userSpaceOnUse" x1="283.7669" y1="236.2791" x2="268.5008" y2="276.2867">
								<stop  offset="0" style="stop-color:#F3B199"/>
								<stop  offset="1" style="stop-color:#DF9386"/>
							</linearGradient>
							<path style="fill:url(#SVGID_00000072987667747756889550000005176603177434430887_);" d="M290.309,263.13l-0.743,23.041
								c0,0-7.55,0.962-12.945-0.986l-2.022-17.098c-0.402-3.398-1.06-6.747-1.973-10.035c-1.315-4.676-3.118-9.207-5.419-13.505
								l-6.637-12.568c2.289-1.461,4.689-2.618,7.051-3.52c7.416-2.837,14.565-3.264,17.159-3.325l4.408,23.492
								C290.09,253.4,290.468,258.271,290.309,263.13z"/>
							<path style="fill:#D17E74;" d="M272.627,258.052c-1.315-4.676-3.118-9.207-5.419-13.505l-6.637-12.568
								c2.289-1.461,4.689-2.618,7.051-3.52C270.788,235.4,275.489,248.187,272.627,258.052z"/>
						</g>
						<g>
							<path style="fill:#FFEA00;" d="M289.567,286.171l-0.804,24.697h-9.109l-3.032-25.684c1.608,0.585,3.41,0.913,5.139,1.072
								C285.84,286.646,289.567,286.171,289.567,286.171z"/>
							<path style="fill:#FFEA00;" d="M283.197,310.868h-3.544l-3.032-25.684c1.608,0.585,3.41,0.913,5.139,1.072
								C282.43,291.907,283.465,302.307,283.197,310.868z"/>
						</g>
						<g>
							<path style="fill:#FFFFFF;" d="M303.949,325.058c0.024,0.097,0.024,0.207,0.024,0.304c0,0.816-0.645,1.51-1.498,1.547
								l-9.28,0.39c-2.265,0.098-4.53-0.292-6.637-1.133l-5.444-2.18c-1.754-0.694-2.801-2.484-2.569-4.36l1.108-8.756h9.109
								l4.762,5.395c1.498,1.705,3.41,3.008,5.541,3.787l0.901,0.329C302.025,321.124,303.535,322.902,303.949,325.058z"/>
							<path style="fill:#CECEC8;" d="M281.115,323.984l5.456,2.18c2.107,0.84,4.36,1.23,6.625,1.133l9.292-0.39
								c0.853-0.036,1.498-0.731,1.498-1.559c0-0.097,0-0.195-0.024-0.292c-0.085-0.426-0.207-0.84-0.378-1.242
								c-4.226,1.413-7.916,1.656-10.315,1.595c-1.668-0.037-3.3-0.439-4.81-1.157l-3.276-1.559
								c-0.95-0.451-1.888-0.889-2.874-1.218c-1.851-0.621-2.996-1.571-3.678-2.557l-0.085,0.706
								C278.314,321.5,279.374,323.29,281.115,323.984z"/>
						</g>
					</g>
				</g>
				<g>
					
						<linearGradient id="SVGID_00000116937058960021963320000011825742980432345222_" gradientUnits="userSpaceOnUse" x1="252.5781" y1="132.7853" x2="252.5781" y2="112.5345">
						<stop  offset="0.146" style="stop-color:#A4070E"/>
						<stop  offset="0.3105" style="stop-color:#E23923"/>
						<stop  offset="0.6569" style="stop-color:#A4070E"/>
						<stop  offset="0.9926" style="stop-color:#5E070E"/>
					</linearGradient>
					<path style="fill:url(#SVGID_00000116937058960021963320000011825742980432345222_);" d="M251.672,134.647l-0.228-0.11
						c-13.772-6.648-10.819-21.992-10.788-22.147l1.194,0.243c-0.119,0.589-2.753,14.406,9.89,20.692
						c1.812-0.728,12.833-5.84,11.757-22.169l1.216-0.08c0.63,9.571-2.868,15.443-5.914,18.683
						c-3.312,3.523-6.743,4.753-6.888,4.803L251.672,134.647z"/>
					
						<linearGradient id="SVGID_00000118375094412799088590000014380082723352118943_" gradientUnits="userSpaceOnUse" x1="251.8624" y1="134.093" x2="251.8624" y2="136.7828">
						<stop  offset="0" style="stop-color:#FFC13C"/>
						<stop  offset="0.1445" style="stop-color:#FFAD3C"/>
						<stop  offset="0.414" style="stop-color:#FF8C3C"/>
						<stop  offset="0.6396" style="stop-color:#FF783C"/>
						<stop  offset="0.7923" style="stop-color:#FF713C"/>
					</linearGradient>
					<polygon style="fill:url(#SVGID_00000118375094412799088590000014380082723352118943_);" points="254.518,137.02 253.3,137.02 
						253.3,135.083 250.424,135.083 250.424,137.011 249.207,137.011 249.207,133.866 254.518,133.866 					"/>
					<g>
						
							<linearGradient id="SVGID_00000165234597000747831520000001118754381529255598_" gradientUnits="userSpaceOnUse" x1="243.738" y1="144.368" x2="259.9858" y2="144.368">
							<stop  offset="3.380400e-04" style="stop-color:#F4E336"/>
							<stop  offset="1" style="stop-color:#FFC13C"/>
						</linearGradient>
						
							<circle style="fill:url(#SVGID_00000165234597000747831520000001118754381529255598_);" cx="251.862" cy="144.368" r="8.124"/>
						
							<linearGradient id="SVGID_00000129167256830606440550000008249391174629691019_" gradientUnits="userSpaceOnUse" x1="255.813" y1="138.4727" x2="248.937" y2="148.7321">
							<stop  offset="3.380400e-04" style="stop-color:#F4E336"/>
							<stop  offset="1" style="stop-color:#FFC13C"/>
						</linearGradient>
						<path style="fill:url(#SVGID_00000129167256830606440550000008249391174629691019_);" d="M257.926,144.368
							c0-3.349-2.715-6.065-6.065-6.065c-3.349,0-6.064,2.715-6.064,6.065c0,3.349,2.715,6.065,6.064,6.065
							C255.211,150.433,257.926,147.717,257.926,144.368z"/>
					</g>
				</g>
				<g>
					<path style="fill:#A8544E;" d="M259.815,114.973v0.609c0,2.229-0.913,4.262-2.375,5.724c-1.461,1.474-3.495,2.375-5.736,2.375
						c-4.469,0-8.098-3.629-8.098-8.099v-1.766c2.07,3.544,5.103,5.785,8.476,5.785
						C255.066,119.601,257.782,117.848,259.815,114.973z"/>
					
						<linearGradient id="SVGID_00000068637728171287812050000011492996072813578628_" gradientUnits="userSpaceOnUse" x1="256.9836" y1="92.3632" x2="247.3417" y2="110.7177">
						<stop  offset="0" style="stop-color:#F3B199"/>
						<stop  offset="1" style="stop-color:#DF9386"/>
					</linearGradient>
					<path style="fill:url(#SVGID_00000068637728171287812050000011492996072813578628_);" d="M264.005,97.79
						c-0.341-0.134-0.706-0.207-1.096-0.207c-1.388-7.063-5.711-12.215-10.826-12.215c-5.127,0-9.45,5.151-10.838,12.215
						c-0.39,0-0.755,0.073-1.096,0.207c-0.402,0.158-0.767,0.39-1.084,0.706c-0.56,0.548-0.913,1.327-0.913,2.192
						c0,1.571,1.157,2.85,2.655,3.081c0.171,3.337,0.962,6.418,2.216,8.951c0.183,0.378,0.378,0.743,0.585,1.096
						c2.07,3.544,5.103,5.785,8.476,5.785c2.984,0,5.699-1.754,7.733-4.628c0.694-0.986,1.315-2.119,1.827-3.349
						c0.962-2.302,1.571-4.981,1.717-7.855c0.67-0.097,1.279-0.426,1.729-0.889c0.572-0.548,0.913-1.327,0.913-2.192
						C266.002,99.373,265.174,98.229,264.005,97.79z"/>
					<path style="fill:#51190D;" d="M261.508,86.294c0.536-7.94-6.771-8.098-8.878-7.989c-0.365,0.024-0.743,0.024-1.108,0
						c-2.107-0.11-9.414,0.049-8.878,7.989c0,0-5.638,6.26-2.497,11.496c0.061,0.098,0.122,0.207,0.195,0.304
						c0,0,1.425,1.035,1.425,3.166l1.254-0.438l-0.499-4.031c-0.085-0.718,0.097-1.425,0.499-2.021l1.145-1.656
						c0.39-0.56,0.536-1.242,0.414-1.912c-0.012-0.085-0.024-0.158-0.024-0.231c0-0.56,0.329-1.072,0.84-1.291l4.226-1.814
						c1.571-0.682,3.349-0.682,4.908,0l4.226,1.814c0.585,0.256,0.925,0.889,0.816,1.522c-0.024,0.158-0.037,0.305-0.037,0.463
						c0,0.511,0.146,1.023,0.451,1.449l1.145,1.656c0.414,0.597,0.585,1.303,0.499,2.021l-0.487,4.031l1.242,0.438
						c0-2.131,1.425-3.166,1.425-3.166c0.073-0.097,0.134-0.207,0.195-0.304C267.147,92.554,261.508,86.294,261.508,86.294z"/>
					<path style="fill:#51190D;" d="M263.354,103.767l-2.216-2.949l-1.562,4.534c-0.489,1.418-1.979,2.257-3.432,1.886
						c-1.122-0.287-2.537-0.537-4.067-0.537s-2.945,0.25-4.067,0.537c-1.453,0.372-2.943-0.468-3.432-1.886l-1.562-4.534
						l-2.216,2.949c-0.252,5.626,0.763,9.57,2.276,12.335c3.826,6.994,14.176,6.994,18.001,0
						C262.59,113.338,263.605,109.393,263.354,103.767z M252.077,115.543c-2.751,0-4.981-1.532-4.981-3.422
						c0-1.89,2.23-3.422,4.981-3.422s4.981,1.532,4.981,3.422C257.058,114.01,254.828,115.543,252.077,115.543z"/>
				</g>
			</g>
		</g>
	</g>
</g>
</svg>
