<?xml version="1.0" encoding="utf-8"?>
<!-- Generator: Adobe Illustrator 27.5.0, SVG Export Plug-In . SVG Version: 6.00 Build 0)  -->
<svg version="1.1" xmlns="http://www.w3.org/2000/svg" xmlns:xlink="http://www.w3.org/1999/xlink" x="0px" y="0px"
	 viewBox="0 0 500 500" style="enable-background:new 0 0 500 500;" xml:space="preserve">
<g id="Floor">
	<ellipse id="Floor_3_" style="fill:#F5F5F5;" cx="250" cy="318.02" rx="233.567" ry="142.978"/>
</g>
<g id="Shadows">
	<path id="Shadow_5_" style="fill:#E0E0E0;" d="M252.428,190.382c-7.342,4.287-7.342,11.237,0,15.524
		c7.343,4.287,19.247,4.287,26.589,0c7.342-4.286,7.342-11.237,0-15.523C271.674,186.096,259.77,186.096,252.428,190.382z"/>
	<path id="Shadow_4_" style="fill:#E0E0E0;" d="M52.256,274.912c7.121,5.002,17.04,8.292,25.858,7.584
		c2.282-0.183,4.732-0.716,6.218-2.457c1.598-1.871,1.642-4.601,2.747-6.8c1.57-3.125,5.454-5.397,8.623-6.587
		c3.629-1.363,7.577-1.54,11.4-1.863c6.086-0.514,12.201-0.335,18.301-0.34c5.11-0.004,10.241-0.11,15.307-0.849
		c4.288-0.626,9.412-1.314,12.911-4.07c1.438-1.132,2.668-2.929,2.18-4.694c-0.386-1.395-1.712-2.296-2.981-2.992
		c-6.144-3.37-13.227-4.79-20.029-6.193c-7.63-1.574-15.364-2.575-23.105-3.421c-8.315-0.909-16.709-1.404-25.02-0.46
		C45.531,246.212,39.868,266.209,52.256,274.912z"/>
	<path id="Shadow_2_" style="fill:#E0E0E0;" d="M423.52,392.515c6.424-0.878,12.784-2.286,18.921-4.391
		c5.221-1.791,10.997-4.569,14.313-9.186c1.931-2.688,2.902-6.115,2.371-9.382c-1.275-7.858-10.391-10.823-17.177-11.863
		c-3.838-0.588-7.699-0.163-11.508-0.616c-1.372-0.163-3.17-0.835-4.305,0.343c-0.017,0.018-0.034,0.036-0.051,0.055
		c-0.46,0.51-0.591,1.231-0.649,1.916c-0.068,0.811-0.059,1.628,0.027,2.437c0.073,0.688,0.201,1.374,0.176,2.065
		c-0.101,2.747-2.207,3.785-4.403,4.691c-2.858,1.179-5.834,2.067-8.873,2.637c-2.364,0.443-4.741,0.746-7.121,1.051
		c-2.439,0.313-4.878,0.945-7.299,1.398c-4.969,0.93-9.954,1.78-14.95,2.55c-2.533,0.391-5.139,1.005-7.682,1.064
		c-2.803,0.065-5.588,0.404-8.316,1.063c-3.677,0.888-2.637,4.924-0.345,6.852c2.129,1.791,4.837,2.72,7.503,3.515
		C390.089,393.469,407.044,394.766,423.52,392.515z"/>
	<polygon id="Shadow_1_" style="fill:#E0E0E0;" points="395.625,362.159 276.682,430.831 83.799,319.47 202.743,250.798 	"/>
</g>
<g id="Plant">
	<g id="Plant_2_">
		<g id="Pot_1_">
			<g id="Pot_2_">
				<g id="XMLID_372_">
					<g id="XMLID_386_">
						<g id="XMLID_395_">
							<g id="XMLID_464_">
								<path id="XMLID_465_" style="fill:#EBEBEB;" d="M277.514,197.869c6.307-6.508,10.012-32.993,3.86-38.155h-31.3
									c-6.15,5.16-2.45,31.637,3.854,38.149c0.054,0.061,0.116,0.119,0.173,0.179c0.072,0.072,0.144,0.145,0.217,0.215
									c0.178,0.174,0.367,0.345,0.57,0.513c0.05,0.042,0.101,0.079,0.151,0.12c0.154,0.122,0.307,0.245,0.476,0.364
									c0.269,0.193,0.54,0.372,0.815,0.527c5.188,3.029,13.6,3.029,18.787,0l0,0l0.001,0c0.277-0.156,0.55-0.337,0.821-0.531
									c0.157-0.11,0.298-0.225,0.443-0.339c0.062-0.05,0.125-0.096,0.186-0.148c0.196-0.162,0.378-0.327,0.55-0.495
									c0.084-0.08,0.168-0.164,0.251-0.248C277.416,197.969,277.468,197.92,277.514,197.869z"/>
							</g>
							<g id="XMLID_460_">
								<path id="XMLID_461_" style="fill:#F5F5F5;" d="M252.791,157.635c-7.142,4.17-7.142,10.93,0,15.1
									c7.142,4.17,18.721,4.17,25.863,0c7.141-4.169,7.141-10.93,0-15.1C271.512,153.465,259.933,153.465,252.791,157.635z"/>
							</g>
							<g id="XMLID_411_">
								<path id="XMLID_459_" style="fill:#E0E0E0;" d="M256.226,159.641c-5.245,3.062-5.245,8.027,0,11.089
									c5.245,3.062,13.748,3.062,18.993,0c5.245-3.062,5.245-8.027,0-11.089C269.974,156.579,261.471,156.579,256.226,159.641z"/>
							</g>
							<g id="XMLID_401_">
								<path id="XMLID_410_" style="fill:#FAFAFA;" d="M275.219,164.904c-5.245-3.062-13.748-3.062-18.993,0
									c-1.457,0.851-2.494,1.85-3.141,2.913c0.648,1.063,1.685,2.062,3.141,2.913c5.245,3.062,13.748,3.062,18.993,0
									c1.457-0.851,2.494-1.85,3.142-2.913C277.713,166.754,276.676,165.754,275.219,164.904z"/>
							</g>
						</g>
					</g>
				</g>
			</g>
			<g id="Plants_1_">
				<g id="XMLID_370_">
					<path style="fill:#F0F0F0;" d="M256.728,117.534l8.421,8.69l-8.54-5.392c0,0-0.666,4.559,0.447,8.82
						c0,0,4.126,3.259,6.418,5.949l-6.608-3.67c0,0-1.081,4.531-0.092,11.79c0.259,1.901,1.86,5.676,2.819,8.466
						c0.432,1.265,0.947,2.525,1.565,3.762c0.033,0.078,0.073,0.152,0.112,0.231c1.714-0.701,3.487-1.369,5.317-1.998
						c1.43-2.21,3.656-7.837,4.811-12.534c4.405-17.981-8.016-30.251-18.646-35.215
						C252.751,106.433,255.933,111.712,256.728,117.534z"/>
					<path style="fill:#FFFFFF;" d="M264.488,119.33c1.665,2.181,2.455,4.87,2.982,7.522c0.516,2.671,0.706,5.399,0.631,8.113
						c-0.144,5.427-1.481,10.837-4.073,15.581l-0.003,0.006c-0.07,0.129-0.023,0.291,0.106,0.362
						c0.129,0.071,0.291,0.023,0.362-0.106c0-0.001,0.002-0.003,0.002-0.004c2.563-4.878,3.816-10.366,3.873-15.832
						c0.031-2.734-0.205-5.472-0.767-8.146C267.028,124.173,266.19,121.485,264.488,119.33z"/>
				</g>
				<g>
					<path style="fill:#F5F5F5;" d="M293.823,124.517c0,0-0.004,0.007-0.013,0.016c-0.196,0.339-3.412,5.905-7.789,16.403
						l-9.78,3.402l7.654-0.017l-2.869,7.02l-9.544,3.803l7.959-0.111c0,0-0.812,7.93-5.792,12.058
						c-2.749,2.279-4.068,2.555-5.269,2.098c-1.467-0.558-2.482-2.613-3.589-5.75c-1.107-3.137-1.139-9.864,0.788-16.744
						c0.512-1.83,1.318-3.575,2.346-5.222C273.81,132.014,286.959,125.629,293.823,124.517z"/>
					<path style="fill:#FFFFFF;" d="M283.874,129.675c-4.801,3.205-9.173,7.21-12.291,12.15c-1.573,2.45-2.79,5.142-3.534,7.967
						c-0.709,2.832-0.972,5.77-0.726,8.66c0.001,0.016,0.015,0.027,0.031,0.026c0.014-0.001,0.025-0.014,0.026-0.028
						c0.079-2.893,0.423-5.756,1.216-8.51c0.747-2.761,1.902-5.411,3.373-7.876c2.988-4.923,7.234-9.006,11.938-12.341
						c0.013-0.009,0.016-0.026,0.007-0.039C283.905,129.669,283.887,129.666,283.874,129.675z"/>
				</g>
				<path style="fill:#F0F0F0;" d="M231.282,127.932L231.282,127.932c0.904-0.02,1.925,0.027,3.034,0.14
					c3.326,0.338,7.446,1.274,11.605,2.824c1.387,0.517,2.778,1.101,4.145,1.755c0.684,0.327,1.362,0.671,2.03,1.032
					c3.343,1.806,6.452,4.044,8.891,6.723c1.206,1.32,2.235,2.758,3.061,4.301c0.107,0.201,0.224,0.397,0.325,0.602
					c0.001,0.001,0.001,0.003,0.002,0.004c0.259,0.53,0.491,1.05,0.711,1.566c2.564,5.796,2.78,9.819,2.619,14.28
					c-0.125,3.46-1.302,7.416-1.975,8.065c-0.092,0.089-0.194,0.161-0.301,0.224c-0.986,0.629-2.555,0.262-5.488-1.378
					c-5.877-3.286-8.184-11.611-8.184-11.611l8.169-1.387l-10.487-2.093l-4.26-6.645l7.838-1.426l-10.653-1.638
					c-6.46-9.921-10.801-15.012-11.066-15.322C231.286,127.939,231.281,127.932,231.282,127.932L231.282,127.932z"/>
				<path style="fill:#E6E6E6;" d="M234.315,128.072c3.326,0.338,7.446,1.274,11.605,2.824c1.387,0.517,2.778,1.101,4.145,1.755
					c0.684,0.327,1.362,0.671,2.03,1.032c3.343,1.806,6.452,4.044,8.891,6.723c1.206,1.32,2.235,2.758,3.061,4.301
					c0.107,0.201,0.224,0.397,0.325,0.602c0.001,0.001,0.001,0.003,0.002,0.004c0.259,0.53,0.491,1.05,0.711,1.566
					c2.564,5.796,2.78,9.819,2.619,14.28c-0.125,3.46-1.302,7.416-1.975,8.065c-0.092,0.089-0.194,0.161-0.301,0.224
					c-0.189,0.121-0.409,0.193-0.647,0.238c0.724-5.365-1.914-18.968-5.91-24.563c-4.157-5.821-14.018-14.263-27.574-17.175
					l0.011-0.014C232.207,127.915,233.217,127.96,234.315,128.072z"/>
				<path style="fill:#FFFFFF;" d="M264.815,169.687c0.289-3.962-0.033-7.957-0.77-11.865c-0.786-3.894-1.97-7.75-3.936-11.252
					c-2.008-3.501-4.895-6.363-7.966-8.896c-3.131-2.475-6.56-4.578-10.222-6.126c-0.017-0.007-0.036,0.001-0.044,0.018
					c-0.007,0.016,0,0.034,0.015,0.042c3.487,1.888,6.812,4.046,9.828,6.583c1.524,1.246,2.983,2.575,4.318,4.018
					c1.351,1.427,2.616,2.944,3.609,4.63c1.981,3.391,3.227,7.197,4.07,11.049c0.82,3.864,1.23,7.834,1.031,11.794
					c-0.001,0.018,0.013,0.034,0.031,0.035C264.798,169.719,264.813,169.706,264.815,169.687z"/>
			</g>
		</g>
	</g>
</g>
<g id="Match_Score_1_">
	<g id="Match_Score_2_">
		<g>
			<polygon style="fill:#EBEBEB;" points="316.13,54.552 405.579,106.195 405.579,147.51 316.13,95.867 			"/>
			<polygon style="fill:#FAFAFA;" points="316.13,54.552 319.708,52.486 409.157,104.13 405.579,106.195 			"/>
			<polygon style="fill:#E0E0E0;" points="409.157,104.13 409.157,145.445 405.579,147.51 405.579,106.195 			"/>
		</g>
		<g>
			<g>
				<polygon style="fill:#FAFAFA;" points="344.754,100.879 344.754,88.484 376.956,107.076 376.955,119.47 				"/>
				<g>
					<path style="fill:#E0E0E0;" d="M353.242,103.186l-1.288-0.743c-0.354-0.205-0.659-0.575-0.91-1.106
						c-0.251-0.532-0.377-1.072-0.377-1.619v-3.964c0-0.547,0.126-0.941,0.377-1.184c0.251-0.243,0.556-0.26,0.91-0.055l1.288,0.743
						c0.355,0.205,0.658,0.575,0.91,1.106c0.251,0.532,0.378,1.072,0.378,1.619v3.964c0,0.547-0.126,0.941-0.378,1.184
						C353.9,103.374,353.597,103.391,353.242,103.186z M351.954,101.452l1.288,0.743c0.104,0.06,0.206,0.077,0.307,0.053
						l-2.238-6.037v3.878c0,0.273,0.064,0.544,0.189,0.809C351.625,101.167,351.777,101.349,351.954,101.452z M353.242,96.25
						l-1.288-0.743c-0.107-0.062-0.209-0.079-0.306-0.053l2.238,6.038v-3.88c0-0.273-0.064-0.544-0.189-0.809
						C353.571,96.537,353.42,96.353,353.242,96.25z"/>
					<path style="fill:#E0E0E0;" d="M358.391,106.159l-1.288-0.743c-0.354-0.205-0.659-0.575-0.91-1.106
						c-0.251-0.532-0.377-1.072-0.377-1.619v-3.964c0-0.547,0.126-0.941,0.377-1.184c0.251-0.243,0.556-0.26,0.91-0.055l1.288,0.743
						c0.355,0.205,0.658,0.575,0.91,1.106c0.251,0.532,0.378,1.072,0.378,1.619v3.964c0,0.547-0.126,0.941-0.378,1.184
						C359.049,106.347,358.746,106.364,358.391,106.159z M357.103,104.425l1.288,0.743c0.104,0.06,0.206,0.077,0.307,0.053
						l-2.238-6.037v3.878c0,0.273,0.064,0.544,0.189,0.809C356.775,104.14,356.926,104.322,357.103,104.425z M358.391,99.223
						l-1.288-0.743c-0.107-0.062-0.21-0.079-0.306-0.053l2.238,6.039v-3.88c0-0.273-0.064-0.544-0.189-0.809
						C358.72,99.51,358.569,99.326,358.391,99.223z"/>
					<path style="fill:#E0E0E0;" d="M360.589,104.225c0-0.294,0.129-0.425,0.31-0.322c0.18,0.103,0.298,0.379,0.303,0.674
						c0,0.277-0.118,0.423-0.308,0.313C360.712,104.788,360.589,104.502,360.589,104.225z M360.589,107.024
						c0-0.294,0.129-0.425,0.31-0.322c0.18,0.103,0.298,0.379,0.303,0.674c0,0.277-0.118,0.423-0.308,0.313
						C360.712,107.587,360.589,107.301,360.589,107.024z"/>
					<path style="fill:#E0E0E0;" d="M364.606,106.775l-1.287-0.743c-0.178-0.103-0.33-0.095-0.456,0.028
						c-0.126,0.12-0.188,0.318-0.188,0.592v0.743c0,0.067,0.016,0.134,0.047,0.201c0.033,0.067,0.071,0.113,0.114,0.139l2.741,1.581
						c0.087,0.052,0.163,0.143,0.226,0.279c0.064,0.134,0.096,0.27,0.096,0.406c0,0.138-0.032,0.236-0.096,0.294
						c-0.064,0.059-0.139,0.064-0.226,0.012l-3.223-1.86c-0.087-0.052-0.163-0.141-0.226-0.273
						c-0.064-0.132-0.095-0.268-0.095-0.408v-1.486c0-0.547,0.126-0.943,0.377-1.184c0.252-0.243,0.555-0.262,0.911-0.055
						l1.287,0.743c0.177,0.101,0.33,0.093,0.458-0.028c0.127-0.119,0.191-0.317,0.191-0.59v-0.991c0-0.274-0.063-0.544-0.189-0.809
						c-0.126-0.267-0.279-0.452-0.459-0.556l-1.287-0.743c-0.178-0.103-0.33-0.095-0.456,0.027
						c-0.126,0.121-0.188,0.318-0.188,0.592c0,0.139-0.031,0.239-0.093,0.298c-0.062,0.06-0.138,0.064-0.226,0.014
						c-0.09-0.052-0.165-0.143-0.229-0.275c-0.064-0.132-0.095-0.268-0.095-0.408c0-0.547,0.126-0.943,0.377-1.184
						c0.252-0.243,0.555-0.262,0.911-0.055l1.287,0.743c0.359,0.207,0.664,0.576,0.915,1.108c0.251,0.533,0.377,1.072,0.377,1.619
						v0.991c0,0.547-0.126,0.943-0.377,1.184C365.27,106.964,364.964,106.981,364.606,106.775z"/>
					<path style="fill:#E0E0E0;" d="M371.042,110.987v0.495c0,0.547-0.126,0.941-0.377,1.183c-0.251,0.241-0.555,0.26-0.91,0.055
						l-1.287-0.743c-0.356-0.206-0.659-0.575-0.911-1.106c-0.251-0.533-0.377-1.072-0.377-1.619v-0.495
						c0-0.289,0.039-0.54,0.115-0.755c0.077-0.213,0.185-0.373,0.322-0.48c-0.137-0.265-0.245-0.549-0.322-0.852
						c-0.077-0.301-0.115-0.597-0.115-0.886v-0.496c0-0.547,0.126-0.943,0.377-1.184c0.252-0.243,0.555-0.262,0.911-0.055
						l1.287,0.743c0.355,0.205,0.659,0.573,0.91,1.106c0.251,0.532,0.377,1.072,0.377,1.619v0.495c0,0.289-0.039,0.538-0.118,0.752
						c-0.079,0.213-0.185,0.373-0.319,0.482c0.134,0.263,0.24,0.547,0.319,0.85C371.002,110.4,371.042,110.698,371.042,110.987z
						 M370.398,107.147c0-0.273-0.063-0.544-0.188-0.81c-0.126-0.267-0.278-0.451-0.455-0.552l-1.287-0.743
						c-0.178-0.103-0.33-0.095-0.456,0.027c-0.125,0.121-0.188,0.318-0.188,0.592v0.495c0,0.274,0.063,0.544,0.188,0.809
						c0.126,0.267,0.278,0.451,0.456,0.554l1.287,0.743c0.177,0.102,0.329,0.093,0.455-0.029c0.125-0.119,0.188-0.316,0.188-0.59
						V107.147z M370.398,110.615c0-0.273-0.063-0.544-0.188-0.81c-0.126-0.267-0.278-0.451-0.455-0.552l-1.287-0.743
						c-0.178-0.103-0.33-0.095-0.456,0.027c-0.125,0.12-0.188,0.318-0.188,0.592v0.495c0,0.274,0.063,0.544,0.188,0.809
						c0.126,0.267,0.278,0.451,0.456,0.554l1.287,0.743c0.177,0.102,0.329,0.093,0.455-0.029c0.125-0.119,0.188-0.316,0.188-0.59
						V110.615z"/>
				</g>
			</g>
			<g>
				<g>
					<polygon style="fill:#FAFAFA;" points="319.707,61.63 341.176,74.024 341.175,98.813 319.708,86.419 					"/>
					<g>
						<path style="fill:#E0E0E0;" d="M327.47,84.59l-1.982-1.145c-0.547-0.316-1.015-0.882-1.402-1.702
							c-0.387-0.82-0.58-1.651-0.58-2.493v-6.103c0-0.842,0.193-1.449,0.58-1.822c0.387-0.373,0.855-0.401,1.402-0.084l1.982,1.144
							c0.547,0.316,1.013,0.882,1.4,1.702c0.387,0.82,0.582,1.651,0.582,2.493v6.103c0,0.842-0.194,1.449-0.582,1.822
							C328.483,84.878,328.017,84.906,327.47,84.59z M325.488,81.919l1.982,1.145c0.16,0.092,0.317,0.12,0.471,0.083l-3.444-9.296
							v5.971c0,0.421,0.096,0.836,0.29,1.246C324.98,81.478,325.214,81.762,325.488,81.919z M327.47,73.911l-1.982-1.144
							c-0.165-0.095-0.324-0.123-0.473-0.083l3.446,9.295v-5.971c0-0.421-0.096-0.836-0.291-1.247
							C327.976,74.352,327.743,74.068,327.47,73.911z"/>
						<path style="fill:#E0E0E0;" d="M335.397,84.589l-1.982-1.144c-0.273-0.157-0.508-0.144-0.701,0.043
							c-0.193,0.186-0.29,0.489-0.29,0.911v1.144c0,0.103,0.024,0.207,0.073,0.311c0.049,0.105,0.108,0.175,0.175,0.213l4.218,2.436
							c0.134,0.077,0.25,0.22,0.349,0.428c0.098,0.207,0.146,0.416,0.146,0.627c0,0.211-0.048,0.361-0.146,0.452
							c-0.099,0.09-0.215,0.096-0.349,0.019l-4.962-2.864c-0.134-0.077-0.251-0.219-0.349-0.421
							c-0.098-0.204-0.146-0.413-0.146-0.628v-2.288c0-0.842,0.193-1.449,0.58-1.822c0.387-0.373,0.855-0.401,1.402-0.085
							l1.982,1.145c0.273,0.157,0.508,0.144,0.704-0.041c0.196-0.185,0.294-0.487,0.294-0.908v-1.526
							c0-0.421-0.096-0.836-0.29-1.246c-0.194-0.41-0.429-0.694-0.708-0.856l-1.982-1.144c-0.273-0.157-0.508-0.144-0.701,0.042
							c-0.193,0.187-0.29,0.49-0.29,0.911c0,0.215-0.048,0.368-0.144,0.46c-0.095,0.092-0.211,0.098-0.348,0.019
							c-0.137-0.078-0.255-0.219-0.353-0.423c-0.098-0.204-0.146-0.413-0.146-0.628c0-0.842,0.193-1.449,0.58-1.822
							c0.387-0.372,0.855-0.401,1.402-0.085l1.982,1.144c0.552,0.319,1.022,0.888,1.409,1.708c0.387,0.82,0.58,1.651,0.58,2.493
							v1.526c0,0.842-0.193,1.449-0.58,1.822C336.419,84.882,335.949,84.908,335.397,84.589z"/>
					</g>
				</g>
				<path style="opacity:0.15;" d="M324.239,93.167l12.406,7.162c0.527,0.304,0.953,1.013,0.953,1.583
					c0,0.57-0.427,0.786-0.954,0.482l-12.405-7.162c-0.527-0.304-0.953-1.013-0.953-1.583
					C323.285,93.078,323.712,92.863,324.239,93.167z"/>
			</g>
			<g>
				<g>
					<polygon style="fill:#FAFAFA;" points="380.533,96.747 402.001,109.142 402.001,133.931 380.534,121.536 					"/>
					<g>
						<path style="fill:#E0E0E0;" d="M388.295,119.707l-1.982-1.144c-0.547-0.317-1.015-0.883-1.402-1.703
							c-0.387-0.819-0.58-1.65-0.58-2.493v-6.102c0-0.843,0.193-1.45,0.58-1.822c0.387-0.373,0.855-0.401,1.402-0.084l1.982,1.144
							c0.547,0.315,1.013,0.883,1.4,1.701c0.387,0.821,0.582,1.652,0.582,2.493v6.104c0,0.841-0.194,1.448-0.582,1.822
							C389.308,119.996,388.842,120.024,388.295,119.707z M386.313,117.037l1.982,1.144c0.16,0.093,0.317,0.12,0.471,0.083
							l-3.444-9.295v5.971c0,0.421,0.096,0.836,0.29,1.245C385.806,116.595,386.04,116.879,386.313,117.037z M388.295,109.029
							l-1.982-1.144c-0.165-0.096-0.323-0.124-0.473-0.083l3.446,9.295v-5.971c0-0.421-0.096-0.836-0.291-1.247
							C388.802,109.469,388.569,109.185,388.295,109.029z"/>
						<path style="fill:#E0E0E0;" d="M398.204,121.615v0.762c0,0.843-0.194,1.45-0.582,1.822c-0.387,0.373-0.853,0.401-1.4,0.086
							l-1.982-1.146c-0.547-0.315-1.015-0.883-1.402-1.701c-0.387-0.821-0.58-1.651-0.58-2.493c0-0.206,0.046-0.358,0.143-0.454
							c0.095-0.096,0.212-0.105,0.348-0.026c0.137,0.079,0.254,0.224,0.352,0.43c0.098,0.208,0.148,0.415,0.148,0.621
							c0,0.422,0.096,0.836,0.29,1.247c0.193,0.41,0.427,0.693,0.701,0.85l1.982,1.146c0.273,0.157,0.506,0.143,0.7-0.043
							c0.194-0.186,0.29-0.49,0.29-0.91v-0.764c0-0.421-0.096-0.836-0.29-1.245c-0.194-0.409-0.427-0.695-0.7-0.852l-0.495-0.287
							c-0.139-0.079-0.258-0.22-0.353-0.423c-0.095-0.201-0.143-0.408-0.143-0.619c0-0.21,0.047-0.363,0.143-0.459
							c0.095-0.095,0.213-0.103,0.353-0.022l0.495,0.285c0.273,0.158,0.506,0.145,0.7-0.043c0.194-0.186,0.29-0.489,0.29-0.91
							v-0.764c0-0.42-0.096-0.836-0.29-1.246c-0.194-0.409-0.427-0.693-0.7-0.852l-1.982-1.144
							c-0.274-0.158-0.508-0.144-0.701,0.041c-0.194,0.188-0.29,0.49-0.29,0.912c0,0.215-0.05,0.367-0.148,0.458
							c-0.098,0.091-0.215,0.096-0.352,0.017c-0.137-0.079-0.253-0.22-0.348-0.421c-0.096-0.203-0.143-0.411-0.143-0.626
							c0-0.841,0.193-1.449,0.58-1.822c0.387-0.372,0.855-0.401,1.402-0.084l1.982,1.144c0.547,0.317,1.013,0.883,1.4,1.703
							c0.387,0.819,0.582,1.65,0.582,2.493v0.762c0,0.446-0.061,0.831-0.182,1.16c-0.121,0.327-0.285,0.573-0.492,0.742
							c0.206,0.404,0.371,0.84,0.492,1.307C398.143,120.714,398.204,121.169,398.204,121.615z"/>
					</g>
				</g>
				<path style="opacity:0.15;" d="M385.064,128.292l12.406,7.162c0.527,0.304,0.953,1.013,0.953,1.583
					c0,0.57-0.427,0.786-0.954,0.482l-12.405-7.162c-0.527-0.304-0.953-1.013-0.953-1.583
					C384.111,128.204,384.538,127.988,385.064,128.292z"/>
			</g>
			<g>
				<path style="fill:#FFFFFF;" d="M354.731,83.617c0.266,0.153,0.5,0.344,0.702,0.571c0.201,0.225,0.371,0.461,0.505,0.704
					c0.135,0.241,0.237,0.483,0.307,0.721c0.069,0.239,0.107,0.449,0.115,0.63c0.003,0.076-0.011,0.127-0.045,0.153
					c-0.033,0.026-0.072,0.028-0.115,0.002l-0.416-0.241c-0.068-0.038-0.119-0.088-0.152-0.146
					c-0.033-0.058-0.064-0.131-0.092-0.213c-0.059-0.188-0.15-0.371-0.27-0.556c-0.121-0.182-0.3-0.341-0.538-0.478
					c-0.103-0.06-0.201-0.1-0.294-0.12c-0.093-0.021-0.174-0.019-0.244,0.005c-0.069,0.024-0.124,0.071-0.163,0.139
					c-0.04,0.069-0.059,0.162-0.059,0.277c0,0.141,0.018,0.267,0.057,0.377c0.037,0.11,0.1,0.222,0.189,0.339
					c0.089,0.115,0.207,0.243,0.354,0.382c0.146,0.139,0.329,0.31,0.547,0.507c0.237,0.217,0.442,0.428,0.615,0.635
					c0.173,0.206,0.312,0.415,0.422,0.628c0.108,0.213,0.19,0.432,0.243,0.657c0.053,0.227,0.08,0.465,0.08,0.716
					c0,0.275-0.04,0.507-0.119,0.695c-0.079,0.189-0.193,0.325-0.339,0.41c-0.146,0.082-0.327,0.112-0.541,0.086
					c-0.214-0.026-0.453-0.117-0.719-0.27c-0.223-0.127-0.434-0.291-0.637-0.49c-0.202-0.2-0.381-0.421-0.538-0.668
					c-0.157-0.246-0.282-0.506-0.378-0.781c-0.096-0.275-0.149-0.549-0.161-0.824c-0.003-0.076,0.011-0.127,0.045-0.155
					c0.034-0.026,0.072-0.026,0.116,0l0.415,0.241c0.068,0.038,0.119,0.086,0.155,0.143c0.036,0.057,0.065,0.129,0.09,0.217
					c0.027,0.095,0.061,0.194,0.102,0.296c0.04,0.103,0.093,0.205,0.16,0.303c0.067,0.1,0.151,0.2,0.253,0.298
					c0.102,0.098,0.227,0.191,0.378,0.277c0.119,0.069,0.233,0.122,0.345,0.158c0.111,0.036,0.208,0.046,0.291,0.031
					c0.083-0.016,0.151-0.057,0.203-0.12c0.052-0.065,0.077-0.169,0.077-0.31c0-0.134-0.028-0.258-0.083-0.377
					c-0.055-0.117-0.139-0.239-0.253-0.365c-0.112-0.127-0.252-0.267-0.418-0.416c-0.167-0.151-0.36-0.332-0.577-0.544
					c-0.199-0.188-0.372-0.375-0.52-0.561c-0.148-0.188-0.272-0.382-0.368-0.583c-0.098-0.203-0.17-0.418-0.218-0.643
					c-0.047-0.225-0.071-0.477-0.071-0.75c0-0.275,0.039-0.506,0.119-0.692c0.079-0.186,0.188-0.322,0.327-0.406
					c0.139-0.084,0.305-0.119,0.497-0.103C354.302,83.418,354.509,83.49,354.731,83.617z"/>
				<path style="fill:#FFFFFF;" d="M359.928,91.973c0.043,0.026,0.081,0.071,0.113,0.139c0.032,0.067,0.047,0.134,0.047,0.201v0.65
					c0,0.067-0.015,0.115-0.047,0.146c-0.032,0.029-0.07,0.033-0.113,0.007l-2.611-1.507c-0.044-0.024-0.082-0.07-0.113-0.138
					c-0.033-0.067-0.048-0.134-0.048-0.201v-5.915c0-0.067,0.016-0.115,0.048-0.146c0.031-0.031,0.069-0.033,0.113-0.007
					l2.563,1.479c0.044,0.024,0.081,0.071,0.113,0.138c0.031,0.067,0.047,0.134,0.047,0.201v0.65c0,0.067-0.016,0.115-0.047,0.146
					c-0.033,0.031-0.07,0.033-0.113,0.009l-1.92-1.11v1.455l1.789,1.034c0.044,0.024,0.081,0.071,0.114,0.138
					c0.031,0.067,0.047,0.134,0.047,0.201v0.65c0,0.067-0.016,0.115-0.047,0.146c-0.033,0.031-0.07,0.033-0.114,0.009l-1.789-1.034
					v1.521L359.928,91.973z"/>
				<path style="fill:#FFFFFF;" d="M363.596,88.828c0.043,0.024,0.081,0.071,0.113,0.138s0.047,0.134,0.047,0.201v0.65
					c0,0.067-0.016,0.115-0.047,0.146s-0.07,0.033-0.113,0.009l-1.07-0.619v5.017c0,0.067-0.016,0.117-0.048,0.148
					c-0.032,0.029-0.069,0.033-0.113,0.007l-0.482-0.279c-0.044-0.024-0.082-0.07-0.113-0.137c-0.032-0.067-0.048-0.134-0.048-0.201
					V88.89l-1.07-0.618c-0.043-0.026-0.081-0.071-0.113-0.138c-0.032-0.069-0.047-0.134-0.047-0.201v-0.65
					c0-0.067,0.016-0.117,0.047-0.146c0.032-0.031,0.07-0.034,0.113-0.009L363.596,88.828z"/>
				<path style="fill:#FFFFFF;" d="M368.263,91.522c0.043,0.026,0.081,0.071,0.112,0.138c0.033,0.067,0.048,0.134,0.048,0.201v0.65
					c0,0.067-0.015,0.12-0.045,0.162c-0.029,0.041-0.059,0.076-0.086,0.101l-0.868,0.908c0.178,0.139,0.34,0.301,0.484,0.482
					c0.145,0.181,0.268,0.378,0.372,0.594c0.103,0.215,0.182,0.447,0.237,0.691c0.056,0.246,0.084,0.501,0.084,0.762
					c0,0.318-0.041,0.576-0.122,0.776c-0.082,0.201-0.194,0.346-0.339,0.432c-0.145,0.088-0.315,0.12-0.511,0.098
					c-0.197-0.021-0.409-0.098-0.64-0.232c-0.277-0.16-0.518-0.347-0.723-0.566c-0.204-0.22-0.374-0.447-0.511-0.685
					c-0.136-0.237-0.241-0.478-0.311-0.721c-0.072-0.243-0.113-0.465-0.126-0.668c-0.004-0.076,0.011-0.126,0.045-0.153
					c0.034-0.026,0.072-0.026,0.116,0l0.47,0.27c0.039,0.024,0.072,0.062,0.098,0.117c0.025,0.053,0.052,0.126,0.08,0.215
					c0.024,0.088,0.055,0.174,0.095,0.261c0.039,0.086,0.092,0.174,0.157,0.263c0.065,0.091,0.148,0.179,0.246,0.267
					c0.1,0.088,0.22,0.174,0.363,0.255c0.243,0.141,0.437,0.179,0.586,0.114c0.149-0.062,0.223-0.232,0.223-0.506
					c0-0.275-0.074-0.514-0.223-0.721c-0.149-0.203-0.343-0.375-0.586-0.516l-0.494-0.284c-0.043-0.026-0.081-0.071-0.112-0.139
					c-0.033-0.067-0.048-0.134-0.048-0.201v-0.65c0-0.067,0.016-0.12,0.045-0.162c0.029-0.039,0.059-0.074,0.086-0.102l0.833-0.864
					l-1.641-0.948c-0.044-0.026-0.081-0.07-0.113-0.137c-0.031-0.069-0.047-0.134-0.047-0.201v-0.65
					c0-0.067,0.016-0.117,0.047-0.146c0.033-0.031,0.07-0.035,0.113-0.009L368.263,91.522z"/>
			</g>
		</g>
		<g>
			<path id="XMLID_22_" style="fill:#E0E0E0;" d="M395.238,79.587h2.779v19.23h-0.011c0.034,0.228-0.094,0.462-0.395,0.636
				c-0.543,0.313-1.422,0.313-1.965,0c-0.302-0.174-0.429-0.408-0.396-0.636h-0.012V79.587z"/>
			<path style="fill:#F0F0F0;" d="M398.017,79.587c0,0.422-0.622,0.764-1.389,0.764c-0.767,0-1.389-0.342-1.389-0.764
				s0.622-0.764,1.389-0.764C397.394,78.823,398.017,79.165,398.017,79.587z"/>
		</g>
		<g>
			<path id="XMLID_21_" style="fill:#E0E0E0;" d="M330.834,42.403h2.779v19.23h-0.011c0.034,0.228-0.094,0.462-0.395,0.636
				c-0.543,0.313-1.422,0.313-1.965,0c-0.302-0.174-0.429-0.408-0.396-0.636h-0.012V42.403z"/>
			<path style="fill:#F0F0F0;" d="M333.613,42.403c0,0.422-0.622,0.764-1.389,0.764c-0.767,0-1.389-0.342-1.389-0.764
				c0-0.422,0.622-0.764,1.389-0.764C332.991,41.639,333.613,41.982,333.613,42.403z"/>
		</g>
	</g>
</g>
<g id="Character_2">
	<g id="Character_8_">
		<g id="Bottom_3_">
			<g>
				<path style="fill:#FFBDA7;" d="M66.658,260.127c-0.474-2.236,3.325-5.558,4.784-6.927c4.306-4.042,16.571-14.975,19.393-17.952
					c3.426-3.612,5.502-5.248,6.799-10.999c1.588-7.042,6.64-32.026,6.64-32.026s6.362-6.429,6.329-13.527l-29.718-1.815
					c0,0-0.034,4.264-0.106,13.79c-0.053,7.014-0.866,32.98-0.866,32.98s-3.897,1.948-6.639,5.485
					c-2.022,2.608-6.512,11.014-10.336,17.301c-2.214,3.64-4.91,8.719-6.787,12.349c-1.365,2.64-0.355,3.253,3.114,3.366
					C62.735,262.266,66.658,260.127,66.658,260.127z"/>
				<g>
					<g>
						<path style="fill:#EBEBEB;" d="M80.608,275.095c0.146,0.652,0.116,1.109-2.242,2.114c-2.42,1.032-6.006,1.219-9.126,0.691
							c-3.12-0.529-5.97-3.051-7.382-4.859c-1.412-1.808-4.16-3.408-5.951-4.224c-1.79-0.816-2.481-1.307-2.384-1.882
							c0.097-0.575,0.491-2.101,0.491-2.101L80.608,275.095z"/>
						<path style="fill:#BA68C8;" d="M53.944,262.597c0.284-1.781,1.813-3.042,2.251-4.783c0.074-0.294,0.119-0.604,0.283-0.859
							c0.163-0.255,0.492-0.439,0.771-0.321c0,0-0.338,0.638-0.401,1.069c-0.046,0.313,0.098,0.826,0.299,1.07
							c0.118,0.144,0.27,0.257,0.402,0.389c0.2,0.2,0.356,0.446,0.444,0.715c0.061,0.188,0.091,0.388,0.189,0.559
							c0.098,0.171,0.295,0.309,0.486,0.257c0.116-0.032,0.203-0.125,0.284-0.215c0.307-0.34,0.606-0.87,1.103-0.903
							c0.311-0.02,0.632,0.143,0.97,0.42c-0.147-0.486-0.281-0.935-0.222-1.222c0.065-0.314,0.274-0.452,0.467-0.431
							c2.842,0.32,4.117,0.221,5.505-0.12c1.618-0.398,0.629,0.621,1.308,2.133c0.679,1.512,1.433,2.544,3.013,4.626
							c1.342,1.767,2.23,3.079,3.367,3.902c0.681,0.493,1.558,1.123,2.327,1.597c2.053,1.267,2.77,1.646,3.367,1.973
							c0.596,0.326,0.819,1.652,0.561,2.462c-0.258,0.809-4.654,3.022-9.519,2.258c-4.865-0.764-6.388-2.699-8.216-5.114
							c-1.828-2.415-4.06-3.633-5.3-4.161c-1.241-0.528-2.978-1.216-3.867-2.133C53.814,265.764,53.639,264.506,53.944,262.597z"/>
						<path style="opacity:0.2;" d="M53.944,262.597c0.284-1.781,1.813-3.042,2.251-4.783c0.074-0.294,0.119-0.604,0.283-0.859
							c0.163-0.255,0.492-0.439,0.771-0.321c0,0-0.338,0.638-0.401,1.069c-0.046,0.313,0.098,0.826,0.299,1.07
							c0.118,0.144,0.27,0.257,0.402,0.389c0.2,0.2,0.356,0.446,0.444,0.715c0.061,0.188,0.091,0.388,0.189,0.559
							c0.098,0.171,0.295,0.309,0.486,0.257c0.116-0.032,0.203-0.125,0.284-0.215c0.307-0.34,0.606-0.87,1.103-0.903
							c0.311-0.02,0.632,0.143,0.97,0.42c-0.147-0.486-0.281-0.935-0.222-1.222c0.065-0.314,0.274-0.452,0.467-0.431
							c2.842,0.32,4.117,0.221,5.505-0.12c1.618-0.398,0.629,0.621,1.308,2.133c0.679,1.512,1.433,2.544,3.013,4.626
							c1.342,1.767,2.23,3.079,3.367,3.902c0.681,0.493,1.558,1.123,2.327,1.597c2.053,1.267,2.77,1.646,3.367,1.973
							c0.596,0.326,0.819,1.652,0.561,2.462c-0.258,0.809-4.654,3.022-9.519,2.258c-4.865-0.764-6.388-2.699-8.216-5.114
							c-1.828-2.415-4.06-3.633-5.3-4.161c-1.241-0.528-2.978-1.216-3.867-2.133C53.814,265.764,53.639,264.506,53.944,262.597z"/>
						<path style="fill:#BA68C8;" d="M60.802,258.773c0.065-0.314,0.274-0.452,0.467-0.431c2.842,0.32,4.117,0.221,5.505-0.12
							c1.618-0.398,1.206,0.549,1.837,2.208c0.589,1.549,0.904,2.47,2.484,4.551c1.342,1.767,2.23,3.079,3.367,3.902
							c0.219,0.158,0.461,0.332,0.71,0.509c0,0,0,0,0,0.001c-0.487,0.611-2.646,1.44-4.063,1.403
							c-1.305-0.708-6.004-5.109-10.086-10.801C60.877,259.509,60.743,259.059,60.802,258.773z"/>
						<path style="fill:#455A64;" d="M79.85,273.304c-0.854,0.273-1.789,0.558-1.805,0.885c-0.016,0.327,0.073,2.149-0.356,2.781
							c-0.429,0.632-0.993,0.829-1.819,0.953c-0.826,0.124-4.389,0.358-6.514-0.137s-4.112-1.429-6.072-3.393
							c-1.96-1.964-2.361-2.947-4.871-4.391c-2.511-1.444-3.736-1.782-4.858-2.674c0,0-0.129,0.46-0.146,0.767
							c0,0,0.656,0.622,1.457,0.971c0.801,0.349,3.548,1.49,4.663,2.336c1.115,0.846,2.413,2.293,3.513,3.484
							c1.1,1.191,3.571,2.906,6.331,3.395c2.76,0.489,6.509,0.358,8.902-0.642c2.394-1,2.486-1.504,2.678-1.804
							c0.192-0.3,0.166-2.041,0-2.413C80.786,273.051,80.463,273.108,79.85,273.304z"/>
						<g>
							<path style="fill:#455A64;" d="M69.952,269.925c1.674-1.308,3.041-1.854,3.719-1.723c0,0,0.647,0.266,0.791,0.682
								c0,0-1.321,0.032-3.701,1.72C70.761,270.603,70.035,270.57,69.952,269.925z"/>
							<path style="fill:#455A64;" d="M72.235,266.495c-1.266,0.086-2.73,0.725-4.541,1.93c0,0-0.578-0.041-0.762-0.676
								c0,0,2.346-1.994,4.753-1.985C71.685,265.764,72.246,266.034,72.235,266.495z"/>
							<path style="fill:#455A64;" d="M70.4,264.061c-1.091-0.323-4.082,1.314-4.937,2.2c0,0-0.688,0.038-0.771-0.764
								c0,0,2.339-2.307,5.032-2.356C69.725,263.14,70.503,263.427,70.4,264.061z"/>
							<path style="fill:#455A64;" d="M69.127,261.747c-0.536-0.061-3.778,0.235-5.45,1.92c0,0-0.576-0.169-0.622-0.813
								c0,0,2.4-2.262,5.678-2.103C68.732,260.75,69.018,261.146,69.127,261.747z"/>
						</g>
					</g>
				</g>
			</g>
			<g>
				<path style="fill:#FFBDA7;" d="M126.746,230.492c0.791-6.451,0.891-10.543,1.968-15.749c0.575-2.781,2.023-5.871,4.04-7.758
					l-30.578-12.895l12.37-18.614c7.9,4.09,25.231,13.666,31.543,18.403c5.299,3.977,3.354,9.016,1.128,16.733
					c-1.604,5.559-7.355,17.81-11.069,27.411c-1.549,4.005-0.247,5.613,0.218,7.83c0,0-6.3,2.722-9.274,2.606
					c-2.974-0.116-3.16-2.439-3.16-2.439c-0.117-0.865,0.16-2.081,0.726-2.681C124.659,243.338,126.159,235.278,126.746,230.492z"/>
				<g>
					<g>
						<path style="fill:#EBEBEB;" d="M150.501,255.778c0.214,0.633,0.233,1.091-2.005,2.341c-2.296,1.283-5.842,1.85-9.001,1.656
							c-3.158-0.194-6.26-2.4-7.856-4.047c-1.596-1.648-4.499-2.947-6.366-3.568c-1.867-0.621-2.605-1.036-2.57-1.618
							s0.265-2.141,0.265-2.141L150.501,255.778z"/>
						<path style="fill:#BA68C8;" d="M122.66,246.182c0.094-1.801,1.479-3.217,1.731-4.995c0.042-0.3,0.055-0.613,0.19-0.884
							c0.135-0.271,0.393-0.493,0.684-0.405c0,0-0.043,0.781-0.06,1.216c-0.012,0.316,0.01,0.704,0.235,0.925
							c0.133,0.131,0.295,0.227,0.44,0.344c0.22,0.178,0.401,0.405,0.517,0.664c0.081,0.18,0.131,0.376,0.247,0.536
							c0.116,0.16,0.326,0.276,0.51,0.204c0.112-0.044,0.189-0.146,0.26-0.243c0.269-0.37,0.51-0.929,1.001-1.015
							c0.307-0.053,0.643,0.075,1.009,0.314c-0.198-0.467-0.379-0.9-0.351-1.191c0.031-0.319,0.225-0.479,0.419-0.478
							c2.86,0.016,4.117-0.217,5.461-0.704c1.566-0.567,0.691,0.551,1.527,1.982c0.836,1.431,1.695,2.378,3.488,4.28
							c1.522,1.615,2.544,2.825,3.762,3.522c0.73,0.418,1.668,0.951,2.483,1.341c2.176,1.041,2.929,1.343,3.557,1.604
							c0.628,0.261,0.99,1.556,0.819,2.388c-0.171,0.832-4.307,3.499-9.225,3.256c-4.918-0.243-6.639-2.005-8.713-4.213
							c-2.075-2.207-4.423-3.182-5.712-3.575c-1.29-0.393-3.09-0.893-4.072-1.71C122.868,249.345,122.56,248.113,122.66,246.182z"/>
						<path style="opacity:0.2;" d="M122.66,246.182c0.094-1.801,1.479-3.217,1.731-4.995c0.042-0.3,0.055-0.613,0.19-0.884
							c0.135-0.271,0.393-0.493,0.684-0.405c0,0-0.043,0.781-0.06,1.216c-0.012,0.316,0.01,0.704,0.235,0.925
							c0.133,0.131,0.295,0.227,0.44,0.344c0.22,0.178,0.401,0.405,0.517,0.664c0.081,0.18,0.131,0.376,0.247,0.536
							c0.116,0.16,0.326,0.276,0.51,0.204c0.112-0.044,0.189-0.146,0.26-0.243c0.269-0.37,0.51-0.929,1.001-1.015
							c0.307-0.053,0.643,0.075,1.009,0.314c-0.198-0.467-0.379-0.9-0.351-1.191c0.031-0.319,0.225-0.479,0.419-0.478
							c2.86,0.016,4.117-0.217,5.461-0.704c1.566-0.567,0.691,0.551,1.527,1.982c0.836,1.431,1.695,2.378,3.488,4.28
							c1.522,1.615,2.544,2.825,3.762,3.522c0.73,0.418,1.668,0.951,2.483,1.341c2.176,1.041,2.929,1.343,3.557,1.604
							c0.628,0.261,0.99,1.556,0.819,2.388c-0.171,0.832-4.307,3.499-9.225,3.256c-4.918-0.243-6.639-2.005-8.713-4.213
							c-2.075-2.207-4.423-3.182-5.712-3.575c-1.29-0.393-3.09-0.893-4.072-1.71C122.868,249.345,122.56,248.113,122.66,246.182z"/>
						<path style="fill:#BA68C8;" d="M129.073,241.652c0.031-0.319,0.225-0.479,0.419-0.478c2.859,0.016,4.117-0.217,5.461-0.704
							c1.566-0.567,1.258,0.418,2.061,2c0.75,1.478,1.161,2.36,2.954,4.261c1.522,1.615,2.544,2.825,3.762,3.522
							c0.234,0.134,0.494,0.281,0.76,0.431c0,0,0,0,0,0.001c-0.419,0.659-2.478,1.713-3.891,1.826
							c-1.373-0.566-6.513-4.442-11.176-9.669C129.226,242.376,129.045,241.943,129.073,241.652z"/>
						<path style="fill:#455A64;" d="M149.557,254.078c-0.82,0.362-1.72,0.745-1.701,1.071c0.019,0.326,0.301,2.129-0.058,2.803
							c-0.36,0.674-0.899,0.93-1.708,1.14c-0.808,0.211-4.326,0.822-6.491,0.556c-2.166-0.267-4.24-0.984-6.398-2.729
							c-2.158-1.744-2.66-2.68-5.31-3.848c-2.65-1.169-3.905-1.375-5.115-2.143c0,0-0.079,0.471-0.064,0.779
							c0,0,0.718,0.549,1.552,0.811c0.833,0.262,3.686,1.105,4.885,1.828c1.199,0.723,2.643,2.023,3.863,3.091
							c1.221,1.068,3.859,2.51,6.655,2.703c2.796,0.193,6.51-0.336,8.783-1.584c2.274-1.248,2.312-1.759,2.471-2.078
							c0.16-0.319-0.052-2.047-0.256-2.399C150.461,253.727,150.145,253.818,149.557,254.078z"/>
						<g>
							<path style="fill:#455A64;" d="M139.356,251.769c1.526-1.478,2.827-2.167,3.515-2.109c0,0,0.672,0.195,0.859,0.594
								c0,0-1.311,0.172-3.497,2.103C140.233,252.357,139.507,252.402,139.356,251.769z"/>
							<path style="fill:#455A64;" d="M141.262,248.116c-1.25,0.22-2.638,1.01-4.311,2.401c0,0-0.579,0.02-0.83-0.592
								c0,0,2.121-2.232,4.515-2.478C140.637,247.447,141.224,247.656,141.262,248.116z"/>
							<path style="fill:#455A64;" d="M139.179,245.891c-1.119-0.206-3.919,1.74-4.675,2.711c0,0-0.68,0.111-0.848-0.678
								c0,0,2.081-2.543,4.753-2.877C138.409,245.047,139.214,245.249,139.179,245.891z"/>
							<path style="fill:#455A64;" d="M137.667,243.725c-0.54-0.003-3.732,0.635-5.215,2.488c0,0-0.59-0.107-0.705-0.742
								c0,0,2.146-2.505,5.422-2.694C137.169,242.776,137.495,243.139,137.667,243.725z"/>
						</g>
					</g>
				</g>
			</g>
			<g>
				<path style="fill:#37474F;" d="M81.533,171.202c-1.866,3.75-2.497,7.17-2.113,14.266c0.374,6.921,0.874,25.483,0.874,25.483
					s6.016,5.247,20.371,2.783c0,0,1.264-5.866,2.571-10.285c1.59-5.372,2.999-6.433,2.999-6.433l12.718,4.15
					c0,0-0.398-6.073,5.066-10.787c5.464-4.714,8.753-4.873,8.753-4.873s-14.538-8.328-16.574-10.03
					c-2.035-1.702-0.536-3.845-0.536-3.845L81.533,171.202z"/>
				<path style="fill:#263238;" d="M106.236,197.016c2.797-3.454,5.861-5.558,8.194-6.793c-3.244,2.046-5.809,5.214-5.168,6.403
					c0.64,1.189,9.693,4.54,9.693,4.54L106.236,197.016z"/>
			</g>
		</g>
		<g id="Top">
			<g>
				<path style="fill:#F0997A;" d="M175.605,150.228c-1.623-1.397-5.543-3.526-7.793-2.351c-2.25,1.175-2.764,4.846-1.907,7.122
					C166.761,157.275,175.605,150.228,175.605,150.228z"/>
				<path style="fill:#FFBDA7;" d="M122.166,131.527c4.054,0.162,4.464,2.381,8.924,8.545c2.991,4.134,8.727,11.658,8.727,11.658
					s14.198-0.408,18.538-0.824c3.253-0.312,4.026-1.457,5.669-2.961c1.215-1.112,1.8-1.544,3.938-1.544l-0.032,2.622l-0.185,0.522
					l-4.024,2.74c0.045,0.031,7.063,2.601,6.139,4.448c-0.928,1.856-1.636,3.05-4.037,3.19c-1.587,0.093-4.413-0.754-5.668-0.551
					c-6.542,1.056-17.795,3.154-20.117,3.478c-5.016,0.701-5.232-0.003-7.952-2.445c-4.939-4.433-14.829-15.141-14.829-15.141
					L122.166,131.527z"/>
				<path style="fill:#BA68C8;" d="M117.024,130.917c2.812-0.592,8.249-0.765,12.118,4.863c3.869,5.627,8.916,12.873,8.916,12.873
					s-1.337,6.775-9.034,9.693l-13.126-13.633L117.024,130.917z"/>
				<path style="fill:#F0997A;" d="M163.15,156.5c0.545-0.285,0.794-0.933,0.63-1.525c-0.001-0.003-0.002-0.006-0.002-0.009
					c-0.135-0.489-0.233-0.988-0.295-1.492c-0.027-0.22-0.046-0.45,0.026-0.659c0.066-0.192,0.198-0.343,0.358-0.471
					c0.995,0.389,6.841,2.694,5.993,4.39c-0.968,1.935-1.647,3.148-4.348,3.197c-0.006-0.003-0.173-0.155-0.396-0.371
					c-0.222-0.215-0.424-0.497-0.609-0.782c-0.354-0.545-0.718-1.141-0.682-1.79c0.005-0.087,0.026-0.172,0.041-0.258
					c-0.223,0.13-0.463,0.227-0.704,0.288c-0.486,0.13-0.981,0.13-1.46,0.072C162.213,156.899,162.713,156.728,163.15,156.5z"/>
				<g>
					<path style="fill:#263238;" d="M183.862,148.491l-0.375-1.71l-10.599-4.879l0.375,1.71c0.096,0.325,0.243,0.639,0.417,0.945
						c-0.185,0.722-0.765,1.464-1.689,2.092l-8.274,5.634c-0.059,0.041-0.078,0.094-0.064,0.156c0.054,0.243,0.361,1.648,0.375,1.71
						c0.132,0.606,3.423,2.059,3.996,1.654l7.897-5.808c1.492-1.098,3.746-1.733,5.722-1.566
						C182.366,148.491,183.109,148.51,183.862,148.491z"/>
					<path style="fill:#BA68C8;" d="M197.731,143.257c3.183-2.338,4.539-5.08,4.037-7.392c-0.064-0.295-0.325-1.455-0.389-1.743
						c-0.338-1.519-1.475-2.852-3.441-3.757c-4.97-2.288-13.487-1.082-19.025,2.692l-1.876,1.279
						c-3.301,2.25-4.717,4.935-4.222,7.248c0.064,0.297,0.323,1.46,0.386,1.747c0.341,1.554,1.542,2.937,3.635,3.9l0.071,0.033
						c5.219,2.403,13.74,1.199,19.031-2.689L197.731,143.257z"/>
					<path style="opacity:0.4;" d="M197.731,143.257c3.183-2.338,4.539-5.08,4.037-7.392c-0.064-0.295-0.325-1.455-0.389-1.743
						c-0.338-1.519-1.475-2.852-3.441-3.757c-4.97-2.288-13.487-1.082-19.025,2.692l-1.876,1.279
						c-3.301,2.25-4.717,4.935-4.222,7.248c0.064,0.297,0.323,1.46,0.386,1.747c0.341,1.554,1.542,2.937,3.635,3.9l0.071,0.033
						c5.219,2.403,13.74,1.199,19.031-2.689L197.731,143.257z"/>
					<path style="fill:#BA68C8;" d="M176.907,147.263l-0.071-0.033c-5.219-2.403-4.961-7.41,0.576-11.185l1.876-1.279
						c5.538-3.774,14.056-4.98,19.025-2.692c4.97,2.288,4.709,7.294-0.583,11.182l-1.793,1.317
						C190.647,148.462,182.126,149.666,176.907,147.263z"/>
					<g>
						<path style="fill:#E0E0E0;" d="M175.605,131.884c2.605-2.101,5.591-3.82,8.883-4.73c1.643-0.443,3.348-0.682,5.048-0.655
							c1.699,0.012,3.384,0.297,4.986,0.793c-3.339-0.329-6.644-0.18-9.802,0.71C181.551,128.851,178.591,130.361,175.605,131.884z"
							/>
						<path style="fill:#E0E0E0;" d="M180.182,125.931c0.708-0.574,1.535-0.984,2.378-1.313c0.845-0.333,1.726-0.56,2.617-0.73
							c0.894-0.153,1.801-0.248,2.715-0.217c0.905,0.03,1.848,0.155,2.663,0.575c-0.905-0.061-1.766,0.017-2.635,0.112
							c-0.865,0.107-1.728,0.235-2.586,0.396C183.609,125.062,181.917,125.439,180.182,125.931z"/>
					</g>
					<path style="fill:#455A64;" d="M183.862,148.491c-0.753,0.02-1.496,0.001-2.219-0.061c-1.976-0.167-4.23,0.467-5.722,1.565
						l-7.897,5.808c-0.631,0.447-4.562-1.363-3.931-1.81l8.275-5.634c1.564-1.065,2.176-2.455,1.471-3.522
						c-0.259-0.391-0.449-0.801-0.575-1.225L183.862,148.491z"/>
				</g>
				<path style="fill:#FFBDA7;" d="M175.602,150.227c-0.635,0.516-1.328,0.98-1.989,1.466c0,0-2.986,0.851-3.569,0.99
					c-0.486,0.116-2.218-1.781-3.849-2.088c-0.44-0.083-1.412,0.084-1.38,0.688c0.014,0.27,0.173,0.485,0.342,0.725
					c-0.098,0.087-0.242,0.228-0.293,0.337c-0.157,0.332-0.207,0.663-0.083,1.138c0.073,0.279,0.164,0.427,0.164,0.427
					c-0.203,0.203-0.301,0.279-0.412,0.448c-0.144,0.219-0.127,0.39-0.092,0.808c0.01,0.116,0.11,0.475,0.182,0.663
					c-0.331,0.142-0.429,0.441-0.331,0.946c0.071,0.367,0.285,0.785,0.473,1.093c0.65,1.066,1.449,1.868,2.728,2.146
					c0.609,0.132,1.327-0.267,1.834-0.552c0.42-0.236,0.787-0.548,1.198-0.794c0.143-0.085,1.111-0.474,1.111-0.608
					c0.223-0.126,0.449-0.255,0.626-0.439c0.303-0.316,0.437-0.768,0.752-1.072c0.273-0.263,0.649-0.386,0.963-0.598
					c0.37-0.25,0.65-0.631,0.779-1.058c0.076-0.254,0.102-0.524,0.21-0.766c0.3-0.669,1.157-0.97,1.41-1.658
					c0.13-0.352,0.073-0.751-0.075-1.096c-0.104-0.242-0.25-0.461-0.404-0.674C175.798,150.561,175.733,150.338,175.602,150.227z"/>
				<path style="fill:#FFBDA7;" d="M172.161,146.946c0.341,0.312,1.253,2.148,1.782,3.074c0.327,0.572-0.273,1.242-1.676,0.663
					c-1.386-0.573-1.913-1.612-1.913-1.612l-2.608,0.475l0.216-3.145C169.3,146.401,171.516,146.357,172.161,146.946z"/>
				<path style="fill:#F0997A;" d="M165.158,152.008c0.545,0.53,1.122,1.017,1.696,1.508c0.58,0.479,1.138,1.002,1.756,1.368
					c0.582,0.395,1.305,0.265,2.042,0.059c0.734-0.168,1.472-0.329,2.23-0.443c-0.702,0.293-1.424,0.539-2.15,0.779
					c-0.665,0.265-1.603,0.456-2.35-0.008c-0.667-0.443-1.223-0.964-1.762-1.503C166.09,153.221,165.563,152.66,165.158,152.008z"/>
				<path style="fill:#F0997A;" d="M164.946,153.91c0.462,0.5,0.979,0.942,1.466,1.414c0.495,0.466,0.969,0.948,1.457,1.431
					c0.377,0.523,1.019,0.631,1.642,0.482c0.645-0.189,1.294-0.37,1.97-0.508c-0.608,0.312-1.242,0.58-1.88,0.842
					c-0.336,0.129-0.727,0.153-1.099,0.076c-0.367-0.064-0.748-0.324-0.959-0.584c-0.453-0.499-0.937-0.983-1.38-1.501
					C165.727,155.04,165.262,154.526,164.946,153.91z"/>
			</g>
			<g>
				<g>
					<path style="fill:#263238;" d="M119.414,164.752c6.75-12.363,7.921-13.807,8.087-20.204c0.111-4.285-1.528-7.779-4.342-12.521
						c-0.702-1.183-3.431-1.622-8.824-0.813c-1.006,0.151-15.541,3.231-15.541,3.231c-3.033,0.892-6.425,6.352-9.7,13.734
						c-3.275,7.381-6.349,14.749-9.206,26.362c13.319,15.251,32.783,9.684,37.37,1.546
						C115.094,171.87,116.393,170.285,119.414,164.752z"/>
				</g>
				<g id="XMLID_374_">
					<g id="XMLID_391_">
						<path style="fill:#263238;" d="M110.802,130.494c0.109-0.856-1.296-3.03-2.827-5.118c-1.82-2.481-2.891-4.254-3.204-6.393
							c-0.891-6.106,1.715-12.111,5.924-12.143c0.452-1.786,2.1-3.605,4.941-4.499c1.789-0.563,3.877-0.807,5.745-0.62
							c1.979,0.198,3.88,0.845,5.853,1.089c1,0.124,2.013,0.141,3.005,0.317c1.961,0.347,3.872,1.395,4.884,3.11
							c1.011,1.715,0.913,4.129-0.514,5.518c1.329,1.223,1.41,3.423,0.514,4.991c-0.596,1.042-1.541,1.834-2.589,2.397
							c-1.09,0.585-2.226,1.051-3.326,1.632c-3.867,2.042-7.734,4.084-11.602,6.126
							C115.339,128.098,113.071,129.296,110.802,130.494z"/>
						<path style="fill:#FFBDA7;" d="M111.501,122.169l-2.254,10.219c0,0-0.852,3.006,4.054,6.462
							c1.867,1.316,5.913,1.385,6.576-0.2l1.243-5.034L111.501,122.169z"/>
						<path style="fill:#FFBDA7;" d="M131.208,109.739c0.101,0.175-0.688,0.785-0.799,0.872c-0.491,0.385-1.024,0.715-1.583,0.992
							c-1.108,0.549-2.312,0.891-3.534,1.067c-1.994,0.287-4.026,0.147-6.024-0.112c-0.095-0.012-0.196-0.024-0.281,0.019
							c-0.1,0.05-0.152,0.162-0.194,0.266c-0.239,0.598-0.394,1.245-0.785,1.757c-0.245,0.321-0.571,0.568-0.921,0.766
							c-0.32,0.181-0.787,0.266-0.985,0.595c-0.064,0.106-0.103,0.224-0.137,0.343c-0.32,1.114-0.26,2.297-0.385,3.45
							c-0.056,0.517-0.211,0.978-0.588,1.349c-0.165,0.161-0.373,0.3-0.604,0.299c-0.286-0.001-0.531-0.217-0.68-0.462
							c-0.198-0.327-0.273-0.71-0.368-1.08c-0.25-0.975-0.667-1.92-1.316-2.69c-0.388-0.461-0.873-0.865-1.45-1.039
							c-1.728-0.521-3.189,0.706-3.638,2.307c-0.608,2.168,0.687,4.463,1.345,5.162c0.833,0.885,1.834,1,2.302,0.967
							c1.085-0.076,1.525-0.902,1.529-0.921l0.372-0.303l0.949,3.033c0.423,1.695,1.249,3.197,2.142,4.667
							c1.042,0.923,3.901,2.33,4.466,2.317l0.893,0.245c2.714,0.611,6.555,0.605,8.052,0.047c1.497-0.557,4.186-2.029,4.199-11.023
							C133.203,111.753,131.444,110.149,131.208,109.739z"/>
						<path id="XMLID_398_" style="fill:#F0997A;" d="M112.502,125.857c0,0,0.244,3.743,2.299,6.021
							c0.428,0.475,3.662,2.644,5.994,3.06l0.32-1.296c0,0-1.282-0.369-2.242-0.778c-0.96-0.409-1.85-0.954-2.508-1.397
							C113.93,129.829,112.877,126.748,112.502,125.857z"/>
					</g>
					<g id="XMLID_382_">
						<path id="XMLID_389_" style="fill:#263238;" d="M123.494,119.993c0.025,0.652-0.463,1.2-1.091,1.222
							c-0.628,0.023-1.158-0.488-1.183-1.14c-0.025-0.652,0.463-1.199,1.091-1.222C122.939,118.83,123.469,119.341,123.494,119.993z
							"/>
						<path id="XMLID_387_" style="fill:#263238;" d="M122.524,116.606l-2.461,1.294c-0.345-0.706-0.073-1.569,0.607-1.926
							C121.349,115.617,122.179,115.899,122.524,116.606z"/>
						<path id="XMLID_385_" style="fill:#B16668;" d="M122.289,125.931l2.933,1.928c-0.57,0.812-1.689,1.039-2.498,0.507
							C121.914,127.833,121.72,126.743,122.289,125.931z"/>
						<path style="fill:#F28F8F;" d="M123.592,128.62c0,0.008-0.002,0.015-0.002,0.023c-0.302-0.018-0.601-0.103-0.866-0.277
							c-0.502-0.33-0.767-0.875-0.76-1.436C122.869,126.967,123.592,127.706,123.592,128.62z"/>
						<path id="XMLID_384_" style="fill:#263238;" d="M132.332,117.441l-2.673-0.838c0.205-0.753,0.97-1.175,1.708-0.944
							C132.105,115.89,132.537,116.688,132.332,117.441z"/>
						<path id="XMLID_383_" style="fill:#263238;" d="M131.663,119.993c0.025,0.652-0.463,1.2-1.091,1.222
							c-0.628,0.023-1.158-0.488-1.183-1.14c-0.025-0.652,0.463-1.2,1.091-1.222C131.108,118.83,131.638,119.341,131.663,119.993z"
							/>
					</g>
					<polygon id="XMLID_377_" style="fill:#F0997A;" points="126.486,118.649 125.829,125.69 129.603,125.437 					"/>
				</g>
			</g>
			<g>
				<path style="fill:#FFBDA7;" d="M73.752,149.689c4.755-4.227,14.346-10.744,17.516-12.858c3.17-2.113,10.063-2.924,10.063-2.924
					s2.431,4.149,0.846,9.829c-1.585,5.68-7.756,7.7-7.756,7.7l-12.036,7.11c0,0,1.177,9.702,2.977,14.275
					c1.35,2.826,1.778,2.81,3.626,3.735c1.96,0.981,2.693,1.588,4.128,4.012s3.282,3.853,3.579,4.461
					c0.296,0.608-1.285,1.241-2.621,0.737c-1.336-0.504-3.699-3.548-3.908-3.174c-0.209,0.373,0.787,3.156,2.433,4.951
					c1.712,1.868,4.102,3.369,5.075,4.156c0.972,0.787,0.923,1.249,0.491,1.747c-0.432,0.498-3.802-0.314-3.802-0.314
					s-2.244,1.236-4.995,0.336c-2.967-0.971-5.153-2.499-6.8-4.684c-1.246-1.652-2.801-7.745-4.832-12.412
					c-1.965-3.868-6.236-13.553-7.201-16.918C69.222,154.879,68.996,153.916,73.752,149.689z"/>
				<path style="fill:#BA68C8;" d="M102.28,133.707c-3.611,0.133-7.362,0.863-9.446,1.904c-2.084,1.042-13.521,9.222-13.521,9.222
					s0.86,9.181,6.122,12.64c0,0,11.827-6.179,14.589-8.159C102.785,147.335,106.099,139.097,102.28,133.707z"/>
			</g>
		</g>
	</g>
</g>
<g id="Table_tennis">
	<g id="Tenis_Table_2_">
		<g>
			<g>
				<g>
					<polygon style="fill:#37474F;" points="267.037,239.848 267.037,302.953 268.644,302.025 268.645,238.921 					"/>
					<polygon style="fill:#263238;" points="267.037,239.848 267.037,302.953 265.43,302.025 265.43,238.921 					"/>
				</g>
				<g>
					<polygon style="fill:#37474F;" points="173.811,323.368 267.037,269.544 265.43,268.616 172.204,322.44 					"/>
					<polygon style="fill:#263238;" points="173.811,323.368 267.037,269.544 267.037,271.4 173.811,325.224 					"/>
				</g>
				<g>
					<polygon style="fill:#37474F;" points="172.204,294.6 172.204,357.704 173.811,356.776 173.811,293.672 					"/>
					<polygon style="fill:#263238;" points="172.204,294.6 172.204,357.704 170.596,356.776 170.596,293.672 					"/>
				</g>
			</g>
			<g>
				<g>
					<polygon style="fill:#37474F;" points="199.528,200.872 199.528,263.977 201.135,263.049 201.136,199.944 					"/>
					<polygon style="fill:#263238;" points="199.528,200.872 199.528,263.977 197.921,263.049 197.921,199.944 					"/>
				</g>
				<g>
					<polygon style="fill:#37474F;" points="106.302,284.392 199.528,230.568 197.921,229.64 104.695,283.464 					"/>
					<polygon style="fill:#263238;" points="106.302,284.392 199.528,230.568 199.528,232.424 106.302,286.248 					"/>
				</g>
				<g>
					<polygon style="fill:#37474F;" points="104.695,255.624 104.695,318.728 106.302,317.8 106.302,254.696 					"/>
					<polygon style="fill:#263238;" points="104.695,255.624 104.695,318.728 103.088,317.8 103.088,254.696 					"/>
				</g>
			</g>
		</g>
		<g>
			<g>
				<g>
					<polygon style="fill:#37474F;" points="353.834,289.961 353.834,353.065 355.441,352.137 355.441,289.033 					"/>
					<polygon style="fill:#263238;" points="353.834,289.961 353.834,353.065 352.227,352.137 352.227,289.033 					"/>
				</g>
				<g>
					<polygon style="fill:#37474F;" points="260.608,373.481 353.834,319.657 352.227,318.729 259.001,372.552 					"/>
					<polygon style="fill:#263238;" points="260.608,373.481 353.834,319.657 353.834,321.513 260.608,375.336 					"/>
				</g>
				<g>
					<polygon style="fill:#37474F;" points="259.001,344.712 259.001,407.817 260.608,406.889 260.608,343.784 					"/>
					<polygon style="fill:#263238;" points="259.001,344.712 259.001,407.817 257.393,406.889 257.393,343.784 					"/>
				</g>
			</g>
			<g>
				<g>
					<polygon style="fill:#37474F;" points="286.325,250.984 286.325,314.089 287.932,313.161 287.933,250.057 					"/>
					<polygon style="fill:#263238;" points="286.325,250.984 286.325,314.089 284.718,313.161 284.718,250.057 					"/>
				</g>
				<g>
					<polygon style="fill:#37474F;" points="193.099,334.504 286.325,280.68 284.718,279.752 191.492,333.576 					"/>
					<polygon style="fill:#263238;" points="193.099,334.504 286.325,280.68 286.325,282.536 193.1,336.36 					"/>
				</g>
				<g>
					<polygon style="fill:#37474F;" points="191.492,305.736 191.492,368.841 193.099,367.913 193.099,304.808 					"/>
					<polygon style="fill:#263238;" points="191.492,305.736 191.492,368.841 189.885,367.913 189.885,304.808 					"/>
				</g>
			</g>
		</g>
		<g>
			<g>
				<path style="fill:#263238;" d="M305.613,206.438l-1.607-0.928l-1.607,0.93v14.849l-1.607,0.928v11.133l-2.429,1.4l0,1.83
					l1.607,0.928l4.036-2.302l0-11.133l1.607-0.928V206.438z M302.399,223.144L302.399,223.144l1.607-0.928v0L302.399,223.144z"/>
				<polygon style="fill:#37474F;" points="302.399,234.277 302.399,223.144 304.006,222.217 304.006,207.368 305.613,206.438 
					305.613,223.144 304.006,224.072 304.006,235.205 299.97,237.508 299.97,235.678 				"/>
				<polygon style="fill:#455A64;" points="304.006,205.51 302.398,206.44 304.006,207.368 305.613,206.438 				"/>
			</g>
			<g>
				<polygon style="fill:#E0E0E0;" points="276.682,356.777 395.625,288.105 395.625,280.681 276.682,349.353 				"/>
				<polygon style="fill:#E0E0E0;" points="276.682,356.777 83.799,245.416 83.799,237.992 276.682,349.353 				"/>
				<polygon style="opacity:0.1;" points="276.682,356.777 83.799,245.416 83.799,237.992 276.682,349.353 				"/>
				<polygon style="fill:#F0F0F0;" points="395.625,280.681 276.682,349.353 83.799,237.992 202.743,169.32 				"/>
				<polygon style="fill:#BA68C8;" points="276.682,345.641 389.196,280.68 202.742,173.032 90.23,237.992 				"/>
				<polygon style="opacity:0.15;fill:#FFFFFF;" points="276.682,345.641 389.196,280.68 202.742,173.032 90.23,237.992 				"/>
				<polygon style="fill:#FAFAFA;" points="144.092,203.192 336.974,314.552 335.398,315.461 142.518,204.101 				"/>
			</g>
			<g>
				<g>
					<path style="fill:#263238;" d="M179.001,293.068c-0.02,0-0.039-0.005-0.056-0.015c-0.035-0.02-0.056-0.057-0.056-0.097v-11.525
						c0-0.062,0.05-0.112,0.112-0.112s0.112,0.05,0.112,0.112v11.331l123.903-71.539v-11.466c0-0.062,0.05-0.112,0.112-0.112
						s0.112,0.05,0.112,0.112v11.531c0,0.04-0.021,0.077-0.056,0.097l-124.128,71.668
						C179.039,293.064,179.02,293.068,179.001,293.068z"/>
					<g>
						<path style="fill:#263238;" d="M179.001,293.068c-0.039,0-0.077-0.02-0.097-0.056c-0.031-0.054-0.013-0.123,0.041-0.153
							l124.127-71.668c0.055-0.032,0.122-0.014,0.154,0.041c0.03,0.054,0.013,0.123-0.041,0.153l-124.128,71.668
							C179.039,293.064,179.02,293.068,179.001,293.068z"/>
						<path style="fill:#263238;" d="M179.001,291.788c-0.039,0-0.077-0.02-0.097-0.056c-0.031-0.054-0.013-0.122,0.041-0.153
							l124.127-71.668c0.055-0.032,0.122-0.014,0.154,0.041c0.03,0.054,0.013,0.122-0.041,0.153l-124.128,71.668
							C179.039,291.783,179.02,291.788,179.001,291.788z"/>
						<path style="fill:#263238;" d="M179.001,290.508c-0.039,0-0.077-0.02-0.097-0.056c-0.031-0.054-0.013-0.123,0.041-0.153
							l124.127-71.668c0.055-0.032,0.122-0.014,0.154,0.041c0.03,0.054,0.013,0.122-0.041,0.153l-124.128,71.668
							C179.039,290.503,179.02,290.508,179.001,290.508z"/>
						<path style="fill:#263238;" d="M179.001,289.227c-0.039,0-0.077-0.02-0.097-0.056c-0.031-0.054-0.013-0.123,0.041-0.153
							l124.127-71.668c0.055-0.031,0.122-0.014,0.154,0.041c0.03,0.054,0.013,0.123-0.041,0.153l-124.128,71.668
							C179.039,289.222,179.02,289.227,179.001,289.227z"/>
						<path style="fill:#263238;" d="M179.001,287.947c-0.039,0-0.077-0.02-0.097-0.056c-0.031-0.054-0.013-0.122,0.041-0.153
							l124.127-71.668c0.055-0.031,0.122-0.014,0.154,0.041c0.03,0.054,0.013,0.122-0.041,0.153l-124.128,71.668
							C179.039,287.942,179.02,287.947,179.001,287.947z"/>
						<path style="fill:#263238;" d="M179.001,286.667c-0.039,0-0.077-0.02-0.097-0.056c-0.031-0.054-0.013-0.123,0.041-0.153
							l124.127-71.668c0.055-0.031,0.122-0.013,0.154,0.041c0.03,0.054,0.013,0.122-0.041,0.153l-124.128,71.669
							C179.039,286.662,179.02,286.667,179.001,286.667z"/>
						<path style="fill:#263238;" d="M179.001,285.386c-0.039,0-0.077-0.02-0.097-0.056c-0.031-0.054-0.013-0.123,0.041-0.153
							l124.127-71.668c0.055-0.031,0.122-0.013,0.154,0.041c0.03,0.054,0.013,0.123-0.041,0.153l-124.128,71.668
							C179.039,285.381,179.02,285.386,179.001,285.386z"/>
						<path style="fill:#263238;" d="M179.001,284.105c-0.039,0-0.077-0.02-0.097-0.056c-0.031-0.054-0.013-0.122,0.041-0.153
							l124.127-71.669c0.055-0.032,0.122-0.014,0.154,0.041c0.03,0.054,0.013,0.122-0.041,0.153L179.057,284.09
							C179.039,284.101,179.02,284.105,179.001,284.105z"/>
						<path style="fill:#263238;" d="M179.001,282.825c-0.039,0-0.077-0.02-0.097-0.056c-0.031-0.054-0.013-0.123,0.041-0.153
							l124.127-71.668c0.055-0.032,0.122-0.014,0.154,0.041c0.03,0.054,0.013,0.122-0.041,0.153L179.057,282.81
							C179.039,282.82,179.02,282.825,179.001,282.825z"/>
						<path style="fill:#263238;" d="M179.001,281.544c-0.039,0-0.077-0.02-0.097-0.056c-0.031-0.054-0.013-0.123,0.041-0.153
							l124.127-71.668c0.055-0.032,0.122-0.014,0.154,0.041c0.03,0.054,0.013,0.123-0.041,0.153l-124.128,71.668
							C179.039,281.54,179.02,281.544,179.001,281.544z"/>
					</g>
					<g>
						<path style="fill:#263238;" d="M179.001,293.068c-0.062,0-0.112-0.05-0.112-0.112v-11.524c0-0.062,0.05-0.112,0.112-0.112
							s0.112,0.05,0.112,0.112v11.524C179.113,293.018,179.063,293.068,179.001,293.068z"/>
						<path style="fill:#263238;" d="M180.099,292.434c-0.062,0-0.112-0.05-0.112-0.112v-11.524c0-0.062,0.05-0.112,0.112-0.112
							c0.062,0,0.112,0.05,0.112,0.112v11.524C180.211,292.384,180.161,292.434,180.099,292.434z"/>
						<path style="fill:#263238;" d="M181.197,291.8c-0.062,0-0.112-0.05-0.112-0.112v-11.524c0-0.062,0.05-0.112,0.112-0.112
							s0.112,0.05,0.112,0.112v11.524C181.31,291.75,181.259,291.8,181.197,291.8z"/>
						<path style="fill:#263238;" d="M182.296,291.165c-0.062,0-0.112-0.05-0.112-0.112v-11.524c0-0.062,0.05-0.112,0.112-0.112
							s0.112,0.05,0.112,0.112v11.524C182.408,291.115,182.358,291.165,182.296,291.165z"/>
						<path style="fill:#263238;" d="M183.395,290.531c-0.062,0-0.112-0.05-0.112-0.112v-11.524c0-0.062,0.05-0.112,0.112-0.112
							s0.112,0.05,0.112,0.112v11.524C183.507,290.481,183.456,290.531,183.395,290.531z"/>
						<path style="fill:#263238;" d="M184.493,289.897c-0.062,0-0.112-0.05-0.112-0.112v-11.524c0-0.062,0.05-0.112,0.112-0.112
							c0.062,0,0.112,0.05,0.112,0.112v11.524C184.605,289.847,184.555,289.897,184.493,289.897z"/>
						<path style="fill:#263238;" d="M185.591,289.263c-0.062,0-0.112-0.05-0.112-0.112v-11.524c0-0.062,0.05-0.112,0.112-0.112
							c0.062,0,0.112,0.05,0.112,0.112v11.524C185.704,289.212,185.653,289.263,185.591,289.263z"/>
						<path style="fill:#263238;" d="M186.69,288.628c-0.062,0-0.112-0.05-0.112-0.112v-11.524c0-0.062,0.05-0.112,0.112-0.112
							c0.062,0,0.112,0.05,0.112,0.112v11.524C186.802,288.578,186.752,288.628,186.69,288.628z"/>
						<path style="fill:#263238;" d="M187.788,287.994c-0.062,0-0.112-0.05-0.112-0.112v-11.524c0-0.062,0.05-0.112,0.112-0.112
							s0.112,0.05,0.112,0.112v11.524C187.9,287.944,187.85,287.994,187.788,287.994z"/>
						<path style="fill:#263238;" d="M188.887,287.36c-0.062,0-0.112-0.05-0.112-0.112v-11.524c0-0.062,0.05-0.112,0.112-0.112
							s0.112,0.05,0.112,0.112v11.524C188.999,287.31,188.949,287.36,188.887,287.36z"/>
						<path style="fill:#263238;" d="M189.985,286.726c-0.062,0-0.112-0.05-0.112-0.112v-11.524c0-0.062,0.05-0.112,0.112-0.112
							c0.062,0,0.112,0.05,0.112,0.112v11.524C190.098,286.675,190.047,286.726,189.985,286.726z"/>
						<path style="fill:#263238;" d="M191.083,286.091c-0.062,0-0.112-0.05-0.112-0.112v-11.524c0-0.062,0.05-0.112,0.112-0.112
							s0.112,0.05,0.112,0.112v11.524C191.196,286.041,191.145,286.091,191.083,286.091z"/>
						<path style="fill:#263238;" d="M192.182,285.457c-0.062,0-0.112-0.05-0.112-0.112v-11.524c0-0.062,0.05-0.112,0.112-0.112
							s0.112,0.05,0.112,0.112v11.524C192.294,285.407,192.244,285.457,192.182,285.457z"/>
						<path style="fill:#263238;" d="M193.281,284.823c-0.062,0-0.112-0.05-0.112-0.112v-11.524c0-0.062,0.05-0.112,0.112-0.112
							c0.062,0,0.112,0.05,0.112,0.112v11.524C193.393,284.772,193.343,284.823,193.281,284.823z"/>
						<path style="fill:#263238;" d="M194.379,284.189c-0.062,0-0.112-0.05-0.112-0.112v-11.524c0-0.062,0.05-0.112,0.112-0.112
							c0.062,0,0.112,0.05,0.112,0.112v11.524C194.491,284.138,194.441,284.189,194.379,284.189z"/>
						<path style="fill:#263238;" d="M195.477,283.554c-0.062,0-0.112-0.05-0.112-0.112v-11.524c0-0.062,0.05-0.112,0.112-0.112
							c0.062,0,0.112,0.05,0.112,0.112v11.524C195.59,283.504,195.54,283.554,195.477,283.554z"/>
						<path style="fill:#263238;" d="M196.576,282.92c-0.062,0-0.112-0.05-0.112-0.112v-11.524c0-0.062,0.05-0.112,0.112-0.112
							s0.112,0.05,0.112,0.112v11.524C196.689,282.87,196.638,282.92,196.576,282.92z"/>
						<path style="fill:#263238;" d="M197.674,282.286c-0.062,0-0.112-0.05-0.112-0.112v-11.524c0-0.062,0.05-0.112,0.112-0.112
							s0.112,0.05,0.112,0.112v11.524C197.787,282.235,197.736,282.286,197.674,282.286z"/>
						<path style="fill:#263238;" d="M198.773,281.651c-0.062,0-0.112-0.05-0.112-0.112v-11.525c0-0.062,0.05-0.112,0.112-0.112
							c0.062,0,0.112,0.05,0.112,0.112v11.525C198.885,281.601,198.835,281.651,198.773,281.651z"/>
						<path style="fill:#263238;" d="M199.872,281.017c-0.062,0-0.112-0.05-0.112-0.112V269.38c0-0.062,0.05-0.112,0.112-0.112
							s0.112,0.05,0.112,0.112v11.524C199.984,280.967,199.934,281.017,199.872,281.017z"/>
						<path style="fill:#263238;" d="M200.97,280.383c-0.062,0-0.112-0.05-0.112-0.112v-11.524c0-0.062,0.05-0.112,0.112-0.112
							s0.112,0.05,0.112,0.112v11.524C201.082,280.332,201.032,280.383,200.97,280.383z"/>
						<path style="fill:#263238;" d="M202.068,279.749c-0.062,0-0.112-0.05-0.112-0.112v-11.524c0-0.062,0.05-0.112,0.112-0.112
							c0.062,0,0.112,0.05,0.112,0.112v11.524C202.181,279.698,202.13,279.749,202.068,279.749z"/>
						<path style="fill:#263238;" d="M203.167,279.114c-0.062,0-0.112-0.05-0.112-0.112v-11.525c0-0.062,0.05-0.112,0.112-0.112
							c0.062,0,0.112,0.05,0.112,0.112v11.525C203.279,279.064,203.229,279.114,203.167,279.114z"/>
						<path style="fill:#263238;" d="M204.265,278.48c-0.062,0-0.112-0.05-0.112-0.112v-11.524c0-0.062,0.05-0.112,0.112-0.112
							c0.062,0,0.112,0.05,0.112,0.112v11.524C204.377,278.43,204.327,278.48,204.265,278.48z"/>
						<path style="fill:#263238;" d="M205.364,277.846c-0.062,0-0.112-0.05-0.112-0.112v-11.524c0-0.062,0.05-0.112,0.112-0.112
							s0.112,0.05,0.112,0.112v11.524C205.476,277.795,205.426,277.846,205.364,277.846z"/>
						<path style="fill:#263238;" d="M206.462,277.211c-0.062,0-0.112-0.05-0.112-0.112v-11.524c0-0.062,0.05-0.112,0.112-0.112
							s0.112,0.05,0.112,0.112v11.524C206.575,277.161,206.524,277.211,206.462,277.211z"/>
						<path style="fill:#263238;" d="M207.561,276.577c-0.062,0-0.112-0.05-0.112-0.112V264.94c0-0.062,0.05-0.112,0.112-0.112
							c0.062,0,0.112,0.05,0.112,0.112v11.524C207.673,276.527,207.623,276.577,207.561,276.577z"/>
						<path style="fill:#263238;" d="M208.659,275.943c-0.062,0-0.112-0.05-0.112-0.112v-11.524c0-0.062,0.05-0.112,0.112-0.112
							c0.062,0,0.112,0.05,0.112,0.112v11.524C208.771,275.893,208.721,275.943,208.659,275.943z"/>
						<path style="fill:#263238;" d="M209.758,275.309c-0.062,0-0.112-0.05-0.112-0.112v-11.524c0-0.062,0.05-0.112,0.112-0.112
							s0.112,0.05,0.112,0.112v11.524C209.87,275.258,209.82,275.309,209.758,275.309z"/>
						<path style="fill:#263238;" d="M210.856,274.674c-0.062,0-0.112-0.05-0.112-0.112v-11.524c0-0.062,0.05-0.112,0.112-0.112
							c0.062,0,0.112,0.05,0.112,0.112v11.524C210.969,274.624,210.919,274.674,210.856,274.674z"/>
						<path style="fill:#263238;" d="M211.955,274.04c-0.062,0-0.112-0.05-0.112-0.112v-11.524c0-0.062,0.05-0.112,0.112-0.112
							c0.062,0,0.112,0.05,0.112,0.112v11.524C212.067,273.99,212.017,274.04,211.955,274.04z"/>
						<path style="fill:#263238;" d="M213.053,273.406c-0.062,0-0.112-0.05-0.112-0.112v-11.524c0-0.062,0.05-0.112,0.112-0.112
							c0.062,0,0.112,0.05,0.112,0.112v11.524C213.165,273.355,213.115,273.406,213.053,273.406z"/>
						<path style="fill:#263238;" d="M214.151,272.772c-0.062,0-0.112-0.05-0.112-0.112v-11.524c0-0.062,0.05-0.112,0.112-0.112
							s0.112,0.05,0.112,0.112v11.524C214.264,272.721,214.213,272.772,214.151,272.772z"/>
						<path style="fill:#263238;" d="M215.25,272.137c-0.062,0-0.112-0.05-0.112-0.112V260.5c0-0.062,0.05-0.112,0.112-0.112
							s0.112,0.05,0.112,0.112v11.524C215.362,272.087,215.312,272.137,215.25,272.137z"/>
						<path style="fill:#263238;" d="M216.349,271.503c-0.062,0-0.112-0.05-0.112-0.112v-11.524c0-0.062,0.05-0.112,0.112-0.112
							s0.112,0.05,0.112,0.112v11.524C216.461,271.453,216.411,271.503,216.349,271.503z"/>
						<path style="fill:#263238;" d="M217.447,270.868c-0.062,0-0.112-0.05-0.112-0.112v-11.524c0-0.062,0.05-0.112,0.112-0.112
							c0.062,0,0.112,0.05,0.112,0.112v11.524C217.559,270.818,217.509,270.868,217.447,270.868z"/>
						<path style="fill:#263238;" d="M218.545,270.234c-0.062,0-0.112-0.05-0.112-0.112v-11.524c0-0.062,0.05-0.112,0.112-0.112
							c0.062,0,0.112,0.05,0.112,0.112v11.524C218.658,270.184,218.607,270.234,218.545,270.234z"/>
						<path style="fill:#263238;" d="M219.644,269.6c-0.062,0-0.112-0.05-0.112-0.112v-11.524c0-0.062,0.05-0.112,0.112-0.112
							c0.062,0,0.112,0.05,0.112,0.112v11.524C219.756,269.549,219.706,269.6,219.644,269.6z"/>
						<path style="fill:#263238;" d="M220.743,268.965c-0.062,0-0.112-0.05-0.112-0.112v-11.524c0-0.062,0.05-0.112,0.112-0.112
							c0.062,0,0.112,0.05,0.112,0.112v11.524C220.855,268.915,220.805,268.965,220.743,268.965z"/>
						<path style="fill:#263238;" d="M221.841,268.331c-0.062,0-0.112-0.05-0.112-0.112v-11.524c0-0.062,0.05-0.112,0.112-0.112
							c0.062,0,0.112,0.05,0.112,0.112v11.524C221.953,268.281,221.903,268.331,221.841,268.331z"/>
						<path style="fill:#263238;" d="M222.939,267.697c-0.062,0-0.112-0.05-0.112-0.112V256.06c0-0.062,0.05-0.112,0.112-0.112
							c0.062,0,0.112,0.05,0.112,0.112v11.524C223.052,267.647,223.001,267.697,222.939,267.697z"/>
						<path style="fill:#263238;" d="M224.038,267.063c-0.062,0-0.112-0.05-0.112-0.112v-11.524c0-0.062,0.05-0.112,0.112-0.112
							s0.112,0.05,0.112,0.112v11.524C224.15,267.012,224.1,267.063,224.038,267.063z"/>
						<path style="fill:#263238;" d="M225.136,266.428c-0.062,0-0.112-0.05-0.112-0.112v-11.524c0-0.062,0.05-0.112,0.112-0.112
							s0.112,0.05,0.112,0.112v11.524C225.249,266.378,225.198,266.428,225.136,266.428z"/>
						<path style="fill:#263238;" d="M226.235,265.794c-0.062,0-0.112-0.05-0.112-0.112v-11.524c0-0.062,0.05-0.112,0.112-0.112
							c0.062,0,0.112,0.05,0.112,0.112v11.524C226.347,265.744,226.297,265.794,226.235,265.794z"/>
						<path style="fill:#263238;" d="M227.333,265.16c-0.062,0-0.112-0.05-0.112-0.112v-11.524c0-0.062,0.05-0.112,0.112-0.112
							s0.112,0.05,0.112,0.112v11.524C227.446,265.109,227.395,265.16,227.333,265.16z"/>
						<path style="fill:#263238;" d="M228.432,264.525c-0.062,0-0.112-0.05-0.112-0.112v-11.524c0-0.062,0.05-0.112,0.112-0.112
							c0.062,0,0.112,0.05,0.112,0.112v11.524C228.544,264.475,228.494,264.525,228.432,264.525z"/>
						<path style="fill:#263238;" d="M229.53,263.891c-0.062,0-0.112-0.05-0.112-0.112v-11.524c0-0.062,0.05-0.112,0.112-0.112
							s0.112,0.05,0.112,0.112v11.524C229.643,263.841,229.592,263.891,229.53,263.891z"/>
						<path style="fill:#263238;" d="M230.628,263.257c-0.062,0-0.112-0.05-0.112-0.112v-11.524c0-0.062,0.05-0.112,0.112-0.112
							s0.112,0.05,0.112,0.112v11.524C230.741,263.207,230.69,263.257,230.628,263.257z"/>
						<path style="fill:#263238;" d="M231.727,262.623c-0.062,0-0.112-0.05-0.112-0.112v-11.524c0-0.062,0.05-0.112,0.112-0.112
							c0.062,0,0.112,0.05,0.112,0.112v11.524C231.839,262.572,231.789,262.623,231.727,262.623z"/>
						<path style="fill:#263238;" d="M232.826,261.988c-0.062,0-0.112-0.05-0.112-0.112v-11.524c0-0.062,0.05-0.112,0.112-0.112
							s0.112,0.05,0.112,0.112v11.524C232.938,261.938,232.888,261.988,232.826,261.988z"/>
						<path style="fill:#263238;" d="M233.924,261.354c-0.062,0-0.112-0.05-0.112-0.112v-11.524c0-0.062,0.05-0.112,0.112-0.112
							s0.112,0.05,0.112,0.112v11.524C234.036,261.304,233.986,261.354,233.924,261.354z"/>
						<path style="fill:#263238;" d="M235.023,260.72c-0.062,0-0.112-0.05-0.112-0.112v-11.524c0-0.062,0.05-0.112,0.112-0.112
							c0.062,0,0.112,0.05,0.112,0.112v11.524C235.135,260.669,235.085,260.72,235.023,260.72z"/>
						<path style="fill:#263238;" d="M236.121,260.085c-0.062,0-0.112-0.05-0.112-0.112v-11.524c0-0.062,0.05-0.112,0.112-0.112
							c0.062,0,0.112,0.05,0.112,0.112v11.524C236.233,260.035,236.183,260.085,236.121,260.085z"/>
						<path style="fill:#263238;" d="M237.22,259.451c-0.062,0-0.112-0.05-0.112-0.112v-11.524c0-0.062,0.05-0.112,0.112-0.112
							s0.112,0.05,0.112,0.112v11.524C237.332,259.401,237.282,259.451,237.22,259.451z"/>
						<path style="fill:#263238;" d="M238.318,258.817c-0.062,0-0.112-0.05-0.112-0.112V247.18c0-0.062,0.05-0.112,0.112-0.112
							s0.112,0.05,0.112,0.112v11.524C238.43,258.767,238.38,258.817,238.318,258.817z"/>
						<path style="fill:#263238;" d="M239.417,258.183c-0.062,0-0.112-0.05-0.112-0.112v-11.524c0-0.062,0.05-0.112,0.112-0.112
							s0.112,0.05,0.112,0.112v11.524C239.529,258.132,239.479,258.183,239.417,258.183z"/>
						<path style="fill:#263238;" d="M240.515,257.548c-0.062,0-0.112-0.05-0.112-0.112v-11.524c0-0.062,0.05-0.112,0.112-0.112
							c0.062,0,0.112,0.05,0.112,0.112v11.524C240.627,257.498,240.577,257.548,240.515,257.548z"/>
						<path style="fill:#263238;" d="M241.613,256.914c-0.062,0-0.112-0.05-0.112-0.112v-11.524c0-0.062,0.05-0.112,0.112-0.112
							s0.112,0.05,0.112,0.112v11.524C241.726,256.864,241.675,256.914,241.613,256.914z"/>
						<path style="fill:#263238;" d="M242.712,256.28c-0.062,0-0.112-0.05-0.112-0.112v-11.524c0-0.062,0.05-0.112,0.112-0.112
							s0.112,0.05,0.112,0.112v11.524C242.824,256.229,242.774,256.28,242.712,256.28z"/>
						<path style="fill:#263238;" d="M243.811,255.645c-0.062,0-0.112-0.05-0.112-0.112v-11.524c0-0.062,0.05-0.112,0.112-0.112
							c0.062,0,0.112,0.05,0.112,0.112v11.524C243.923,255.595,243.873,255.645,243.811,255.645z"/>
						<path style="fill:#263238;" d="M244.909,255.011c-0.062,0-0.112-0.05-0.112-0.112v-11.524c0-0.062,0.05-0.112,0.112-0.112
							c0.062,0,0.112,0.05,0.112,0.112v11.524C245.021,254.961,244.971,255.011,244.909,255.011z"/>
						<path style="fill:#263238;" d="M246.007,254.377c-0.062,0-0.112-0.05-0.112-0.112V242.74c0-0.062,0.05-0.112,0.112-0.112
							c0.062,0,0.112,0.05,0.112,0.112v11.524C246.12,254.327,246.069,254.377,246.007,254.377z"/>
						<path style="fill:#263238;" d="M247.106,253.743c-0.062,0-0.112-0.05-0.112-0.112v-11.524c0-0.062,0.05-0.112,0.112-0.112
							c0.062,0,0.112,0.05,0.112,0.112v11.524C247.218,253.692,247.168,253.743,247.106,253.743z"/>
						<path style="fill:#263238;" d="M248.204,253.108c-0.062,0-0.112-0.05-0.112-0.112v-11.524c0-0.062,0.05-0.112,0.112-0.112
							s0.112,0.05,0.112,0.112v11.524C248.316,253.058,248.266,253.108,248.204,253.108z"/>
						<path style="fill:#263238;" d="M249.303,252.474c-0.062,0-0.112-0.05-0.112-0.112v-11.524c0-0.062,0.05-0.112,0.112-0.112
							s0.112,0.05,0.112,0.112v11.524C249.415,252.424,249.365,252.474,249.303,252.474z"/>
						<path style="fill:#263238;" d="M250.401,251.84c-0.062,0-0.112-0.05-0.112-0.112v-11.524c0-0.062,0.05-0.112,0.112-0.112
							c0.062,0,0.112,0.05,0.112,0.112v11.524C250.513,251.79,250.463,251.84,250.401,251.84z"/>
						<path style="fill:#263238;" d="M251.5,251.206c-0.063,0-0.112-0.05-0.112-0.112v-11.525c0-0.062,0.05-0.112,0.112-0.112
							s0.112,0.05,0.112,0.112v11.525C251.612,251.155,251.563,251.206,251.5,251.206z"/>
						<path style="fill:#263238;" d="M252.598,250.571c-0.063,0-0.112-0.05-0.112-0.112v-11.524c0-0.062,0.05-0.112,0.112-0.112
							s0.112,0.05,0.112,0.112v11.524C252.71,250.521,252.66,250.571,252.598,250.571z"/>
						<path style="fill:#263238;" d="M253.696,249.936c-0.063,0-0.112-0.05-0.112-0.112V238.3c0-0.062,0.05-0.112,0.112-0.112
							s0.112,0.05,0.112,0.112v11.524C253.809,249.886,253.759,249.936,253.696,249.936z"/>
						<path style="fill:#263238;" d="M254.795,249.302c-0.063,0-0.112-0.05-0.112-0.112v-11.524c0-0.062,0.05-0.112,0.112-0.112
							s0.112,0.05,0.112,0.112v11.524C254.907,249.252,254.857,249.302,254.795,249.302z"/>
						<path style="fill:#263238;" d="M255.894,248.668c-0.063,0-0.112-0.05-0.112-0.112v-11.524c0-0.062,0.05-0.112,0.112-0.112
							s0.112,0.05,0.112,0.112v11.524C256.006,248.618,255.956,248.668,255.894,248.668z"/>
						<path style="fill:#263238;" d="M256.992,248.034c-0.063,0-0.112-0.05-0.112-0.112v-11.524c0-0.062,0.05-0.112,0.112-0.112
							s0.112,0.05,0.112,0.112v11.524C257.104,247.983,257.055,248.034,256.992,248.034z"/>
						<path style="fill:#263238;" d="M258.091,247.399c-0.063,0-0.112-0.05-0.112-0.112v-11.524c0-0.062,0.05-0.112,0.112-0.112
							s0.112,0.05,0.112,0.112v11.524C258.203,247.349,258.153,247.399,258.091,247.399z"/>
						<path style="fill:#263238;" d="M259.189,246.765c-0.063,0-0.112-0.05-0.112-0.112v-11.524c0-0.062,0.05-0.112,0.112-0.112
							s0.112,0.05,0.112,0.112v11.524C259.301,246.715,259.251,246.765,259.189,246.765z"/>
						<path style="fill:#263238;" d="M260.287,246.131c-0.063,0-0.112-0.05-0.112-0.112v-11.524c0-0.062,0.05-0.112,0.112-0.112
							s0.112,0.05,0.112,0.112v11.524C260.399,246.081,260.35,246.131,260.287,246.131z"/>
						<path style="fill:#263238;" d="M261.386,245.497c-0.063,0-0.112-0.05-0.112-0.112V233.86c0-0.062,0.05-0.112,0.112-0.112
							s0.112,0.05,0.112,0.112v11.524C261.498,245.446,261.448,245.497,261.386,245.497z"/>
						<path style="fill:#263238;" d="M262.484,244.862c-0.063,0-0.112-0.05-0.112-0.112v-11.524c0-0.062,0.05-0.112,0.112-0.112
							s0.112,0.05,0.112,0.112v11.524C262.597,244.812,262.547,244.862,262.484,244.862z"/>
						<path style="fill:#263238;" d="M263.583,244.228c-0.063,0-0.112-0.05-0.112-0.112v-11.524c0-0.062,0.05-0.112,0.112-0.112
							s0.112,0.05,0.112,0.112v11.524C263.695,244.178,263.646,244.228,263.583,244.228z"/>
						<path style="fill:#263238;" d="M264.682,243.594c-0.063,0-0.112-0.05-0.112-0.112v-11.524c0-0.062,0.05-0.112,0.112-0.112
							s0.112,0.05,0.112,0.112v11.524C264.794,243.544,264.744,243.594,264.682,243.594z"/>
						<path style="fill:#263238;" d="M265.779,242.96c-0.063,0-0.112-0.05-0.112-0.112v-11.524c0-0.062,0.05-0.112,0.112-0.112
							s0.112,0.05,0.112,0.112v11.524C265.892,242.909,265.842,242.96,265.779,242.96z"/>
						<path style="fill:#263238;" d="M266.878,242.325c-0.063,0-0.112-0.05-0.112-0.112v-11.524c0-0.062,0.05-0.112,0.112-0.112
							s0.112,0.05,0.112,0.112v11.524C266.99,242.275,266.94,242.325,266.878,242.325z"/>
						<path style="fill:#263238;" d="M267.977,241.691c-0.063,0-0.112-0.05-0.112-0.112v-11.524c0-0.062,0.05-0.112,0.112-0.112
							s0.112,0.05,0.112,0.112v11.524C268.089,241.641,268.039,241.691,267.977,241.691z"/>
						<path style="fill:#263238;" d="M269.075,241.057c-0.063,0-0.112-0.05-0.112-0.112V229.42c0-0.062,0.05-0.112,0.112-0.112
							s0.112,0.05,0.112,0.112v11.524C269.188,241.006,269.138,241.057,269.075,241.057z"/>
						<path style="fill:#263238;" d="M270.174,240.422c-0.063,0-0.112-0.05-0.112-0.112v-11.525c0-0.062,0.05-0.112,0.112-0.112
							s0.112,0.05,0.112,0.112v11.525C270.286,240.372,270.236,240.422,270.174,240.422z"/>
						<path style="fill:#263238;" d="M271.272,239.788c-0.063,0-0.112-0.05-0.112-0.112v-11.524c0-0.062,0.05-0.112,0.112-0.112
							s0.112,0.05,0.112,0.112v11.524C271.385,239.738,271.335,239.788,271.272,239.788z"/>
						<path style="fill:#263238;" d="M272.37,239.154c-0.063,0-0.112-0.05-0.112-0.112v-11.524c0-0.062,0.05-0.112,0.112-0.112
							s0.112,0.05,0.112,0.112v11.524C272.482,239.104,272.433,239.154,272.37,239.154z"/>
						<path style="fill:#263238;" d="M273.469,238.52c-0.063,0-0.112-0.05-0.112-0.112v-11.524c0-0.062,0.05-0.112,0.112-0.112
							s0.112,0.05,0.112,0.112v11.524C273.581,238.469,273.531,238.52,273.469,238.52z"/>
						<path style="fill:#263238;" d="M274.567,237.885c-0.063,0-0.112-0.05-0.112-0.112v-11.524c0-0.062,0.05-0.112,0.112-0.112
							s0.112,0.05,0.112,0.112v11.524C274.68,237.835,274.63,237.885,274.567,237.885z"/>
						<path style="fill:#263238;" d="M275.666,237.251c-0.063,0-0.112-0.05-0.112-0.112v-11.524c0-0.062,0.05-0.112,0.112-0.112
							s0.112,0.05,0.112,0.112v11.524C275.778,237.201,275.728,237.251,275.666,237.251z"/>
						<path style="fill:#263238;" d="M276.765,236.617c-0.063,0-0.112-0.05-0.112-0.112V224.98c0-0.062,0.05-0.112,0.112-0.112
							s0.112,0.05,0.112,0.112v11.524C276.877,236.566,276.827,236.617,276.765,236.617z"/>
						<path style="fill:#263238;" d="M277.863,235.982c-0.063,0-0.112-0.05-0.112-0.112v-11.524c0-0.062,0.05-0.112,0.112-0.112
							s0.112,0.05,0.112,0.112v11.524C277.976,235.932,277.926,235.982,277.863,235.982z"/>
						<path style="fill:#263238;" d="M278.961,235.348c-0.063,0-0.112-0.05-0.112-0.112v-11.524c0-0.062,0.05-0.112,0.112-0.112
							s0.112,0.05,0.112,0.112v11.524C279.073,235.298,279.023,235.348,278.961,235.348z"/>
						<path style="fill:#263238;" d="M280.06,234.714c-0.063,0-0.112-0.05-0.112-0.112v-11.524c0-0.062,0.05-0.112,0.112-0.112
							s0.112,0.05,0.112,0.112v11.524C280.172,234.664,280.122,234.714,280.06,234.714z"/>
						<path style="fill:#263238;" d="M281.158,234.08c-0.063,0-0.112-0.05-0.112-0.112v-11.524c0-0.062,0.05-0.112,0.112-0.112
							s0.112,0.05,0.112,0.112v11.524C281.271,234.029,281.221,234.08,281.158,234.08z"/>
						<path style="fill:#263238;" d="M282.257,233.445c-0.063,0-0.112-0.05-0.112-0.112v-11.524c0-0.062,0.05-0.112,0.112-0.112
							s0.112,0.05,0.112,0.112v11.524C282.369,233.395,282.319,233.445,282.257,233.445z"/>
						<path style="fill:#263238;" d="M283.355,232.811c-0.063,0-0.112-0.05-0.112-0.112v-11.524c0-0.062,0.05-0.112,0.112-0.112
							s0.112,0.05,0.112,0.112v11.524C283.468,232.761,283.418,232.811,283.355,232.811z"/>
						<path style="fill:#263238;" d="M284.454,232.177c-0.063,0-0.112-0.05-0.112-0.112V220.54c0-0.062,0.05-0.112,0.112-0.112
							s0.112,0.05,0.112,0.112v11.525C284.566,232.126,284.517,232.177,284.454,232.177z"/>
						<path style="fill:#263238;" d="M285.552,231.542c-0.063,0-0.112-0.05-0.112-0.112v-11.524c0-0.062,0.05-0.112,0.112-0.112
							s0.112,0.05,0.112,0.112v11.524C285.664,231.492,285.614,231.542,285.552,231.542z"/>
						<path style="fill:#263238;" d="M286.65,230.908c-0.063,0-0.112-0.05-0.112-0.112v-11.524c0-0.062,0.05-0.112,0.112-0.112
							s0.112,0.05,0.112,0.112v11.524C286.763,230.858,286.713,230.908,286.65,230.908z"/>
						<path style="fill:#263238;" d="M287.749,230.274c-0.063,0-0.112-0.05-0.112-0.112v-11.524c0-0.062,0.05-0.112,0.112-0.112
							s0.112,0.05,0.112,0.112v11.524C287.861,230.224,287.811,230.274,287.749,230.274z"/>
						<path style="fill:#263238;" d="M288.848,229.64c-0.063,0-0.112-0.05-0.112-0.112v-11.524c0-0.062,0.05-0.112,0.112-0.112
							s0.112,0.05,0.112,0.112v11.524C288.96,229.589,288.91,229.64,288.848,229.64z"/>
						<path style="fill:#263238;" d="M289.946,229.005c-0.063,0-0.112-0.05-0.112-0.112v-11.524c0-0.062,0.05-0.112,0.112-0.112
							s0.112,0.05,0.112,0.112v11.524C290.059,228.955,290.009,229.005,289.946,229.005z"/>
						<path style="fill:#263238;" d="M291.045,228.371c-0.063,0-0.112-0.05-0.112-0.112v-11.524c0-0.062,0.05-0.112,0.112-0.112
							s0.112,0.05,0.112,0.112v11.524C291.157,228.321,291.107,228.371,291.045,228.371z"/>
						<path style="fill:#263238;" d="M292.144,227.736c-0.063,0-0.112-0.05-0.112-0.112V216.1c0-0.062,0.05-0.112,0.112-0.112
							s0.112,0.05,0.112,0.112v11.524C292.256,227.686,292.206,227.736,292.144,227.736z"/>
						<path style="fill:#263238;" d="M293.241,227.102c-0.063,0-0.112-0.05-0.112-0.112v-11.524c0-0.062,0.05-0.112,0.112-0.112
							s0.112,0.05,0.112,0.112v11.524C293.353,227.052,293.304,227.102,293.241,227.102z"/>
						<path style="fill:#263238;" d="M294.34,226.468c-0.063,0-0.112-0.05-0.112-0.112v-11.524c0-0.062,0.05-0.112,0.112-0.112
							s0.112,0.05,0.112,0.112v11.524C294.452,226.417,294.402,226.468,294.34,226.468z"/>
						<path style="fill:#263238;" d="M295.439,225.833c-0.063,0-0.112-0.05-0.112-0.112v-11.524c0-0.062,0.05-0.112,0.112-0.112
							s0.112,0.05,0.112,0.112v11.524C295.551,225.783,295.501,225.833,295.439,225.833z"/>
						<path style="fill:#263238;" d="M296.537,225.199c-0.063,0-0.112-0.05-0.112-0.112v-11.524c0-0.062,0.05-0.112,0.112-0.112
							s0.112,0.05,0.112,0.112v11.524C296.649,225.149,296.6,225.199,296.537,225.199z"/>
						<path style="fill:#263238;" d="M297.636,224.565c-0.063,0-0.112-0.05-0.112-0.112v-11.524c0-0.062,0.05-0.112,0.112-0.112
							s0.112,0.05,0.112,0.112v11.524C297.748,224.515,297.698,224.565,297.636,224.565z"/>
						<path style="fill:#263238;" d="M298.733,223.931c-0.063,0-0.112-0.05-0.112-0.112v-11.524c0-0.062,0.05-0.112,0.112-0.112
							s0.112,0.05,0.112,0.112v11.524C298.846,223.88,298.796,223.931,298.733,223.931z"/>
						<path style="fill:#263238;" d="M299.832,223.296c-0.063,0-0.112-0.05-0.112-0.112V211.66c0-0.062,0.05-0.112,0.112-0.112
							s0.112,0.05,0.112,0.112v11.524C299.944,223.246,299.895,223.296,299.832,223.296z"/>
						<path style="fill:#263238;" d="M300.931,222.662c-0.063,0-0.112-0.05-0.112-0.112v-11.524c0-0.062,0.05-0.112,0.112-0.112
							s0.112,0.05,0.112,0.112v11.524C301.043,222.612,300.993,222.662,300.931,222.662z"/>
						<path style="fill:#263238;" d="M302.029,222.028c-0.063,0-0.112-0.05-0.112-0.112v-11.524c0-0.062,0.05-0.112,0.112-0.112
							s0.112,0.05,0.112,0.112v11.524C302.142,221.977,302.092,222.028,302.029,222.028z"/>
						<path style="fill:#263238;" d="M303.128,221.394c-0.063,0-0.112-0.05-0.112-0.112v-11.524c0-0.062,0.05-0.112,0.112-0.112
							s0.112,0.05,0.112,0.112v11.524C303.24,221.343,303.19,221.394,303.128,221.394z"/>
					</g>
				</g>
				<polygon style="fill:#FAFAFA;" points="179.426,279.294 179.426,281.182 303.128,209.757 303.128,207.869 				"/>
			</g>
			<g>
				<polygon style="fill:#263238;" points="185.049,303.873 183.455,302.952 181.862,302.031 181.027,302.514 181.027,293.223 
					179.433,292.302 179.419,292.31 179.419,279.303 177.826,278.382 176.218,279.308 176.218,296.014 177.812,296.935 
					177.825,296.928 177.826,306.22 179.419,307.14 				"/>
				<polygon style="fill:#37474F;" points="181.027,304.357 181.027,293.223 179.419,294.151 179.419,279.303 177.812,280.229 
					177.812,296.935 179.419,296.007 179.419,307.141 185.049,303.873 183.455,302.952 				"/>
				<polygon style="fill:#455A64;" points="177.812,280.229 179.419,279.303 177.826,278.382 176.218,279.308 				"/>
			</g>
		</g>
	</g>
</g>
<g id="Character_2_1_">
	<g id="Character_7_">
		<g id="Bottom_1_">
			<path style="fill:#B16668;" d="M428.467,285.854c1.545,7.534,2.198,11.958-3.597,19.106
				c-5.796,7.148-32.227,25.399-32.227,25.399s1.669,1.802,2.95,6.16c1.561,5.307,1.472,24.932,2.12,34.112
				c-0.702,3.433-7.231,5.174-9.702,0.81c0,0-8.386-29.756-11.011-37.484c-2.625-7.727-3.137-9.273,1.659-15.455
				c4.796-6.182,23.777-26.448,23.187-32.144L428.467,285.854z"/>
			<g>
				<path style="fill:#EBEBEB;" d="M400.573,379.953c0,0,0.115,1.357-0.291,2.171c-0.406,0.814-3.377,1.934-6.078,1.844
					c-2.701-0.091-7.319-1.252-9.629-1.019c-2.31,0.233-4.826,1.198-8.564,0.751c-3.738-0.447-7.053-1.433-7.353-3.291
					c-0.299-1.858,16.368-2.037,23.362-1.602C399.016,379.242,400.573,379.953,400.573,379.953z"/>
				<path style="fill:#455A64;" d="M397.602,368.819c1.342,0.24,0.923,1.226,1.587,3.556c0.664,2.33,1.68,4.345,1.384,7.579
					c-0.966,1.742-4.461,2.589-8.543,2.123c-4.082-0.466-8.733-0.194-11.904,0.602c-3.171,0.796-10.76-0.872-11.469-2.27
					c-0.708-1.397-0.247-3.188,0.983-4.081c1.23-0.893,6.258-1.143,10.243-3.123c3.519-1.748,5.736-3.196,6.226-4.537
					c0.493-1.351,1.503-1.213,1.989-0.116c0.332,0.749-0.026,1.807-0.026,1.807s1.584,0.326,2.186,0.694
					c0.602,0.368,1.123,1.333,1.752,1.499c0.629,0.166,0.856-1.35,1.94-1.937c1.084-0.587,3.696-0.766,3.696-0.766L397.602,368.819z
					"/>
				<path style="fill:#BA68C8;" d="M375.499,374.757l0.001-0.002c1.451-0.372,2.981-0.852,4.385-1.549
					c3.519-1.749,5.736-3.196,6.226-4.537c0.493-1.351,1.503-1.213,1.989-0.116c0.25,0.563,0.109,1.301,0.024,1.633
					c-0.769,1.347-1.774,2.073-3.807,3.049c-2.034,0.977-7.154,3.095-8.632,3.126C374.204,376.392,374.901,375.526,375.499,374.757z
					"/>
				<path style="fill:#263238;" d="M368.53,381.268c0.678,1.259,2.766,2.334,6.589,2.987c3.823,0.652,7.771-0.314,9.096-0.637
					c1.324-0.323,3.359,0.249,7.192,0.95s7.734-0.506,8.463-1.063c0.729-0.557,0.413-1.38,0.413-1.38
					c-0.406,0.814-3.377,1.935-6.078,1.844c-2.701-0.09-7.319-1.252-9.629-1.019c-2.31,0.233-4.826,1.198-8.564,0.751
					c-2.536-0.303-4.874-0.856-6.211-1.759c-0.594-0.924-0.417-2.195-0.343-2.748c0.074-0.554-0.621-1.296-0.799-1.661
					C368.234,377.606,367.851,380.009,368.53,381.268z"/>
				<path style="fill:#37474F;" d="M385.152,369.968c-0.057,0.11-0.298,0.263-0.298,0.263c-0.778,1.752-0.497,3.461-0.497,3.461
					s-0.512,0.494-1.227,0.665c0,0-0.399-1.795,0.386-3.157C383.517,371.199,384.094,370.026,385.152,369.968z"/>
				<path style="fill:#37474F;" d="M381.627,372.304c-0.386,0.783-0.336,2.51-0.336,2.51s-0.761,0.605-1.274,0.536
					c0.102-1.108,0.104-2.138,0.59-2.794c0.486-0.656,1.395-0.85,1.592-0.567L381.627,372.304z"/>
				<path style="fill:#37474F;" d="M378.948,373.628c-0.441,0.754-0.513,2.48-0.513,2.48s-0.802,0.549-1.309,0.444
					c0.181-1.098,0.255-2.125,0.786-2.746c0.531-0.62,1.454-0.734,1.631-0.437L378.948,373.628z"/>
				<path style="fill:#BA68C8;" d="M392.364,382.108c0.832-0.814,1.249-2.207,1.606-3.297c0.751-2.294,3.261-4.304,6.061-3.742
					c0.415,1.408,0.721,2.921,0.542,4.884C399.634,381.648,396.301,382.491,392.364,382.108z"/>
			</g>
			<g>
				<path style="fill:#B16668;" d="M438.631,273.841c2.642,8.385,3.563,13.095,1.49,22.339c-1.411,6.294-5.818,24.182-5.818,24.182
					s3.525,2.845,6.311,9.043c2.35,5.228,3.71,10.42,5.22,16.601c2.337,9.565,3.354,12.161,3.354,12.161s-2.919,2.121-6.046,2.33
					c-3.127,0.209-3.056-1.654-3.703-3.464c-1.037-2.9-1.292-3.719-3.442-6.834c-5.772-8.365-12.074-17.137-15.678-22.212
					c-3.178-4.475-3.714-6.055-2.818-16.733c0.931-11.094,2.044-26.932,2.044-26.932L438.631,273.841z"/>
				<g>
					<path style="fill:#263238;" d="M451.352,365.263c0.058,1.04-0.561,1.812-3.042,2.29c-2.481,0.477-5.522-0.068-7.545-1.222
						c-2.023-1.154-3.158-1.456-4.698-1.34c-1.54,0.116-5.276-0.662-6.658-1.649c-1.381-0.987-2.44-2.843-2.442-4.15
						s-0.069-2.663,0.97-2.762C428.978,356.331,451.352,365.263,451.352,365.263z"/>
					<path style="fill:#EBEBEB;" d="M451.392,363.977c0.081,1.096,0.098,1.319-0.432,1.733c-0.53,0.414-3.178,1.55-6.354,1.153
						c-3.176-0.397-4.605-1.975-6.461-2.247c-1.855-0.272-4.832,0.477-7.963-1.309c-3.13-1.786-2.793-4.06-2.825-4.693
						L451.392,363.977z"/>
					<path style="fill:#455A64;" d="M448.363,353.181c-0.038-0.019-0.077-0.035-0.117-0.051c-1.119-0.435-2.286-0.188-3.436,0.022
						c-1.221,0.223-2.513,0.624-3.255,1.619c-0.339,0.455-0.534,0.998-0.787,1.506c-0.062,0.125-0.15,0.264-0.289,0.276
						c-0.079,0.007-0.154-0.031-0.224-0.069c-0.247-0.136-0.481-0.294-0.699-0.473c-0.158-0.13-0.31-0.271-0.493-0.362
						c-0.344-0.171-0.626-0.017-0.961,0.079c-1.337,0.384-3.003,0.267-4.391,0.268c-4.379,0.004-4.474-0.145-5.409,0.213
						c-0.936,0.358-1.169,1.63-0.84,2.808c0.329,1.178,0.861,2.873,4.2,4.065c3.338,1.192,5.751-0.209,10.185,1.905
						c0.899,0.429,3.016,0.801,4.147,0.677c1.93-0.212,4.236-0.664,5.397-1.689c0.641-2.58-0.759-5.333-1.668-7.475
						c-0.254-0.597-0.478-1.206-0.686-1.82c-0.141-0.417-0.225-1.078-0.541-1.407C448.458,353.236,448.412,353.206,448.363,353.181z
						"/>
					<path style="fill:#BA68C8;" d="M442.945,363.745c0.724-0.872,0.31-2.078,1.43-3.636c1.118-1.558,4.238-2.411,6.164-1.693
						c0.712,1.748,1.315,3.698,0.852,5.561c-1.16,1.024-3.466,1.477-5.397,1.689c-1.131,0.124-3.248-0.248-4.147-0.677
						c-0.428-0.204-0.833-0.367-1.226-0.512l-0.008-0.009C440.613,364.468,442.29,364.535,442.945,363.745z"/>
					<path style="fill:#BA68C8;" d="M431.501,355.959c-0.72,0.018-1.742,0.455-1.574,0.629c0.168,0.174,1.431,0.821,3.343,0.68
						c3.397-0.251,5.346-1.221,5.622-1.676c0,0-0.373-0.827-0.71-1.561c-0.195-0.426-0.865,0.076-1.835,0.801
						C435.377,355.556,432.879,356.104,431.501,355.959z"/>
					<path style="fill:#37474F;" d="M435.96,355.071c-0.569,0.256-1.264,1.295-1.204,2.085c0,0-0.369,0.209-0.822,0.152
						c0,0-0.164-0.91,0.604-1.703c0.767-0.793,1.575-0.937,1.889-0.834C436.234,354.956,435.96,355.071,435.96,355.071z"/>
					<path style="fill:#37474F;" d="M434.052,355.727c-0.424,0.087-1.179,0.548-1.414,1.589c0,0-0.358,0.18-0.826-0.029
						c0.034-0.316,0.258-1.041,1.218-1.543c0.96-0.502,1.508-0.139,1.508-0.139L434.052,355.727z"/>
					<path style="fill:#37474F;" d="M432.493,355.963c-0.355,0.017-1.426,0.578-1.593,1.069c0,0-0.389,0.032-0.676-0.26
						c0.212-0.393,0.894-0.8,1.756-0.962c0.862-0.162,1.152,0.07,1.152,0.07L432.493,355.963z"/>
				</g>
			</g>
			<path style="fill:#37474F;" d="M439.438,273.006c2.653,8.488,3.32,11.671,2.259,19.401c-1.061,7.73-4.244,19.704-4.244,19.704
				s-3.087,2.566-9.518,3.783c-5.928,1.121-9.693,0.761-11.055-0.365l0.231-2.72l-13.828,10.957c0,0-15.046-5.027-18.002-14.595
				c4.552-6.595,9.683-12.159,13.684-18.105c1.35-2.006,2.415-3.401,3.015-8.401L439.438,273.006z"/>
			<path style="fill:#263238;" d="M432.711,295.169c-0.444,3.289-1.6,7.377-5.777,11.644c-4.178,4.267-6.755,4.8-6.578,6.844
				c0.17,1.957,3.115,2.905,5.648,2.56c-4.817,0.704-7.918,0.31-9.125-0.688l0.231-2.72
				C427.912,304.324,431.556,300.236,432.711,295.169z"/>
			<path style="fill:#9A4A4D;" d="M434.303,320.362c0,0-4.136,2.929-8.689,1.654c2.277-0.091,8.197-1.938,9.471-4.839
				L434.303,320.362z"/>
			<path style="fill:#9A4A4D;" d="M392.643,330.359c-1.945-2.439-6.395-3.826-8.511-3.607c5.325-0.802,8.356,0.858,10.087,2.508
				L392.643,330.359z"/>
		</g>
		<g id="Top_2_">
			<g>
				<path style="fill:#9A4A4D;" d="M367.81,254.686c0.248-0.146,0.464-0.35,0.733-0.453c0.339-0.13,0.718-0.084,1.076-0.144
					c0.867-0.145,1.494-0.876,2.228-1.359c0.779-0.512,1.711-0.753,2.64-0.824c0.929-0.071,1.862,0.021,2.788,0.13
					c0.439,0.051,0.883,0.107,1.321,0.046c0.438-0.061,0.876-0.253,1.138-0.608c0.326-0.442,0.318-1.075,0.061-1.561
					c-0.256-0.485-0.726-0.832-1.236-1.036c-0.51-0.203-1.061-0.277-1.608-0.327c-1.599-0.146-3.219-0.101-4.801,0.173
					c-1.29,0.223-2.562,0.602-3.71,1.23c-1.162,0.635-1.903,1.619-2.538,2.759c-0.238,0.428-0.473,0.885-0.461,1.374
					C365.464,255.083,367.213,255.036,367.81,254.686z"/>
				<path style="fill:#B16668;" d="M393.233,247.45c-5.284,0.344-7.299-0.312-9.778-0.85c-2.796-0.606-7.321-0.982-9.28-0.791
					c-1.959,0.191-5.962,3.336-6.82,4.194c-0.858,0.858-2.135,3.339-2.926,4.38c0.233,0.558,1.566,0.864,2.685-0.146
					c0.954-0.861,1.729-2.105,3.635-2.963c1.906-0.858,3.837-0.779,5.615-0.468c1.778,0.311,2.179,0.722,0.654,1.961
					c-1.525,1.239-1.901,1.411-3.166,2.202c-1.306,0.817-1.68,1.336-1.928,1.954c-0.454,1.129,0.023,1.762,1.622,1.205
					c1.61-0.56,2.868-0.686,4.775-1.298s2.869-1.274,4.453-1.351c2.015-0.098,10.202,0.356,10.202,0.356L393.233,247.45z"/>
				<path style="fill:#37474F;" d="M417.094,228.725c3.327-0.38,6.715-0.467,8.803,2.769c1.702,2.639,5.384,14.278,5.384,14.278
					L417.094,228.725z"/>
			</g>
			<g>
				<polygon id="XMLID_313_" style="fill:#B16668;" points="397.834,228.977 400.31,240.049 413.566,236.598 410.886,225.013 				
					"/>
				<g id="XMLID_296_">
					<g id="XMLID_303_">
						<path id="XMLID_311_" style="fill:#9A4A4D;" d="M387.857,214.47c0,0-2.868,4.984-2.54,5.393
							c0.327,0.41,2.825,0.562,2.825,0.562L387.857,214.47z"/>
					</g>
					<g id="XMLID_299_">
						<path id="XMLID_300_" style="fill:#B16668;" d="M396.083,198.574c-5.627,1.314-7.712,4.191-8.319,14.119
							c-0.22,3.596,0.002,7.573,0.503,10.214c0.807,4.258,1.887,5.455,3.091,6.247c0.996,0.655,6.165,0.874,8.484,0.181
							c2.903-0.868,9.451-3.349,12.44-8.135c3.515-5.632,3.566-12.395,0.35-16.182C405.108,196.16,398.373,198.039,396.083,198.574z
							"/>
					</g>
					<path style="fill:#9A4A4D;" d="M391.357,229.154c0.749,0.482,3.714,0.933,6.631,0.509l-0.437-1.962
						c0,0-1.386,0.811-3.398,1.368C393.311,229.302,392.295,229.398,391.357,229.154z"/>
				</g>
				<g id="XMLID_274_">
					<g id="XMLID_284_">
						<g id="XMLID_285_">
							<path id="XMLID_291_" style="fill:#263238;" d="M392.448,209.972c0.38,0.027,0.762,0.046,1.141,0.063
								c-0.013-0.001,0.688,1.446,0.792,1.584c0.402,0.534,0.895,0.796,1.381,1.196c0.433,0.357,0.315,0.361,0.195,0.981
								c-0.103,0.536-0.115,1.078-0.104,1.622c0.005,0.426,0.049,0.874,0.293,1.224c0.43,0.616,1.127,0.533,1.436-0.06
								c0.37-0.712,0.623-1.449,1.15-2.074c0.609-0.722,1.451-1.282,2.387-1.404c3.543-0.463,4.085,4.171,2.707,6.128
								c-2.256,3.202-4.276,1.111-4.276,1.111s-0.369,3.872,3.912,7.43c0.825,0.685,2.239,0.872,3.252,0.939
								c1.038,0.068,3.815-0.132,4.741-1.223c1.986-5.755,7.808-9.862,7.592-16.36c-0.135-4.089-2.282-5.788-3.724-5.944
								c0.894-5.456-4.496-7.911-8.051-8.997c-1.856-0.567-3.841-0.521-5.776-0.369c-0.944,0.075-1.888,0.177-2.835,0.195
								c-2.974,0.056-5.96-0.739-8.511-2.269c-0.505,1.421-0.522,3.01-0.047,4.441c-0.882-0.137-1.715-0.566-2.341-1.202
								c-0.161-0.164-0.348-0.356-0.576-0.327c-0.188,0.025-0.32,0.196-0.412,0.361c-0.566,1.009-0.484,2.28-0.059,3.356
								c0.425,1.076,1.154,1.999,1.874,2.905c-0.658,0.281-1.138,0.44-1.537,1.056c-0.18,0.277-0.313,0.587-0.39,0.908
								c-0.075,0.314,0.026,0.695-0.052,0.982c0.205,1.429,1.392,2.563,2.726,3.115C390.32,209.748,391.381,209.896,392.448,209.972
								z"/>
						</g>
					</g>
				</g>
			</g>
			<path style="fill:#BA68C8;" d="M392.272,240.049c2.141-1.56,6.922-4.988,6.922-4.988s4.443,1.105,9.319-1.149
				c4.13-1.909,3.402-4.449,3.402-4.449s1.575-0.373,5.178-0.739c3.727,0.863,9.766,6.958,13.423,14.916
				c6.347,13.814,9.197,25.675,11.426,37.053c-2.317,10.53-31.691,16.812-41.119,6.398c0,0,1.807-4.453,0.508-10.648
				c-1.456-6.942-5.677-13.405-8.097-19.303C389.783,248.732,392.272,240.049,392.272,240.049z"/>
			<path style="opacity:0.25;" d="M392.272,240.049c2.141-1.56,6.922-4.988,6.922-4.988s4.443,1.105,9.319-1.149
				c4.13-1.909,3.402-4.449,3.402-4.449s1.575-0.373,5.178-0.739c3.727,0.863,9.766,6.958,13.423,14.916
				c6.347,13.814,9.197,25.675,11.426,37.053c-2.317,10.53-31.691,16.812-41.119,6.398c0,0,1.807-4.453,0.508-10.648
				c-1.456-6.942-5.677-13.405-8.097-19.303C389.783,248.732,392.272,240.049,392.272,240.049z"/>
			<g>
				<g>
					<path style="fill:#263238;" d="M344.365,294.891l-1.003-1.518l4.039-11.429l1.002,1.518c0.173,0.307,0.3,0.643,0.402,0.995
						c0.671,0.385,1.644,0.49,2.781,0.257l10.189-2.085c0.073-0.014,0.127,0.01,0.163,0.066c0.142,0.216,0.966,1.462,1.002,1.517
						c0.356,0.537-0.944,4.041-1.661,4.174l-10.044,1.678c-1.898,0.316-4.003,1.536-5.309,3.13
						C345.448,293.777,344.925,294.344,344.365,294.891z"/>
					<path style="fill:#BA68C8;" d="M330.424,301.434c-4.046,0.678-7.071-0.296-8.43-2.344c-0.174-0.261-0.849-1.296-1.017-1.552
						c-0.887-1.352-1.057-3.163-0.308-5.284c1.894-5.359,8.959-10.832,15.78-12.224l2.311-0.472c4.066-0.83,7.091,0.059,8.456,2.102
						c0.175,0.262,0.854,1.298,1.022,1.552c0.91,1.379,1.071,3.276,0.274,5.532l-0.027,0.077
						c-1.989,5.628-9.055,11.104-15.783,12.232L330.424,301.434z"/>
					<path style="opacity:0.4;" d="M330.424,301.434c-4.046,0.678-7.071-0.296-8.43-2.344c-0.174-0.261-0.849-1.296-1.017-1.552
						c-0.887-1.352-1.057-3.163-0.308-5.284c1.894-5.359,8.959-10.832,15.78-12.224l2.311-0.472c4.066-0.83,7.091,0.059,8.456,2.102
						c0.175,0.262,0.854,1.298,1.022,1.552c0.91,1.379,1.071,3.276,0.274,5.532l-0.027,0.077
						c-1.989,5.628-9.055,11.104-15.783,12.232L330.424,301.434z"/>
					<path style="fill:#BA68C8;" d="M348.486,288.821l0.027-0.077c1.989-5.628-1.928-9.061-8.75-7.668l-2.311,0.472
						c-6.821,1.393-13.887,6.866-15.78,12.225c-1.894,5.359,2.025,8.789,8.752,7.662l2.279-0.382
						C339.431,299.925,346.497,294.449,348.486,288.821z"/>
					<path style="opacity:0.15;" d="M348.486,288.821l0.027-0.077c1.989-5.628-1.928-9.061-8.75-7.668l-2.311,0.472
						c-6.821,1.393-13.887,6.866-15.78,12.225c-1.894,5.359,2.025,8.789,8.752,7.662l2.279-0.382
						C339.431,299.925,346.497,294.449,348.486,288.821z"/>
					<path style="fill:#455A64;" d="M344.365,294.891c0.56-0.547,1.083-1.114,1.561-1.698c1.306-1.593,3.411-2.813,5.309-3.13
						l10.044-1.678c0.789-0.147,2.288-4.386,1.498-4.239l-10.188,2.085c-1.926,0.395-3.405-0.157-3.689-1.454
						c-0.103-0.476-0.271-0.914-0.496-1.315L344.365,294.891z"/>
				</g>
				<path style="fill:#B16668;" d="M392,240.588c-4.455,2.801-5.92,4.048-6.217,10.877c-0.297,6.829-1.176,22.808-1.176,22.808
					s-11.316,4.631-16.673,5.904c-3.62,0.86-4.26-0.385-7.973-0.173c-3.12,0.178-3.522,0.861-5.714,1.94
					c-2.777,1.367-2.454,2.728-2.454,2.728l4.522-0.926c0,0,0.022,0.032,0.058,0.093c1.399,2.351-0.061,5.376-2.76,5.827
					l-1.557,0.26c0,0-0.82,0.137-1.541,0.297c0.024-0.005,0.664,0.866,0.734,0.944c0.368,0.411,0.754,0.807,1.128,1.213
					c0.759,0.825,1.436,1.877,2.735,1.595c0.182-0.04,0.358-0.105,0.542-0.13c0.67-0.092,1.314,0.348,1.989,0.319
					c0.816-0.034,1.459-0.725,2.269-0.724c0.983,0.001,1.75-0.328,2.601-0.78c0.991-0.525,1.762-2.247,5.932-3.308
					c4.673-1.189,20.856-2.957,23.791-3.908c4.801-1.556,4.439-3.487,5.169-8.418c0.729-4.932,2.222-21.902,2.222-21.902
					S400.097,244.608,392,240.588z"/>
				<path style="fill:#37474F;" d="M392.272,240.049c-1.768,1.155-3.93,2.486-5.013,4.111c-1.083,1.625-1.277,2.089-1.664,6.925
					s-1.045,17.642-1.045,17.642s1.221,2.371,5.754,3.481c5.363,1.312,8.25,0.15,8.25,0.15s1.395-12.567,1.712-17.064
					C400.616,250.361,399.704,242.848,392.272,240.049z"/>
			</g>
		</g>
	</g>
</g>
<g id="Ball">
	<g id="Tennis_Ball_2_">
		<circle style="fill:#FFFFFF;" cx="206.487" cy="200.279" r="4.447"/>
		<path style="opacity:0.15;" d="M210.337,213.137c2.127,1.228,2.127,3.219,0,4.447c-2.127,1.228-5.575,1.228-7.702,0
			c-2.127-1.228-2.127-3.219,0-4.447C204.762,211.909,208.211,211.909,210.337,213.137z"/>
	</g>
</g>
</svg>
